<svg width="27" height="27" viewBox="0 0 27 27" fill="none" xmlns="http://www.w3.org/2000/svg">
<path d="M26.5928 16.7658C24.7898 23.9979 17.4648 28.3993 10.2318 26.5958C3.00181 24.7927 -1.39957 17.4674 0.404346 10.2357C2.20658 3.0027 9.53153 -1.39909 16.7624 0.403982C23.9949 2.20706 28.3959 9.53326 26.5928 16.7658Z" fill="#575483"/>
<path d="M19.451 11.5774C19.7197 9.78109 18.352 8.81543 16.4819 8.17123L17.0885 5.73788L15.6073 5.36874L15.0167 7.73796C14.6273 7.64093 14.2274 7.54939 13.83 7.45869L14.4248 5.07385L12.9445 4.70471L12.3374 7.13722C12.0151 7.06381 11.6987 6.99126 11.3916 6.9149L11.3932 6.9073L9.35056 6.39725L8.95653 7.97927C8.95653 7.97927 10.0555 8.23113 10.0323 8.24674C10.6322 8.3965 10.7406 8.79348 10.7225 9.10819L10.0314 11.8803C10.0728 11.8909 10.1264 11.906 10.1854 11.9297C10.1361 11.9174 10.0833 11.9039 10.0289 11.8909L9.0603 15.7742C8.9869 15.9564 8.80086 16.2298 8.38152 16.126C8.39629 16.1475 7.30491 15.8573 7.30491 15.8573L6.56958 17.5528L8.49711 18.0333C8.8557 18.1232 9.20711 18.2172 9.55305 18.3058L8.94008 20.767L10.4196 21.1362L11.0266 18.7011C11.4308 18.8108 11.8231 18.9121 12.207 19.0074L11.6021 21.431L13.0833 21.8002L13.6962 19.3436C16.222 19.8216 18.1212 19.6288 18.9207 17.3444C19.5649 15.505 18.8886 14.444 17.5597 13.7522C18.5275 13.529 19.2565 12.8924 19.451 11.5774ZM16.0667 16.323C15.609 18.1624 12.512 17.168 11.508 16.9187L12.3214 13.6581C13.3254 13.9087 16.5451 14.4048 16.0667 16.323ZM16.5249 11.5508C16.1072 13.224 13.5296 12.3739 12.6935 12.1655L13.4309 9.20819C14.267 9.41659 16.9598 9.80555 16.5249 11.5508Z" fill="#9F9CC7"/>
</svg>
