<svg width="176" height="245" viewBox="0 0 176 245" fill="none" xmlns="http://www.w3.org/2000/svg">
<g id="&#208;&#151;&#208;&#176;&#208;&#186;&#209;&#128;&#209;&#139;&#209;&#130;&#208;&#176;&#209;&#143;">
<rect id="Mask" x="175.75" width="245" height="175" transform="rotate(90 175.75 0)" fill="url(#paint0_linear)"/>
<mask id="mask0" mask-type="alpha" maskUnits="userSpaceOnUse" x="0" y="0" width="176" height="245">
<rect id="Mask_2" x="175.75" width="245" height="175" transform="rotate(90 175.75 0)" fill="white"/>
</mask>
<g mask="url(#mask0)">
<g id="Group 3" opacity="0.306548">
<path id="Rectangle" fill-rule="evenodd" clip-rule="evenodd" d="M190.828 149.521L187.12 160.934L99.8889 128.448L101.162 124.529L190.828 149.521Z" fill="url(#paint1_linear)"/>
<path id="Rectangle_2" fill-rule="evenodd" clip-rule="evenodd" d="M181.476 178.1L177.663 183.97L100.919 131.392L102.228 129.376L181.476 178.1Z" fill="url(#paint2_linear)"/>
<path id="Rectangle_3" fill-rule="evenodd" clip-rule="evenodd" d="M191.882 100.97L194.377 112.708L102.59 128.19L101.734 124.16L191.882 100.97Z" fill="url(#paint3_linear)"/>
<path id="Rectangle_4" fill-rule="evenodd" clip-rule="evenodd" d="M211.678 40.0444L222.344 67.1849L102.051 124.055L100.181 120.384L211.678 40.0444Z" fill="url(#paint4_linear)"/>
<path id="Rectangle_5" fill-rule="evenodd" clip-rule="evenodd" d="M130.164 -10.0345L141.577 -6.32631L96.7303 118.947L92.8119 117.674L130.164 -10.0345Z" fill="url(#paint5_linear)"/>
<path id="Rectangle_6" fill-rule="evenodd" clip-rule="evenodd" d="M101.094 -19.2385L115.536 -14.5459L91.8121 116.354L88.7601 115.871L101.094 -19.2385Z" fill="url(#paint6_linear)"/>
<path id="Rectangle_7" fill-rule="evenodd" clip-rule="evenodd" d="M187.54 -23.701L197.604 -17.1654L107.157 114.876L103.702 112.632L187.54 -23.701Z" fill="url(#paint7_linear)"/>
<path id="Rectangle_8" fill-rule="evenodd" clip-rule="evenodd" d="M27.9521 -76.1035L73.9585 -84.0959L88.2778 117.893L84.2981 118.96L27.9521 -76.1035Z" fill="url(#paint8_linear)"/>
<path id="Rectangle_9" fill-rule="evenodd" clip-rule="evenodd" d="M-25.1524 -46.692L-1.00714 -61.0828L90.8168 120.005L87.179 121.94L-25.1524 -46.692Z" fill="url(#paint9_linear)"/>
<path id="Rectangle_10" fill-rule="evenodd" clip-rule="evenodd" d="M-18.3086 94.1859L-14.6004 82.7732L87.8473 120.203L86.5741 124.122L-18.3086 94.1859Z" fill="url(#paint10_linear)"/>
<path id="Rectangle_11" fill-rule="evenodd" clip-rule="evenodd" d="M-77.3225 -21.9886L-71.746 -28.4036L89.063 115.083L87.1484 117.286L-77.3225 -21.9886Z" fill="url(#paint11_linear)"/>
<path id="Rectangle_12" fill-rule="evenodd" clip-rule="evenodd" d="M-74.2326 24.0042L-67.697 13.9401L84.4726 117.458L82.2286 120.913L-74.2326 24.0042Z" fill="url(#paint12_linear)"/>
<path id="Rectangle_13" fill-rule="evenodd" clip-rule="evenodd" d="M194.377 227.424L175.75 251.34L98.3879 139.442L101.45 136.685L194.377 227.424Z" fill="url(#paint13_linear)"/>
<path id="Rectangle_14" fill-rule="evenodd" clip-rule="evenodd" d="M135.152 264.631L110.754 268.621L90.2095 133.683L94.2396 132.826L135.152 264.631Z" fill="url(#paint14_linear)"/>
<path id="Rectangle_15" fill-rule="evenodd" clip-rule="evenodd" d="M66.2908 289.908L29.4603 277.941L91.9569 130.013L95.8753 131.286L66.2908 289.908Z" fill="url(#paint15_linear)"/>
<path id="Rectangle_16" fill-rule="evenodd" clip-rule="evenodd" d="M22.6413 257.976L-16 245L89.0736 124.068L92.8579 126.525L22.6413 257.976Z" fill="url(#paint16_linear)"/>
<path id="Rectangle_17" fill-rule="evenodd" clip-rule="evenodd" d="M-35.0041 242.651L-43.0337 233.734L85.1942 123.579L87.951 126.64L-35.0041 242.651Z" fill="url(#paint17_linear)"/>
<path id="Rectangle_18" fill-rule="evenodd" clip-rule="evenodd" d="M-70.8462 171.045L-74.2326 137.903L92.7371 121.237L93.5937 125.267L-70.8462 171.045Z" fill="url(#paint18_linear)"/>
</g>
<g id="Group 2">
<rect id="Rectangle Copy 3" x="131.339" y="206.866" width="6.27273" height="11.5" rx="3" transform="rotate(-143 131.339 206.866)" fill="#C1C6FF"/>
<rect id="Rectangle_19" x="18.7982" y="48.9536" width="6.8" height="17" rx="3.4" transform="rotate(-27 18.7982 48.9536)" fill="#C1C6FF"/>
<circle id="Oval" cx="28.2658" cy="214.686" r="3" transform="rotate(90 28.2658 214.686)" fill="#C1C6FF"/>
<circle id="Oval Copy 4" cx="129.65" cy="26.45" r="3" transform="rotate(90 129.65 26.45)" fill="#D2D6FF"/>
<circle id="Oval_2" cx="161.75" cy="168.75" r="2" transform="rotate(90 161.75 168.75)" fill="#C1C6FF"/>
<circle id="Oval Copy 3" cx="162.892" cy="66.5407" r="2" transform="rotate(90 162.892 66.5407)" fill="#DFE2FF"/>
<circle id="Oval_3" cx="146.75" cy="225.686" r="2" transform="rotate(90 146.75 225.686)" fill="#C1C6FF"/>
<circle id="Oval Copy 2" cx="82.7499" cy="213.686" r="4" transform="rotate(90 82.7499 213.686)" fill="#C1C6FF"/>
<path id="Star" fill-rule="evenodd" clip-rule="evenodd" d="M48.387 27.8025L47.5963 24.0129L50.7861 26.2063L52.1697 22.5908L53.6674 26.1606L56.786 23.8671L56.1159 27.6798L59.9795 27.4365L57.3544 30.2817L60.7362 32.1658L56.9896 33.1401L58.816 36.5534L55.1374 35.3476L54.8284 39.2064L52.3857 36.2032L50.0396 39.2824L49.6083 35.4353L45.9699 36.7573L47.687 33.2877L43.9114 32.4327L47.2317 30.4423L44.5177 27.6818L48.387 27.8025Z" fill="#C8CCFF"/>
<path id="Star Copy 2" fill-rule="evenodd" clip-rule="evenodd" d="M157.725 38.3644L158.289 35.7688L160.006 37.7956L162.649 37.5303L161.252 39.7895L162.321 42.2212L159.741 41.5906L157.759 43.3587L157.561 40.7098L155.267 39.371L157.725 38.3644Z" fill="#D3D7FF"/>
<path id="Star_2" fill-rule="evenodd" clip-rule="evenodd" d="M17.4924 190.575L15.3701 188.022L18.6878 187.89L20.4605 185.083L21.6106 188.198L24.8286 189.016L22.2217 191.072L22.4378 194.386L19.6765 192.542L16.5922 193.771L17.4924 190.575Z" fill="#C1C6FF"/>
</g>
<g id="Logo X 1 Copy 18">
<path id="Path" fill-rule="evenodd" clip-rule="evenodd" d="M127.25 108.145L122.176 132.194L117.999 125.76L108.168 132.162L105.584 132.162L104.098 132.162L94.7346 117.77L107.45 109.511L103.223 103L127.25 108.145Z" fill="#6C75D5"/>
<path id="Shape" fill-rule="evenodd" clip-rule="evenodd" d="M56.1312 125.956C56.1312 126.909 56.3789 127.648 56.8742 128.174C57.377 128.707 58.0862 128.973 59.0017 128.973C59.9173 128.973 60.6227 128.707 61.118 128.174C61.6133 127.648 61.861 126.909 61.861 125.956V115.913H65.9922V126.395C65.9922 128.219 65.3544 129.682 64.0786 130.786C62.8028 131.889 61.1105 132.441 59.0017 132.441C56.8854 132.441 55.1894 131.889 53.9136 130.786C52.6378 129.682 51.9999 128.219 51.9999 126.395V115.913H56.1312V125.956ZM75.5719 115.913C77.3204 115.913 78.7275 116.435 79.7932 117.478C80.8739 118.536 81.4142 119.932 81.4142 121.666C81.4142 123.393 80.8476 124.781 79.7144 125.832C78.5962 126.875 77.1291 127.397 75.313 127.397H72.5775V132.159H68.4462V115.913H75.5719ZM74.4462 124.289H72.5775V119.077H74.4687C75.3467 119.077 76.0259 119.298 76.5062 119.741C76.994 120.191 77.2379 120.837 77.2379 121.678C77.2379 122.518 76.994 123.167 76.5062 123.625C76.0184 124.068 75.3317 124.289 74.4462 124.289ZM84.4069 125.536V122.102H91.8141V125.536H84.4069ZM97.7012 123.929V124.019L92.7369 132.159H97.1272L100.29 126.89H100.381L103.533 132.159H108.17L103.048 124.053V123.974L108.215 115.913H103.634L100.628 121.407H100.549L97.5663 115.913H92.7481L97.7012 123.929Z" fill="white"/>
</g>
</g>
</g>
<defs>
<linearGradient id="paint0_linear" x1="65.5118" y1="82.2038" x2="217.828" y2="295.328" gradientUnits="userSpaceOnUse">
<stop stop-color="#D5D8FF"/>
<stop offset="1" stop-color="#8089FF"/>
</linearGradient>
<linearGradient id="paint1_linear" x1="190.828" y1="149.521" x2="102.38" y2="120.782" gradientUnits="userSpaceOnUse">
<stop stop-color="#7E85D9"/>
<stop offset="0.880208" stop-color="#3E459B" stop-opacity="0.01"/>
</linearGradient>
<linearGradient id="paint2_linear" x1="181.476" y1="178.1" x2="103.479" y2="127.448" gradientUnits="userSpaceOnUse">
<stop stop-color="#878EDA"/>
<stop offset="0.838542" stop-color="#3E459B" stop-opacity="0.01"/>
</linearGradient>
<linearGradient id="paint3_linear" x1="191.882" y1="100.97" x2="100.915" y2="120.306" gradientUnits="userSpaceOnUse">
<stop stop-color="#575FC0"/>
<stop offset="0.8125" stop-color="#3E459B" stop-opacity="0.01"/>
</linearGradient>
<linearGradient id="paint4_linear" x1="211.678" y1="40.0444" x2="90.6634" y2="101.705" gradientUnits="userSpaceOnUse">
<stop stop-color="#777FDB"/>
<stop offset="0.859375" stop-color="#3E459B" stop-opacity="0.01"/>
</linearGradient>
<linearGradient id="paint5_linear" x1="130.164" y1="-10.0345" x2="89.0648" y2="116.456" gradientUnits="userSpaceOnUse">
<stop stop-color="#9198E7"/>
<stop offset="0.880208" stop-color="#3E459B" stop-opacity="0.01"/>
</linearGradient>
<linearGradient id="paint6_linear" x1="101.094" y1="-19.2385" x2="79.9167" y2="114.47" gradientUnits="userSpaceOnUse">
<stop stop-color="#B5BAFA"/>
<stop offset="0.875" stop-color="#3E459B" stop-opacity="0.01"/>
</linearGradient>
<linearGradient id="paint7_linear" x1="187.54" y1="-23.701" x2="100.397" y2="110.486" gradientUnits="userSpaceOnUse">
<stop stop-color="#A5ABF3"/>
<stop offset="0.869792" stop-color="#3E459B" stop-opacity="0.01"/>
</linearGradient>
<linearGradient id="paint8_linear" x1="27.9521" y1="-76.1035" x2="80.4924" y2="119.979" gradientUnits="userSpaceOnUse">
<stop stop-color="#CED2FF"/>
<stop offset="0.875" stop-color="#3E459B" stop-opacity="0.01"/>
</linearGradient>
<linearGradient id="paint9_linear" x1="-25.796" y1="-47.9023" x2="69.5068" y2="131.336" gradientUnits="userSpaceOnUse">
<stop stop-color="#A0A6F4"/>
<stop offset="0.817708" stop-color="#3E459B" stop-opacity="0.01"/>
</linearGradient>
<linearGradient id="paint10_linear" x1="-18.3086" y1="94.1859" x2="85.3566" y2="127.869" gradientUnits="userSpaceOnUse">
<stop stop-color="#6B73D1"/>
<stop offset="0.817708" stop-color="#3E459B" stop-opacity="0.01"/>
</linearGradient>
<linearGradient id="paint11_linear" x1="-77.3225" y1="-21.9886" x2="85.3175" y2="119.392" gradientUnits="userSpaceOnUse">
<stop stop-color="#575FC0"/>
<stop offset="1" stop-color="#3E459B" stop-opacity="0.01"/>
</linearGradient>
<linearGradient id="paint12_linear" x1="-74.2326" y1="24.0042" x2="80.0827" y2="124.218" gradientUnits="userSpaceOnUse">
<stop stop-color="#575FC0"/>
<stop offset="1" stop-color="#3E459B" stop-opacity="0.01"/>
</linearGradient>
<linearGradient id="paint13_linear" x1="197.93" y1="231.369" x2="107.649" y2="131.103" gradientUnits="userSpaceOnUse">
<stop stop-color="#B4B9F0"/>
<stop offset="0.75" stop-color="#3E459B" stop-opacity="0.01"/>
</linearGradient>
<linearGradient id="paint14_linear" x1="135.152" y1="264.631" x2="106.579" y2="130.203" gradientUnits="userSpaceOnUse">
<stop stop-color="#B0B6FA"/>
<stop offset="0.880208" stop-color="#3E459B" stop-opacity="0.01"/>
</linearGradient>
<linearGradient id="paint15_linear" x1="66.2908" y1="289.908" x2="115.734" y2="137.739" gradientUnits="userSpaceOnUse">
<stop stop-color="#ABB0E3"/>
<stop offset="0.822917" stop-color="#3E459B" stop-opacity="0.01"/>
</linearGradient>
<linearGradient id="paint16_linear" x1="17.106" y1="266.499" x2="103.513" y2="133.445" gradientUnits="userSpaceOnUse">
<stop stop-color="#8087DA"/>
<stop offset="0.828125" stop-color="#3E459B" stop-opacity="0.01"/>
</linearGradient>
<linearGradient id="paint17_linear" x1="-35.0041" y1="242.651" x2="90.5874" y2="129.568" gradientUnits="userSpaceOnUse">
<stop stop-color="#878DDB"/>
<stop offset="1" stop-color="#545BB1" stop-opacity="0.01"/>
</linearGradient>
<linearGradient id="paint18_linear" x1="-70.8462" y1="171.045" x2="95.7952" y2="135.624" gradientUnits="userSpaceOnUse">
<stop stop-color="#9298DB"/>
<stop offset="1" stop-color="#5A61BC" stop-opacity="0.01"/>
</linearGradient>
</defs>
</svg>
