<svg width="245" height="175" viewBox="0 0 245 175" fill="none" xmlns="http://www.w3.org/2000/svg">
<path d="M245 0H0V175H245V0Z" fill="#FFDB5B"/>
<mask id="mask0" mask-type="alpha" maskUnits="userSpaceOnUse" x="40" y="50" width="165" height="82">
<path d="M187.407 53.852C185.74 51.6451 183.133 50.3473 180.365 50.3473H64.569C61.8016 50.3473 59.194 51.6451 57.5276 53.852L43.3829 72.5752C41.6096 74.9221 40.6509 77.7822 40.6509 80.7217V127.126C40.6509 129.289 42.4066 131.044 44.572 131.044H200.363C202.528 131.044 204.284 129.289 204.284 127.126V80.7217C204.284 77.7822 203.324 74.9221 201.553 72.5752L187.407 53.852Z" fill="white"/>
</mask>
<g mask="url(#mask0)">
<path d="M187.407 53.852C185.74 51.6451 183.133 50.3473 180.365 50.3473H64.569C61.8016 50.3473 59.194 51.6451 57.5276 53.852L43.3829 72.5752C41.6096 74.9221 40.6509 77.7822 40.6509 80.7217V127.126C40.6509 129.289 42.4066 131.044 44.572 131.044H200.363C202.528 131.044 204.284 129.289 204.284 127.126V80.7217C204.284 77.7822 203.324 74.9221 201.553 72.5752L187.407 53.852Z" fill="#C04845"/>
<path d="M199.642 19.4933H45.2928C42.7292 19.4933 40.6509 21.5699 40.6509 24.1315V74.115C40.6509 76.6766 42.7292 78.7532 45.2928 78.7532H199.642C202.206 78.7532 204.284 76.6766 204.284 74.115V24.1315C204.284 21.5699 202.206 19.4933 199.642 19.4933Z" fill="#E16D6A"/>
</g>
<path d="M140.886 104.205C140.886 113.92 133.011 121.795 123.296 121.795C113.58 121.795 105.705 113.92 105.705 104.205C105.705 94.4894 113.58 86.6136 123.296 86.6136C133.011 86.6136 140.886 94.4894 140.886 104.205Z" stroke="#FFFBBE" stroke-width="3"/>
<ellipse cx="123.384" cy="104.432" rx="11.094" ry="11.0852" fill="#FFFBBE"/>
<path fill-rule="evenodd" clip-rule="evenodd" d="M123.384 97.7809C125.39 97.7809 127.016 99.2774 127.016 101.123C127.016 102.302 126.353 103.337 125.353 103.933L127.378 110.196H119.39L121.416 103.933C120.415 103.337 119.753 102.302 119.753 101.123C119.753 99.2774 121.379 97.7809 123.384 97.7809Z" fill="#C04845"/>
<path d="M187.564 85.4368H57.4321C55.223 85.4368 53.4321 87.2277 53.4321 89.4368V119.47C53.4321 121.68 55.223 123.47 57.4321 123.47H187.564C189.773 123.47 191.564 121.68 191.564 119.47V89.4368C191.564 87.2277 189.773 85.4368 187.564 85.4368Z" stroke="#FFFBBE" stroke-width="3"/>
<path fill-rule="evenodd" clip-rule="evenodd" d="M86.2178 55.7265C83.0825 55.7265 80.1287 57.1969 78.2387 59.6986L72.6148 67.143C71.6194 68.4606 72.5593 70.3485 74.2106 70.3485H170.785C172.437 70.3485 173.377 68.4606 172.381 67.143L166.757 59.6986C164.867 57.1969 161.914 55.7265 158.778 55.7265H86.2178Z" fill="#E16D6A" stroke="#FFFBBE" stroke-width="3"/>
<path d="M97.9123 59.1587V51.539C97.9123 47.0937 101.968 43.49 106.97 43.49H138.026C143.028 43.49 147.084 47.0937 147.084 51.539V59.1587C147.084 61.3009 148.822 63.0375 150.966 63.0375C153.11 63.0375 154.848 61.3009 154.848 59.1587V51.539C154.848 43.2834 147.316 36.5909 138.026 36.5909H106.97C97.6798 36.5909 90.1484 43.2834 90.1484 51.539V59.1587C90.1484 61.3009 91.8864 63.0375 94.0304 63.0375C96.1743 63.0375 97.9123 61.3009 97.9123 59.1587Z" fill="#674050"/>
</svg>
