<svg width="245" height="175" viewBox="0 0 245 175" fill="none" xmlns="http://www.w3.org/2000/svg">
<g clip-path="url(#clip0)">
<rect width="245" height="175" fill="#F94988"/>
<g opacity="0.4" clip-path="url(#clip1)">
<path d="M90.3529 -14.0547L9.89759 2.9304C1.44435 4.71492 -3.96135 13.0143 -2.17705 21.4671L14.8076 101.923C16.5922 110.376 24.8915 115.782 33.3443 113.997L113.8 97.0121C122.253 95.2275 127.659 86.9282 125.874 78.4754L108.89 -1.9801C107.106 -10.4331 98.8063 -15.8388 90.3529 -14.0547Z" fill="#FF82AF"/>
<path d="M98.4392 -13.6179C94.4241 -10.0061 92.3886 -4.41316 93.5849 1.25074L107.069 65.1253C109.003 74.2829 103.146 83.2739 93.9885 85.2072L30.1139 98.6916C24.4473 99.8871 20.157 104.01 18.476 109.142C22.0882 113.157 27.6807 115.194 33.345 113.997L113.8 97.0118C122.254 95.2273 127.659 86.9279 125.875 78.4751L108.89 -1.98038C107.695 -7.64475 103.571 -11.9369 98.4392 -13.6179Z" fill="#E73373"/>
<path d="M244.248 128.007L189.311 66.8231C183.539 60.3946 173.649 59.863 167.221 65.6348L106.037 120.572C99.6081 126.344 99.0762 136.234 104.848 142.662L159.785 203.846C165.558 210.275 175.448 210.806 181.876 205.034L243.06 150.097C249.488 144.327 250.02 134.436 244.248 128.007Z" fill="#FF699F"/>
<path d="M189.311 66.8233C185.443 62.516 179.726 60.8604 174.441 61.9706C172.771 67.1063 173.803 72.9675 177.671 77.2748L221.286 125.849C227.539 132.813 226.963 143.528 219.999 149.781L171.424 193.397C167.117 197.264 165.461 202.98 166.571 208.266C171.707 209.936 177.568 208.904 181.876 205.036L243.06 150.099C249.488 144.327 250.02 134.437 244.248 128.008L189.311 66.8233Z" fill="#E73373"/>
<path d="M181.634 112.662C187.411 109.729 189.716 102.667 186.783 96.8896C183.849 91.1123 176.787 88.807 171.01 91.7406C165.233 94.6742 162.927 101.736 165.861 107.513C168.795 113.291 175.856 115.596 181.634 112.662Z" fill="#FFBAD3"/>
<path d="M178.066 178.933C183.843 175.999 186.148 168.937 183.215 163.16C180.281 157.383 173.219 155.077 167.442 158.011C161.665 160.945 159.359 168.006 162.293 173.784C165.227 179.561 172.288 181.866 178.066 178.933Z" fill="#FFBAD3"/>
<path d="M179.86 145.797C185.637 142.864 187.943 135.802 185.009 130.025C182.075 124.247 175.014 121.942 169.236 124.876C163.459 127.809 161.154 134.871 164.087 140.648C167.021 146.426 174.083 148.731 179.86 145.797Z" fill="#FFBAD3"/>
<path d="M39.3536 42.3256C45.1309 39.3919 47.4362 32.3303 44.5026 26.5529C41.5689 20.7755 34.5073 18.4702 28.7299 21.4038C22.9525 24.3375 20.6472 31.3992 23.5809 37.1765C26.5145 42.9539 33.5762 45.2592 39.3536 42.3256Z" fill="#FFBAD3"/>
<path d="M85.2728 32.626C91.0501 29.6924 93.3555 22.6307 90.4218 16.8533C87.4882 11.0759 80.4265 8.77064 74.6491 11.7043C68.8717 14.6379 66.5664 21.6996 69.5001 27.477C72.4337 33.2543 79.4954 35.5596 85.2728 32.626Z" fill="#FFBAD3"/>
<path d="M49.0477 88.2383C54.825 85.3047 57.1303 78.243 54.1967 72.4657C51.2631 66.6883 44.2014 64.383 38.424 67.3166C32.6466 70.2503 30.3413 77.3119 33.275 83.0893C36.2086 88.8667 43.2703 91.172 49.0477 88.2383Z" fill="#FFBAD3"/>
<path d="M94.9641 78.5504C100.742 75.6168 103.047 68.5551 100.113 62.7777C97.1795 57.0004 90.1179 54.6951 84.3405 57.6287C78.5631 60.5623 76.2578 67.624 79.1915 73.4014C82.1251 79.1788 89.1868 81.4841 94.9641 78.5504Z" fill="#FFBAD3"/>
</g>
<rect x="23" y="111" width="32" height="32" rx="16" fill="#C6245E"/>
<path d="M64.1135 131H69.6448V129.541H65.8831V122.545H64.1135V131ZM74.7131 131.217C77.2092 131.217 78.7795 129.506 78.7795 126.775V126.764C78.7795 124.033 77.2034 122.328 74.7131 122.328C72.2229 122.328 70.6409 124.027 70.6409 126.764V126.775C70.6409 129.506 72.1995 131.217 74.7131 131.217ZM74.7131 129.717C73.3186 129.717 72.4456 128.562 72.4456 126.775V126.764C72.4456 124.971 73.3362 123.828 74.7131 123.828C76.0842 123.828 76.9749 124.971 76.9749 126.764V126.775C76.9749 128.562 76.0901 129.717 74.7131 129.717ZM81.8967 131H83.5667L85.1487 125.305H85.2424L86.842 131H88.5002L90.7444 122.545H88.9163L87.6096 128.586H87.5159L85.9456 122.545H84.4514L82.9104 128.586H82.8167L81.4983 122.545H79.6584L81.8967 131ZM92.2854 131H97.887V129.541H94.0549V127.402H97.6702V126.043H94.0549V124.004H97.887V122.545H92.2854V131ZM99.7502 131H101.52V127.906H102.967L104.543 131H106.547L104.766 127.643C105.733 127.262 106.295 126.33 106.295 125.246V125.234C106.295 123.57 105.194 122.545 103.272 122.545H99.7502V131ZM101.52 126.617V123.928H103.055C103.94 123.928 104.485 124.455 104.485 125.27V125.281C104.485 126.113 103.963 126.617 103.078 126.617H101.52Z" fill="white"/>
<g clip-path="url(#clip2)">
<path d="M38.0051 131.8C37.9343 131.729 37.8745 131.652 37.8225 131.571L32.3968 126.144C31.8674 125.615 31.8672 124.756 32.3968 124.227C32.9264 123.697 33.7847 123.697 34.3148 124.227L38.9872 128.9L43.685 124.202C44.2143 123.673 45.0732 123.673 45.603 124.202C45.8674 124.468 45.9998 124.815 45.9998 125.161C45.9998 125.508 45.8674 125.855 45.6025 126.12L40.1524 131.57C40.1001 131.651 40.0404 131.729 39.9696 131.799C39.6989 132.07 39.3425 132.2 38.9872 132.194C38.6324 132.201 38.2758 132.071 38.0051 131.8Z" fill="#FFEDF3"/>
</g>
<rect x="133" y="111" width="32" height="32" rx="16" fill="#FFE6EF"/>
<path d="M174.326 131H176.096V127.438H179.905V131H181.674V122.545H179.905V125.979H176.096V122.545H174.326V131ZM183.725 131H185.494V122.545H183.725V131ZM191.225 131.217C193.533 131.217 194.975 129.811 194.975 127.567V126.494H191.424V127.783H193.252L193.246 127.942C193.211 129.008 192.414 129.717 191.254 129.717C189.86 129.717 188.975 128.586 188.975 126.752V126.74C188.975 124.942 189.819 123.828 191.184 123.828C192.174 123.828 192.895 124.326 193.135 125.164L193.147 125.223H194.905L194.893 125.164C194.641 123.477 193.182 122.328 191.184 122.328C188.723 122.328 187.17 124.045 187.17 126.758V126.77C187.17 129.524 188.711 131.217 191.225 131.217ZM196.674 131H198.444V127.438H202.252V131H204.022V122.545H202.252V125.979H198.444V122.545H196.674V131ZM206.073 131H211.674V129.541H207.842V127.402H211.457V126.043H207.842V124.004H211.674V122.545H206.073V131ZM213.537 131H215.307V127.906H216.754L218.33 131H220.334L218.553 127.643C219.52 127.262 220.082 126.33 220.082 125.246V125.234C220.082 123.57 218.981 122.545 217.059 122.545H213.537V131ZM215.307 126.617V123.928H216.842C217.727 123.928 218.272 124.455 218.272 125.27V125.281C218.272 126.113 217.75 126.617 216.865 126.617H215.307Z" fill="white"/>
<g clip-path="url(#clip3)">
<path d="M149.994 122.201C150.065 122.271 150.125 122.348 150.177 122.43L155.603 127.856C156.132 128.385 156.132 129.244 155.603 129.774C155.073 130.303 154.215 130.303 153.685 129.774L149.012 125.1L144.315 129.798C143.785 130.327 142.926 130.327 142.397 129.798C142.132 129.532 142 129.185 142 128.839C142 128.492 142.132 128.145 142.397 127.88L147.847 122.43C147.899 122.349 147.959 122.272 148.03 122.201C148.301 121.93 148.657 121.8 149.012 121.806C149.367 121.799 149.724 121.93 149.994 122.201Z" fill="#FA4B82"/>
</g>
<rect x="57" y="37" width="28" height="43" rx="6" fill="#FFF7FA"/>
<rect x="91" y="37" width="28" height="43" rx="6" fill="#FFF7FA"/>
<rect x="23" y="37" width="28" height="43" rx="6" fill="#FFF7FA"/>
<rect x="159" y="37" width="28" height="43" rx="6" fill="#FFF7FA"/>
<rect x="193" y="37" width="28" height="43" rx="6" fill="#FFF7FA"/>
<rect x="125" y="37" width="28" height="43" rx="6" fill="#FFF7FA"/>
<path d="M43.6846 51.8161L37.9966 66.1201H35.3806L40.8046 52.7521H35.2366V55.3921H32.9086V50.4961H43.3486L43.6846 51.8161Z" fill="#F94988"/>
<path d="M77.6121 51.816L71.9241 66.12H69.3081L74.7321 52.752H69.1641V55.392H66.8361V50.496H77.2761L77.6121 51.816Z" fill="#F94988"/>
<path d="M111.685 51.8161L105.997 66.1201H103.381L108.805 52.7521H103.237V55.3921H100.909V50.4961H111.349L111.685 51.8161Z" fill="#F94988"/>
<path d="M145.612 51.816L139.924 66.12H137.308L142.732 52.752H137.164V55.392H134.836V50.496H145.276L145.612 51.816Z" fill="#F94988"/>
<path d="M179.685 51.8161L173.997 66.1201H171.381L176.805 52.7521H171.237V55.3921H168.909V50.4961H179.349L179.685 51.8161Z" fill="#F94988"/>
<path d="M212.612 51.816L206.924 66.12H204.308L209.732 52.752H204.164V55.392H201.836V50.496H212.276L212.612 51.816Z" fill="#F94988"/>
</g>
<defs>
<clipPath id="clip0">
<rect width="245" height="175" fill="white"/>
</clipPath>
<clipPath id="clip1">
<rect width="259.141" height="259.141" fill="white" transform="translate(-55.9951 35.7872) rotate(-26.9206)"/>
</clipPath>
<clipPath id="clip2">
<rect width="14" height="14" fill="white" transform="translate(45.9998 135) rotate(180)"/>
</clipPath>
<clipPath id="clip3">
<rect width="14" height="14" fill="white" transform="translate(142 119)"/>
</clipPath>
</defs>
</svg>
