<svg width="97" height="45" viewBox="0 0 97 45" fill="none" xmlns="http://www.w3.org/2000/svg">
<g clip-path="url(#clip0)">
<path fill-rule="evenodd" clip-rule="evenodd" d="M86.56 10.5009L81.5386 34.3127L77.4337 27.9478L67.7495 34.2962L65.2055 34.2992L63.742 34.3009L54.5405 20.0649L67.0666 11.8746L62.9123 5.43442L86.56 10.5009Z" fill="#575483"/>
<path d="M16.5539 28.1485C16.5539 29.0923 16.7976 29.8243 17.2851 30.3445C17.7799 30.8721 18.4779 31.1359 19.379 31.1359C20.28 31.1359 20.9743 30.8721 21.4618 30.3445C21.9492 29.8243 22.1929 29.0923 22.1929 28.1485V18.2055H26.2588V28.5833C26.2588 30.3891 25.631 31.8381 24.3754 32.9305C23.1199 34.0229 21.4544 34.5691 19.379 34.5691C17.2962 34.5691 15.627 34.0229 14.3714 32.9305C13.1158 31.8381 12.488 30.3891 12.488 28.5833V18.2055H16.5539V28.1485ZM35.6868 18.2055C37.4077 18.2055 38.7925 18.722 39.8413 19.7549C40.9048 20.8027 41.4366 22.1849 41.4366 23.9016C41.4366 25.6108 40.879 26.9855 39.7637 28.0259C38.6632 29.0589 37.2193 29.5753 35.4319 29.5753H32.7398V34.2905H28.674V18.2055H35.6868ZM32.7398 26.4988H34.5789C35.4504 26.4988 36.1262 26.2796 36.6063 25.8411C37.0864 25.3878 37.3264 24.745 37.3264 23.9127C37.3264 23.0804 37.0864 22.4413 36.6063 21.9954C36.1336 21.557 35.4652 21.3378 34.6011 21.3378H32.7398V26.4988ZM44.3819 27.7329V24.3331H51.6717V27.7329H44.3819ZM57.4658 26.2313V26.1421L52.5912 18.2055H57.3329L60.2687 23.6452H60.3463L63.3043 18.2055H67.8133L62.7282 26.1867V26.2647L67.769 34.2905H63.2046L60.1026 29.0737H60.0139L56.9008 34.2905H52.5801L57.4658 26.2313Z" fill="#9F9CC7"/>
</g>
<defs>
<clipPath id="clip0">
<rect width="97" height="45" fill="white"/>
</clipPath>
</defs>
</svg>
