<svg width="245" height="175" viewBox="0 0 245 175" fill="none" xmlns="http://www.w3.org/2000/svg">
<g clip-path="url(#clip0)">
<rect width="245" height="175" fill="#418BFF"/>
<path d="M145.488 72.9776C127.448 71.9425 111.659 81.8919 104.086 96.7393C102.414 100.017 99.6264 102.593 96.1329 103.749C96.0894 103.763 96.0463 103.778 96.0028 103.792C93.0323 104.771 90.0643 102.239 90.5301 99.1461C91.553 92.3509 93.16 85.7471 95.2908 79.3827C96.4478 75.9262 98.9777 73.152 102.228 71.5024C117.117 63.9447 127.101 48.1329 126.065 30.0625C124.798 7.97324 106.422 -10.0723 84.3136 -10.9635C59.3956 -11.9686 38.8783 7.93503 38.8783 32.6299C38.8783 49.6419 48.633 64.3406 62.8416 71.5288C66.0628 73.1589 68.5631 75.9131 69.7108 79.336C71.8489 85.7154 73.462 92.3346 74.4874 99.1461C74.9527 102.239 71.9851 104.771 69.0146 103.792C68.9699 103.778 68.9248 103.763 68.8805 103.748C65.3898 102.592 62.6047 100.019 60.9343 96.7438C53.3625 81.8939 37.5717 71.9429 19.5307 72.978C-2.55945 74.2452 -20.605 92.6216 -21.4958 114.73C-22.5001 139.648 -2.59684 160.165 22.098 160.165C39.0539 160.165 53.7124 150.474 60.9258 136.341C62.6043 133.053 65.4024 130.471 68.9069 129.312C68.9476 129.298 68.9886 129.285 69.0292 129.271C72.0013 128.292 74.9612 130.826 74.5016 133.922C71.4214 154.649 62.9249 173.604 50.4993 189.315C48.0137 192.458 50.3156 197.083 54.3228 197.083H110.695C114.703 197.083 117.005 192.458 114.519 189.315C102.093 173.604 93.5969 154.649 90.5167 133.922C90.0566 130.826 93.0169 128.292 95.989 129.271C96.0296 129.285 96.0707 129.298 96.1113 129.312C99.6162 130.47 102.415 133.053 104.092 136.341C111.306 150.474 125.964 160.165 142.92 160.165C167.615 160.165 187.519 139.648 186.514 114.73C185.623 92.6224 167.577 74.2452 145.488 72.9776Z" fill="url(#paint0_linear)"/>
<path d="M176.484 24.9688H119.859C114.647 24.9688 110.422 29.1661 110.422 34.3438V128.094C110.422 133.271 114.647 137.469 119.859 137.469H176.484C181.697 137.469 185.922 133.271 185.922 128.094V34.3438C185.922 29.1661 181.697 24.9688 176.484 24.9688Z" fill="white"/>
<path d="M148.172 62.4688L147.834 63.3069C144.969 70.4234 140.188 76.62 134.016 81.2188C140.188 85.8175 144.969 92.0141 147.834 99.1306L148.172 99.9688L148.509 99.1306C151.375 92.0141 156.155 85.8175 162.328 81.2188C156.155 76.62 151.375 70.4234 148.509 63.3069L148.172 62.4688Z" fill="#FE6766"/>
<path d="M126.938 34.3438L126.769 34.763C125.336 38.3212 122.946 41.4194 119.859 43.7188C122.946 46.0181 125.336 49.1163 126.769 52.6745L126.938 53.0938L127.106 52.6745C128.539 49.1163 130.929 46.0181 134.016 43.7188C130.929 41.4193 128.539 38.321 127.106 34.7627L126.938 34.3438Z" fill="#FE6766"/>
<path d="M169.406 109.344L169.238 109.763C167.805 113.321 165.414 116.419 162.328 118.719C165.414 121.018 167.805 124.116 169.238 127.675L169.406 128.094L169.575 127.675C171.008 124.116 173.398 121.018 176.484 118.719C173.398 116.419 171.008 113.321 169.575 109.763L169.406 109.344Z" fill="#FE6766"/>
<path fill-rule="evenodd" clip-rule="evenodd" d="M185.602 31.9153H151.593C145.517 31.9153 140.593 36.8401 140.593 42.9153V137.469H176.484C181.697 137.469 185.922 133.271 185.922 128.094V34.3438C185.922 33.5039 185.811 32.6898 185.602 31.9153Z" fill="black" fill-opacity="0.06"/>
<path d="M213.859 34.1057H152.516C147.303 34.1057 143.078 38.3031 143.078 43.4807V141.918C143.078 147.096 147.303 151.293 152.516 151.293H213.859C219.072 151.293 223.297 147.096 223.297 141.918V43.4807C223.297 38.3031 219.072 34.1057 213.859 34.1057Z" fill="#7DB0FF"/>
<path fill-rule="evenodd" clip-rule="evenodd" d="M212.219 144.688C214.428 144.688 216.219 142.897 216.219 140.688V45.5625C216.219 43.3534 214.428 41.5625 212.219 41.5625H154.156C151.947 41.5625 150.156 43.3534 150.156 45.5625V140.688C150.156 142.897 151.947 144.688 154.156 144.688H212.219ZM205.399 121.25L211.5 127.312V115.189L205.399 121.25ZM192.625 133.939L186.524 140H198.726L192.625 133.939ZM173.75 133.939L167.649 140H179.851L173.75 133.939ZM160.976 65L154.875 58.9394V71.0607L160.976 65ZM173.75 52.3107L179.851 46.25H167.649L173.75 52.3107ZM192.625 52.3107L198.726 46.25H186.524L192.625 52.3107ZM173.75 71.0607L179.851 65L173.75 58.9394L167.649 65L173.75 71.0607ZM183.188 49.5644L177.086 55.625L183.188 61.6857L189.289 55.625L183.188 49.5644ZM189.289 74.375L183.188 68.3144L177.086 74.375L183.188 80.4356L189.289 74.375ZM164.312 80.4356L170.414 74.375L164.312 68.3144L158.211 74.375L164.312 80.4356ZM179.851 83.75L173.75 77.6894L167.649 83.75L173.75 89.8106L179.851 83.75ZM189.289 93.125L183.188 87.0644L177.086 93.125L183.188 99.1856L189.289 93.125ZM164.312 99.1856L170.414 93.125L164.312 87.0644L158.211 93.125L164.312 99.1856ZM179.851 102.5L173.75 96.4394L167.649 102.5L173.75 108.561L179.851 102.5ZM164.312 117.936L170.414 111.875L164.312 105.814L158.211 111.875L164.312 117.936ZM179.851 121.25L173.75 115.189L167.649 121.25L173.75 127.311L179.851 121.25ZM183.188 105.814L177.086 111.875L183.188 117.936L189.289 111.875L183.188 105.814ZM192.625 96.4394L186.524 102.5L192.625 108.561L198.726 102.5L192.625 96.4394ZM202.062 87.0644L195.961 93.125L202.062 99.1856L208.164 93.125L202.062 87.0644ZM186.524 83.75L192.625 89.8106L198.726 83.75L192.625 77.6894L186.524 83.75ZM202.062 68.3144L195.961 74.375L202.062 80.4356L208.164 74.375L202.062 68.3144ZM186.524 65L192.625 71.0607L198.726 65L192.625 58.9394L186.524 65ZM202.062 49.5644L195.961 55.625L202.062 61.6857L208.164 55.625L202.062 49.5644ZM164.312 61.6857L170.414 55.625L164.312 49.5644L158.211 55.625L164.312 61.6857ZM160.976 83.75L154.875 77.6894V89.8106L160.976 83.75ZM160.976 102.5L154.875 96.4394V108.561L160.976 102.5ZM160.976 121.25L154.875 115.189V127.311L160.976 121.25ZM170.414 130.625L164.312 124.564L158.211 130.625L164.312 136.686L170.414 130.625ZM177.086 130.625L183.188 136.686L189.289 130.625L183.188 124.564L177.086 130.625ZM192.625 115.189L186.524 121.25L192.625 127.311L198.726 121.25L192.625 115.189ZM202.062 105.814L195.961 111.875L202.062 117.936L208.164 111.875L202.062 105.814ZM205.399 102.5L211.5 108.561V96.4394L205.399 102.5ZM205.399 83.75L211.5 89.8106V77.6894L205.399 83.75ZM205.399 65L211.5 71.0607V58.9394L205.399 65ZM205.399 46.25L211.5 52.3107V46.25H205.399ZM154.875 52.3107L160.976 46.25H154.875V52.3107ZM160.976 140L154.875 133.939V140H160.976ZM195.961 130.625L205.399 140H211.5V133.939L202.062 124.564L195.961 130.625Z" fill="#4A8AED"/>
<rect x="17.4089" y="48.592" width="32" height="32" rx="12" fill="#96BFFF"/>
<path d="M57.8965 68.5921H59.8135V64.7327H63.9395V68.5921H65.8564V59.4324H63.9395V63.1522H59.8135V59.4324H57.8965V68.5921ZM68.0781 68.5921H69.9951V59.4324H68.0781V68.5921ZM76.2031 68.827C78.7041 68.827 80.2656 67.3035 80.2656 64.8724V63.7108H76.4189V65.1073H78.3994L78.3931 65.2786C78.355 66.4339 77.4917 67.202 76.2349 67.202C74.7241 67.202 73.7656 65.9769 73.7656 63.9901V63.9774C73.7656 62.0286 74.6797 60.8226 76.1587 60.8226C77.2314 60.8226 78.0122 61.3621 78.2725 62.2699L78.2852 62.3333H80.1895L80.1768 62.2699C79.9038 60.4417 78.3232 59.1976 76.1587 59.1976C73.4927 59.1976 71.8105 61.0574 71.8105 63.9964V64.0091C71.8105 66.9925 73.48 68.827 76.2031 68.827ZM82.1064 68.5921H84.0234V64.7327H88.1494V68.5921H90.0664V59.4324H88.1494V63.1522H84.0234V59.4324H82.1064V68.5921Z" fill="white"/>
<g clip-path="url(#clip1)">
<path d="M34.4033 59.7925C34.4742 59.8631 34.5339 59.9404 34.5859 60.0216L40.0117 65.4478C40.541 65.9774 40.5413 66.8357 40.0117 67.3656C39.4821 67.8954 38.6238 67.8952 38.0937 67.3656L33.4212 62.6924L28.7234 67.3897C28.1941 67.9188 27.3353 67.9193 26.8054 67.3897C26.541 67.1243 26.4087 66.7775 26.4087 66.4307C26.4087 66.0839 26.541 65.7369 26.806 65.4724L32.2561 60.0221C32.3083 59.9409 32.3681 59.8636 32.4389 59.7928C32.7096 59.5221 33.0659 59.3918 33.4212 59.398C33.7761 59.3913 34.1326 59.5216 34.4033 59.7925Z" fill="white"/>
</g>
<rect x="17.4089" y="94.592" width="32" height="32" rx="12" fill="#246CDA"/>
<path d="M57.8325 115.592H63.8247V114.011H59.7495V106.432H57.8325V115.592ZM69.3154 115.827C72.0195 115.827 73.7207 113.973 73.7207 111.015V111.003C73.7207 108.045 72.0132 106.197 69.3154 106.197C66.6177 106.197 64.9038 108.038 64.9038 111.003V111.015C64.9038 113.973 66.5923 115.827 69.3154 115.827ZM69.3154 114.202C67.8047 114.202 66.8589 112.951 66.8589 111.015V111.003C66.8589 109.06 67.8237 107.822 69.3154 107.822C70.8008 107.822 71.7656 109.06 71.7656 111.003V111.015C71.7656 112.951 70.8071 114.202 69.3154 114.202ZM77.0977 115.592H78.9067L80.6206 109.422H80.7222L82.4551 115.592H84.2515L86.6826 106.432H84.7021L83.2866 112.977H83.1851L81.4839 106.432H79.8652L78.1958 112.977H78.0942L76.666 106.432H74.6729L77.0977 115.592Z" fill="white"/>
<g clip-path="url(#clip2)">
<path d="M32.414 115.392C32.3432 115.321 32.2835 115.244 32.2315 115.163L26.8057 109.736C26.2764 109.207 26.2761 108.348 26.8057 107.819C27.3353 107.289 28.1936 107.289 28.7237 107.819L33.3961 112.492L38.0939 107.794C38.6233 107.265 39.4821 107.265 40.0119 107.794C40.2764 108.06 40.4087 108.407 40.4087 108.753C40.4087 109.1 40.2764 109.447 40.0114 109.712L34.5613 115.162C34.5091 115.243 34.4493 115.321 34.3785 115.391C34.1078 115.662 33.7515 115.792 33.3961 115.786C33.0413 115.793 32.6847 115.663 32.414 115.392Z" fill="white" fill-opacity="0.85"/>
</g>
</g>
<defs>
<linearGradient id="paint0_linear" x1="127.618" y1="44.2482" x2="23.661" y2="165.26" gradientUnits="userSpaceOnUse">
<stop offset="0.00400506" stop-color="#599AFF"/>
<stop offset="0.875" stop-color="#5598FF" stop-opacity="0"/>
</linearGradient>
<clipPath id="clip0">
<rect width="245" height="175" fill="white"/>
</clipPath>
<clipPath id="clip1">
<rect width="14" height="14" fill="white" transform="translate(26.4087 56.5921)"/>
</clipPath>
<clipPath id="clip2">
<rect width="14" height="14" fill="white" transform="translate(40.4087 118.592) rotate(180)"/>
</clipPath>
</defs>
</svg>
