<svg width="245" height="175" viewBox="0 0 245 175" fill="none" xmlns="http://www.w3.org/2000/svg">
<g clip-path="url(#clip0)">
<rect width="245" height="175" fill="#ED6F53"/>
<path opacity="0.0676386" d="M129 101.086C164.872 80.3752 177.386 34.8937 156.952 -0.499998C136.517 -35.8937 90.8719 -47.7966 55 -27.0859C19.1281 -6.3752 6.61356 39.1063 27.0481 74.5C47.4826 109.894 93.1281 121.797 129 101.086Z" fill="url(#paint0_linear)"/>
<path fill-rule="evenodd" clip-rule="evenodd" d="M39.5 37.25L36.5643 41.535L36.708 36.3428L31.8143 38.084L34.9825 33.9678L30 32.5L34.9825 31.0322L31.8143 26.916L36.708 28.6572L36.5643 23.465L39.5 27.75L42.4357 23.465L42.292 28.6572L47.1857 26.916L44.0175 31.0322L49 32.5L44.0175 33.9678L47.1857 38.084L42.292 36.3428L42.4357 41.535L39.5 37.25Z" fill="#FFB4A4"/>
<path fill-rule="evenodd" clip-rule="evenodd" d="M214.5 80.75L210.019 87.2904L210.239 79.3654L202.769 82.0229L207.605 75.7404L200 73.5L207.605 71.2597L202.769 64.9771L210.239 67.6347L210.019 59.7097L214.5 66.25L218.981 59.7097L218.761 67.6347L226.231 64.9771L221.395 71.2597L229 73.5L221.395 75.7404L226.231 82.0229L218.761 79.3654L218.981 87.2904L214.5 80.75Z" fill="#FFB4A4"/>
<path fill-rule="evenodd" clip-rule="evenodd" d="M26.5 146.25L23.5643 150.535L23.708 145.343L18.8143 147.084L21.9825 142.968L17 141.5L21.9825 140.032L18.8143 135.916L23.708 137.657L23.5643 132.465L26.5 136.75L29.4357 132.465L29.292 137.657L34.1857 135.916L31.0175 140.032L36 141.5L31.0175 142.968L34.1857 147.084L29.292 145.343L29.4357 150.535L26.5 146.25Z" fill="#FFB4A4"/>
<path d="M185 28H60V178H185V28Z" fill="white"/>
<path d="M185 68H60V28H185V68Z" fill="#59B462"/>
<path d="M185 68H60V64H185V68Z" fill="#41AA4C"/>
<mask id="mask0" mask-type="alpha" maskUnits="userSpaceOnUse" x="60" y="68" width="125" height="107">
<path d="M185 68H60V175H185V68Z" fill="white"/>
</mask>
<g mask="url(#mask0)">
<path opacity="0.0676" d="M121.557 164.52C143.956 164.52 162.114 146.271 162.114 123.76C162.114 101.249 143.956 83 121.557 83C99.158 83 81 101.249 81 123.76C81 146.271 99.158 164.52 121.557 164.52Z" fill="url(#paint1_linear)"/>
</g>
<path fill-rule="evenodd" clip-rule="evenodd" d="M177.151 34.214C177.266 34.5039 177.496 34.735 177.786 34.8506L179.283 35.4451C180.239 35.823 180.239 37.177 179.283 37.5549L177.786 38.1494C177.496 38.265 177.266 38.4961 177.151 38.786L176.556 40.2831C176.176 41.239 174.824 41.239 174.444 40.2831L173.849 38.786C173.734 38.4961 173.504 38.265 173.213 38.1494L171.717 37.5549C170.761 37.177 170.761 35.823 171.717 35.4451L173.213 34.8506C173.504 34.735 173.734 34.5039 173.849 34.214L174.444 32.7169C174.824 31.761 176.176 31.761 176.556 32.7169L177.151 34.214Z" fill="#69C472"/>
<path d="M92 83.5C92 79.3579 88.6421 76 84.5 76C80.3579 76 77 79.3579 77 83.5C77 87.6421 80.3579 91 84.5 91C88.6421 91 92 87.6421 92 83.5Z" fill="#2C2E47"/>
<path d="M92 103.5C92 99.3579 88.6421 96 84.5 96C80.3579 96 77 99.3579 77 103.5C77 107.642 80.3579 111 84.5 111C88.6421 111 92 107.642 92 103.5Z" fill="#2C2E47"/>
<path d="M111 103.5C111 99.3579 107.642 96 103.5 96C99.3579 96 96 99.3579 96 103.5C96 107.642 99.3579 111 103.5 111C107.642 111 111 107.642 111 103.5Z" fill="#2C2E47"/>
<path d="M130 83.5C130 79.3579 126.642 76 122.5 76C118.358 76 115 79.3579 115 83.5C115 87.6421 118.358 91 122.5 91C126.642 91 130 87.6421 130 83.5Z" fill="#2C2E47"/>
<path d="M92 123.5C92 119.358 88.6421 116 84.5 116C80.3579 116 77 119.358 77 123.5C77 127.642 80.3579 131 84.5 131C88.6421 131 92 127.642 92 123.5Z" fill="#2C2E47"/>
<path d="M111 123.5C111 119.358 107.642 116 103.5 116C99.3579 116 96 119.358 96 123.5C96 127.642 99.3579 131 103.5 131C107.642 131 111 127.642 111 123.5Z" fill="#2C2E47"/>
<path d="M130 123.5C130 119.358 126.642 116 122.5 116C118.358 116 115 119.358 115 123.5C115 127.642 118.358 131 122.5 131C126.642 131 130 127.642 130 123.5Z" fill="#2C2E47"/>
<path d="M92 143.5C92 139.358 88.6421 136 84.5 136C80.3579 136 77 139.358 77 143.5C77 147.642 80.3579 151 84.5 151C88.6421 151 92 147.642 92 143.5Z" fill="#2C2E47"/>
<path d="M92 163.5C92 159.358 88.6421 156 84.5 156C80.3579 156 77 159.358 77 163.5C77 167.642 80.3579 171 84.5 171C88.6421 171 92 167.642 92 163.5Z" fill="#2C2E47"/>
<path d="M111 143.5C111 139.358 107.642 136 103.5 136C99.3579 136 96 139.358 96 143.5C96 147.642 99.3579 151 103.5 151C107.642 151 111 147.642 111 143.5Z" fill="#2C2E47"/>
<path d="M130 143.5C130 139.358 126.642 136 122.5 136C118.358 136 115 139.358 115 143.5C115 147.642 118.358 151 122.5 151C126.642 151 130 147.642 130 143.5Z" fill="#2C2E47"/>
<path d="M111 163.5C111 159.358 107.642 156 103.5 156C99.3579 156 96 159.358 96 163.5C96 167.642 99.3579 171 103.5 171C107.642 171 111 167.642 111 163.5Z" fill="#2C2E47"/>
<path d="M130 163.5C130 159.358 126.642 156 122.5 156C118.358 156 115 159.358 115 163.5C115 167.642 118.358 171 122.5 171C126.642 171 130 167.642 130 163.5Z" fill="#2C2E47"/>
<path d="M149 103.5C149 99.3579 145.642 96 141.5 96C137.358 96 134 99.3579 134 103.5C134 107.642 137.358 111 141.5 111C145.642 111 149 107.642 149 103.5Z" fill="#2C2E47"/>
<path d="M149 83.5C149 79.3579 145.642 76 141.5 76C137.358 76 134 79.3579 134 83.5C134 87.6421 137.358 91 141.5 91C145.642 91 149 87.6421 149 83.5Z" fill="#2C2E47"/>
<path d="M150 143.5C150 138.806 146.194 135 141.5 135C136.806 135 133 138.806 133 143.5C133 148.194 136.806 152 141.5 152C146.194 152 150 148.194 150 143.5Z" fill="#2C2E47" stroke="white" stroke-width="2"/>
<path d="M149 163.5C149 159.358 145.642 156 141.5 156C137.358 156 134 159.358 134 163.5C134 167.642 137.358 171 141.5 171C145.642 171 149 167.642 149 163.5Z" fill="#2C2E47"/>
<path d="M168 103.5C168 99.3579 164.642 96 160.5 96C156.358 96 153 99.3579 153 103.5C153 107.642 156.358 111 160.5 111C164.642 111 168 107.642 168 103.5Z" fill="#2C2E47"/>
<path d="M168 83.5C168 79.3579 164.642 76 160.5 76C156.358 76 153 79.3579 153 83.5C153 87.6421 156.358 91 160.5 91C164.642 91 168 87.6421 168 83.5Z" fill="#2C2E47"/>
<path d="M168 123.5C168 119.358 164.642 116 160.5 116C156.358 116 153 119.358 153 123.5C153 127.642 156.358 131 160.5 131C164.642 131 168 127.642 168 123.5Z" fill="#2C2E47"/>
<path d="M168 143.5C168 139.358 164.642 136 160.5 136C156.358 136 153 139.358 153 143.5C153 147.642 156.358 151 160.5 151C164.642 151 168 147.642 168 143.5Z" fill="#2C2E47"/>
<path d="M168 163.5C168 159.358 164.642 156 160.5 156C156.358 156 153 159.358 153 163.5C153 167.642 156.358 171 160.5 171C164.642 171 168 167.642 168 163.5Z" fill="#2C2E47"/>
<path d="M102.22 52H104.58V48.5547L105.697 47.2109L108.97 52H111.799L107.4 45.6641L111.51 40.7266H108.885L104.72 45.7891H104.58V40.7266H102.22V52ZM113.58 52H121.049V50.0547H115.939V47.2031H120.76V45.3906H115.939V42.6719H121.049V40.7266H113.58V52ZM123.533 52H125.791V44.7891H125.916L131.135 52H133.088V40.7266H130.83V47.9062H130.705L125.502 40.7266H123.533V52ZM140.76 52.2891C144.088 52.2891 146.181 50.0078 146.181 46.3672V46.3516C146.181 42.7109 144.08 40.4375 140.76 40.4375C137.439 40.4375 135.33 42.7031 135.33 46.3516V46.3672C135.33 50.0078 137.408 52.2891 140.76 52.2891ZM140.76 50.2891C138.9 50.2891 137.736 48.75 137.736 46.3672V46.3516C137.736 43.9609 138.924 42.4375 140.76 42.4375C142.588 42.4375 143.775 43.9609 143.775 46.3516V46.3672C143.775 48.75 142.595 50.2891 140.76 50.2891Z" fill="white"/>
<path d="M111 83.5C111 79.3579 107.642 76 103.5 76C99.3579 76 96 79.3579 96 83.5C96 87.6421 99.3579 91 103.5 91C107.642 91 111 87.6421 111 83.5Z" fill="#FFDB5B"/>
<path d="M130 103.5C130 99.3579 126.642 96 122.5 96C118.358 96 115 99.3579 115 103.5C115 107.642 118.358 111 122.5 111C126.642 111 130 107.642 130 103.5Z" fill="#FFDB5B"/>
<path d="M149 123.5C149 119.358 145.642 116 141.5 116C137.358 116 134 119.358 134 123.5C134 127.642 137.358 131 141.5 131C145.642 131 149 127.642 149 123.5Z" fill="#FFDB5B"/>
<path d="M84.5239 86H85.2896V81.0679H84.5273L83.2285 81.9839V82.7666L84.4658 81.8916H84.5239V86Z" fill="white"/>
<path d="M84.5649 106.12C85.6108 106.12 86.3525 105.402 86.3525 104.397C86.3525 103.447 85.6689 102.756 84.7324 102.756C84.1479 102.756 83.6729 103.026 83.437 103.498H83.3789C83.3926 102.278 83.8438 101.625 84.6128 101.625C85.0776 101.625 85.416 101.857 85.5117 102.264H86.2808C86.1577 101.471 85.522 100.948 84.5957 100.948C83.396 100.948 82.644 101.926 82.644 103.597C82.644 105.279 83.4541 106.12 84.5649 106.12ZM84.5581 105.446C83.9702 105.446 83.5225 104.992 83.5225 104.4C83.5225 103.816 83.9565 103.392 84.5649 103.392C85.1733 103.392 85.5938 103.816 85.5938 104.417C85.5938 104.999 85.146 105.446 84.5581 105.446Z" fill="white"/>
<path d="M82.832 126H83.5977V121.068H82.8354L81.5366 121.984V122.767L82.7739 121.892H82.832V126ZM86.2158 126H86.9814V121.068H86.2192L84.9204 121.984V122.767L86.1577 121.892H86.2158V126Z" fill="white"/>
<path d="M82.2339 146H82.9995V141.068H82.2373L80.9385 141.984V142.767L82.1758 141.892H82.2339V146ZM86.2568 146.12C87.3027 146.12 88.0444 145.402 88.0444 144.397C88.0444 143.447 87.3608 142.756 86.4243 142.756C85.8398 142.756 85.3647 143.026 85.1289 143.498H85.0708C85.0845 142.278 85.5356 141.625 86.3047 141.625C86.7695 141.625 87.1079 141.857 87.2036 142.264H87.9727C87.8496 141.471 87.2139 140.948 86.2876 140.948C85.0879 140.948 84.3359 141.926 84.3359 143.597C84.3359 145.279 85.146 146.12 86.2568 146.12ZM86.25 145.446C85.6621 145.446 85.2144 144.992 85.2144 144.4C85.2144 143.816 85.6484 143.392 86.2568 143.392C86.8652 143.392 87.2856 143.816 87.2856 144.417C87.2856 144.999 86.8379 145.446 86.25 145.446Z" fill="white"/>
<path d="M81.1367 162.51H81.8613C81.8613 161.974 82.2271 161.611 82.7842 161.611C83.3311 161.611 83.6558 161.967 83.6558 162.435C83.6558 162.825 83.4917 163.064 82.8662 163.707L81.1777 165.446V166H84.5V165.313H82.2236V165.255L83.3105 164.185C84.1753 163.331 84.4248 162.927 84.4248 162.356C84.4248 161.54 83.7583 160.948 82.832 160.948C81.8374 160.948 81.1367 161.591 81.1367 162.51ZM86.6875 166H87.4531V161.068H86.6909L85.3921 161.984V162.767L86.6294 161.892H86.6875V166Z" fill="white"/>
<path d="M101.87 86H105.192V85.3472H102.912V85.2788L103.958 84.2363C104.854 83.3477 105.113 82.917 105.113 82.3564V82.3462C105.113 81.5327 104.437 80.9482 103.517 80.9482C102.526 80.9482 101.829 81.584 101.825 82.4863L101.832 82.4932H102.55L102.553 82.4829C102.553 81.9429 102.922 81.5806 103.476 81.5806C104.016 81.5806 104.348 81.936 104.348 82.418V82.4282C104.348 82.8281 104.16 83.0811 103.507 83.7612L101.87 85.4805V86Z" fill="#2C2E47"/>
<path d="M102.201 106H103.004L105.151 101.762V101.068H101.791V101.748H104.375V101.799L102.201 106Z" fill="white"/>
<path d="M101.36 126H102.126V121.068H101.364L100.065 121.984V122.767L101.302 121.892H101.36V126ZM103.521 122.51H104.245C104.245 121.974 104.611 121.611 105.168 121.611C105.715 121.611 106.04 121.967 106.04 122.435C106.04 122.825 105.875 123.064 105.25 123.707L103.562 125.446V126H106.884V125.313H104.607V125.255L105.694 124.185C106.559 123.331 106.809 122.927 106.809 122.356C106.809 121.54 106.142 120.948 105.216 120.948C104.221 120.948 103.521 121.591 103.521 122.51Z" fill="white"/>
<path d="M101.483 146H102.249V141.068H101.487L100.188 141.984V142.767L101.425 141.892H101.483V146ZM103.893 146H104.696L106.843 141.762V141.068H103.483V141.748H106.067V141.799L103.893 146Z" fill="white"/>
<path d="M99.665 162.51H100.39C100.39 161.974 100.755 161.611 101.312 161.611C101.859 161.611 102.184 161.967 102.184 162.435C102.184 162.825 102.02 163.064 101.395 163.707L99.7061 165.446V166H103.028V165.313H100.752V165.255L101.839 164.185C102.704 163.331 102.953 162.927 102.953 162.356C102.953 161.54 102.287 160.948 101.36 160.948C100.366 160.948 99.665 161.591 99.665 162.51ZM103.992 162.51H104.717C104.717 161.974 105.083 161.611 105.64 161.611C106.187 161.611 106.511 161.967 106.511 162.435C106.511 162.825 106.347 163.064 105.722 163.707L104.033 165.446V166H107.355V165.313H105.079V165.255L106.166 164.185C107.031 163.331 107.28 162.927 107.28 162.356C107.28 161.54 106.614 160.948 105.688 160.948C104.693 160.948 103.992 161.591 103.992 162.51Z" fill="white"/>
<path d="M121.875 83.7817H122.49C123.132 83.7817 123.529 84.0996 123.529 84.6123C123.529 85.1079 123.105 85.4429 122.5 85.4429C121.902 85.4429 121.488 85.1387 121.444 84.667H120.709C120.75 85.5454 121.468 86.1196 122.51 86.1196C123.539 86.1196 124.315 85.5044 124.315 84.6636C124.315 83.9868 123.891 83.5493 123.235 83.4502V83.3921C123.751 83.252 124.124 82.8589 124.127 82.2607C124.13 81.5566 123.553 80.9482 122.534 80.9482C121.495 80.9482 120.853 81.5464 120.801 82.3975H121.526C121.57 81.8916 121.929 81.6079 122.49 81.6079C123.043 81.6079 123.372 81.9429 123.372 82.3667C123.372 82.8281 123.002 83.1528 122.469 83.1528H121.875V83.7817Z" fill="white"/>
<path d="M122.497 106.092C123.594 106.092 124.366 105.504 124.366 104.667V104.66C124.366 104.038 123.918 103.542 123.272 103.402V103.385C123.826 103.228 124.185 102.814 124.185 102.292V102.285C124.185 101.529 123.481 100.976 122.497 100.976C121.516 100.976 120.808 101.529 120.808 102.285V102.292C120.808 102.814 121.17 103.228 121.724 103.385V103.402C121.078 103.542 120.63 104.038 120.63 104.66V104.667C120.63 105.504 121.403 106.092 122.497 106.092ZM122.497 103.129C121.946 103.129 121.567 102.808 121.567 102.356V102.35C121.567 101.898 121.946 101.584 122.497 101.584C123.047 101.584 123.426 101.898 123.426 102.35V102.356C123.426 102.808 123.05 103.129 122.497 103.129ZM122.497 105.477C121.868 105.477 121.42 105.118 121.42 104.619V104.612C121.42 104.106 121.864 103.741 122.497 103.741C123.132 103.741 123.577 104.106 123.577 104.612V104.619C123.577 105.118 123.129 105.477 122.497 105.477Z" fill="#2C2E47"/>
<path d="M120.275 126H121.041V121.068H120.278L118.979 121.984V122.767L120.217 121.892H120.275V126ZM123.566 123.782H124.182C124.824 123.782 125.221 124.1 125.221 124.612C125.221 125.108 124.797 125.443 124.192 125.443C123.594 125.443 123.18 125.139 123.136 124.667H122.401C122.442 125.545 123.16 126.12 124.202 126.12C125.231 126.12 126.007 125.504 126.007 124.664C126.007 123.987 125.583 123.549 124.927 123.45V123.392C125.443 123.252 125.815 122.859 125.819 122.261C125.822 121.557 125.245 120.948 124.226 120.948C123.187 120.948 122.544 121.546 122.493 122.397H123.218C123.262 121.892 123.621 121.608 124.182 121.608C124.735 121.608 125.063 121.943 125.063 122.367C125.063 122.828 124.694 123.153 124.161 123.153H123.566V123.782Z" fill="white"/>
<path d="M120.217 146H120.982V141.068H120.22L118.921 141.984V142.767L120.159 141.892H120.217V146ZM124.188 146.12C125.286 146.12 126.044 145.532 126.044 144.677C126.044 144.042 125.627 143.542 124.995 143.423V143.365C125.515 143.231 125.843 142.811 125.843 142.278C125.843 141.499 125.156 140.948 124.188 140.948C123.221 140.948 122.534 141.499 122.534 142.278C122.534 142.808 122.869 143.235 123.382 143.365V143.423C122.75 143.553 122.336 144.052 122.336 144.681C122.336 145.532 123.091 146.12 124.188 146.12ZM124.188 145.484C123.556 145.484 123.119 145.128 123.119 144.616C123.119 144.1 123.556 143.744 124.188 143.744C124.821 143.744 125.258 144.1 125.258 144.616C125.258 145.128 124.821 145.484 124.188 145.484ZM124.188 143.119C123.652 143.119 123.29 142.808 123.29 142.353C123.29 141.892 123.648 141.577 124.188 141.577C124.729 141.577 125.091 141.892 125.091 142.353C125.091 142.808 124.725 143.119 124.188 143.119Z" fill="white"/>
<path d="M118.58 162.51H119.304C119.304 161.974 119.67 161.611 120.227 161.611C120.774 161.611 121.099 161.967 121.099 162.435C121.099 162.825 120.935 163.064 120.309 163.707L118.621 165.446V166H121.943V165.313H119.667V165.255L120.753 164.185C121.618 163.331 121.868 162.927 121.868 162.356C121.868 161.54 121.201 160.948 120.275 160.948C119.28 160.948 118.58 161.591 118.58 162.51ZM124.038 163.782H124.653C125.296 163.782 125.692 164.1 125.692 164.612C125.692 165.108 125.269 165.443 124.664 165.443C124.065 165.443 123.652 165.139 123.607 164.667H122.873C122.914 165.545 123.631 166.12 124.674 166.12C125.703 166.12 126.479 165.504 126.479 164.664C126.479 163.987 126.055 163.549 125.398 163.45V163.392C125.915 163.252 126.287 162.859 126.291 162.261C126.294 161.557 125.716 160.948 124.698 160.948C123.659 160.948 123.016 161.546 122.965 162.397H123.689C123.734 161.892 124.093 161.608 124.653 161.608C125.207 161.608 125.535 161.943 125.535 162.367C125.535 162.828 125.166 163.153 124.633 163.153H124.038V163.782Z" fill="white"/>
<path d="M141.992 86H142.73V85.0361H143.411V84.3491H142.73V81.0679H141.64C140.96 82.0898 140.235 83.2383 139.586 84.3525V85.0361H141.992V86ZM140.321 84.3184C140.827 83.4639 141.428 82.5239 141.958 81.7412H142.002V84.3662H140.321V84.3184Z" fill="white"/>
<path d="M141.432 100.948C140.396 100.948 139.644 101.673 139.644 102.664V102.671C139.644 103.614 140.321 104.312 141.261 104.312C141.931 104.312 142.378 103.959 142.556 103.563H142.625C142.607 104.599 142.269 105.47 141.404 105.47C140.943 105.47 140.622 105.231 140.481 104.855L140.471 104.821H139.709L139.719 104.862C139.88 105.607 140.529 106.12 141.404 106.12C142.625 106.12 143.353 105.135 143.353 103.464V103.457C143.353 101.646 142.419 100.948 141.432 100.948ZM141.428 103.693C140.833 103.693 140.399 103.255 140.399 102.65V102.644C140.399 102.052 140.861 101.591 141.438 101.591C142.02 101.591 142.474 102.062 142.474 102.664V102.667C142.474 103.262 142.02 103.693 141.428 103.693Z" fill="white"/>
<path d="M139.248 126H140.013V121.068H139.248L137.949 121.991V122.743L139.189 121.857H139.248V126ZM143.674 126H144.412V125.019H145.092V124.37H144.412V121.068H143.322C142.642 122.09 141.917 123.255 141.268 124.37V125.019H143.674V126ZM142.002 124.383V124.335C142.508 123.471 143.11 122.51 143.64 121.714H143.684V124.383H142.002Z" fill="#2C2E47"/>
<path d="M139.234 146H140V141.068H139.237L137.938 141.984V142.767L139.176 141.892H139.234V146ZM143.093 146.12C144.327 146.12 145.048 145.139 145.048 143.467C145.048 141.823 144.255 140.948 143.124 140.948C142.078 140.948 141.336 141.663 141.336 142.671C141.336 143.618 142.02 144.312 142.959 144.312C143.544 144.312 144.016 144.038 144.251 143.566H144.31C144.289 144.766 143.855 145.439 143.1 145.439C142.648 145.439 142.296 145.2 142.18 144.807H141.408C141.555 145.604 142.218 146.12 143.093 146.12ZM143.127 143.666C142.519 143.666 142.098 143.245 142.098 142.644C142.098 142.066 142.542 141.622 143.134 141.622C143.722 141.622 144.166 142.069 144.166 142.661C144.166 143.245 143.732 143.666 143.127 143.666Z" fill="white"/>
<path d="M137.562 162.51H138.287C138.287 161.974 138.653 161.611 139.21 161.611C139.757 161.611 140.082 161.967 140.082 162.435C140.082 162.825 139.917 163.064 139.292 163.707L137.604 165.446V166H140.926V165.313H138.649V165.255L139.736 164.185C140.601 163.331 140.851 162.927 140.851 162.356C140.851 161.54 140.184 160.948 139.258 160.948C138.263 160.948 137.562 161.591 137.562 162.51ZM144.111 166H144.85V165.036H145.53V164.349H144.85V161.068H143.759C143.079 162.09 142.354 163.238 141.705 164.353V165.036H144.111V166ZM142.44 164.318C142.946 163.464 143.547 162.524 144.077 161.741H144.122V164.366H142.44V164.318Z" fill="white"/>
<path d="M160.534 86.1196C161.58 86.1196 162.288 85.4189 162.288 84.3867C162.288 83.4023 161.604 82.7632 160.77 82.7632C160.271 82.7632 159.905 82.9307 159.68 83.2314H159.622L159.765 81.748H162.031V81.0679H159.17L158.894 83.9219H159.594C159.775 83.5903 160.121 83.3887 160.558 83.3887C161.139 83.3887 161.539 83.7954 161.539 84.4038C161.539 85.0293 161.136 85.4463 160.538 85.4463C160.001 85.4463 159.601 85.1318 159.546 84.6533H158.815C158.863 85.5146 159.553 86.1196 160.534 86.1196Z" fill="white"/>
<path d="M158.251 106H159.017V101.068H158.254L156.956 101.984V102.767L158.193 101.892H158.251V106ZM162.195 106.12C163.344 106.12 164.014 105.173 164.014 103.536C164.014 101.902 163.333 100.948 162.195 100.948C161.05 100.948 160.37 101.898 160.37 103.529C160.37 105.169 161.043 106.12 162.195 106.12ZM162.195 105.45C161.525 105.45 161.143 104.783 161.143 103.529C161.143 102.288 161.532 101.618 162.195 101.618C162.858 101.618 163.241 102.285 163.241 103.529C163.241 104.787 162.865 105.45 162.195 105.45Z" fill="white"/>
<path d="M158.302 126H159.068V121.068H158.306L157.007 121.984V122.767L158.244 121.892H158.302V126ZM162.226 126.12C163.272 126.12 163.979 125.419 163.979 124.387C163.979 123.402 163.296 122.763 162.462 122.763C161.963 122.763 161.597 122.931 161.372 123.231H161.313L161.457 121.748H163.723V121.068H160.862L160.585 123.922H161.286C161.467 123.59 161.812 123.389 162.25 123.389C162.831 123.389 163.231 123.795 163.231 124.404C163.231 125.029 162.828 125.446 162.229 125.446C161.693 125.446 161.293 125.132 161.238 124.653H160.507C160.555 125.515 161.245 126.12 162.226 126.12Z" fill="white"/>
<path d="M156.556 142.51H157.28C157.28 141.974 157.646 141.611 158.203 141.611C158.75 141.611 159.075 141.967 159.075 142.435C159.075 142.825 158.911 143.064 158.285 143.707L156.597 145.446V146H159.919V145.313H157.643V145.255L158.729 144.185C159.594 143.331 159.844 142.927 159.844 142.356C159.844 141.54 159.177 140.948 158.251 140.948C157.256 140.948 156.556 141.591 156.556 142.51ZM162.667 146.12C163.815 146.12 164.485 145.173 164.485 143.536C164.485 141.902 163.805 140.948 162.667 140.948C161.522 140.948 160.842 141.898 160.842 143.529C160.842 145.169 161.515 146.12 162.667 146.12ZM162.667 145.45C161.997 145.45 161.614 144.783 161.614 143.529C161.614 142.288 162.004 141.618 162.667 141.618C163.33 141.618 163.713 142.285 163.713 143.529C163.713 144.787 163.337 145.45 162.667 145.45Z" fill="white"/>
<path d="M156.607 162.51H157.332C157.332 161.974 157.697 161.611 158.254 161.611C158.801 161.611 159.126 161.967 159.126 162.435C159.126 162.825 158.962 163.064 158.336 163.707L156.648 165.446V166H159.97V165.313H157.694V165.255L158.781 164.185C159.646 163.331 159.895 162.927 159.895 162.356C159.895 161.54 159.229 160.948 158.302 160.948C157.308 160.948 156.607 161.591 156.607 162.51ZM162.698 166.12C163.744 166.12 164.451 165.419 164.451 164.387C164.451 163.402 163.768 162.763 162.934 162.763C162.435 162.763 162.069 162.931 161.843 163.231H161.785L161.929 161.748H164.195V161.068H161.334L161.057 163.922H161.758C161.939 163.59 162.284 163.389 162.722 163.389C163.303 163.389 163.703 163.795 163.703 164.404C163.703 165.029 163.299 165.446 162.701 165.446C162.165 165.446 161.765 165.132 161.71 164.653H160.979C161.026 165.515 161.717 166.12 162.698 166.12Z" fill="white"/>
</g>
<defs>
<linearGradient id="paint0_linear" x1="147.905" y1="4.72329" x2="61.4375" y2="54.6453" gradientUnits="userSpaceOnUse">
<stop stop-color="white" stop-opacity="0"/>
<stop offset="1" stop-color="white"/>
</linearGradient>
<linearGradient id="paint1_linear" x1="156.465" y1="123.76" x2="102.473" y2="123.76" gradientUnits="userSpaceOnUse">
<stop stop-color="white" stop-opacity="0"/>
<stop offset="1" stop-color="#2C2E47"/>
</linearGradient>
<clipPath id="clip0">
<rect width="245" height="175" fill="white"/>
</clipPath>
</defs>
</svg>
