<svg width="24" height="24" viewBox="0 0 24 24" fill="none" xmlns="http://www.w3.org/2000/svg">
<path d="M9.69981 9.89429C8.87149 9.89429 8.19883 9.22262 8.19883 8.39532C8.19883 7.56617 8.87149 6.8945 9.69981 6.8945C10.5281 6.8945 11.1989 7.56617 11.1989 8.39532C11.1989 9.22262 10.5281 9.89429 9.69981 9.89429ZM12.0004 0C5.37107 0 0 5.37145 0 11.9991C0 17.7504 4.04799 22.5568 9.44872 23.7268V12.9589L9.44946 12.9582C9.46154 12.4385 9.87566 12.0197 10.3908 12.0003V11.9995H10.8902H11.9066C11.977 11.9995 12.0345 11.9439 12.0382 11.8744L12.0389 0.00214932L12.0004 0ZM20.27 18.5449C19.4426 18.5449 18.7699 17.8733 18.7699 17.0441C18.7699 16.2178 19.4426 15.5461 20.27 15.5461C21.0974 15.5461 21.77 16.2178 21.77 17.0441C21.77 17.8733 21.0974 18.5449 20.27 18.5449ZM16.7538 18.5449C15.9264 18.5449 15.2547 17.8733 15.2547 17.0441C15.2547 16.2178 15.9264 15.5461 16.7538 15.5461C17.5821 15.5461 18.2539 16.2178 18.2539 17.0441C18.2539 17.8733 17.5821 18.5449 16.7538 18.5449ZM13.2358 18.5449C12.4084 18.5449 11.7348 17.8733 11.7348 17.0441C11.7348 16.2178 12.4084 15.5461 13.2358 15.5461C14.065 15.5461 14.7368 16.2178 14.7368 17.0441C14.7368 17.8733 14.065 18.5449 13.2358 18.5449ZM13.4813 0.0904345V11.9988V12.462V12.4704L13.4784 12.4733C13.4739 13.0088 13.0373 13.4415 12.5 13.4415H12.0385H11.0231C10.9489 13.4415 10.8897 13.5008 10.8897 13.5739V23.9481C11.2556 23.9815 11.6244 24 11.9996 24C18.628 24 24 18.6267 24 11.999C24 5.87437 19.41 0.820685 13.4811 0.0906569" fill="#575483"/>
</svg>
