<svg width="32" height="32" viewBox="0 0 32 32" fill="none" xmlns="http://www.w3.org/2000/svg">
<path d="M18.723 19.028C19.808 20.738 20.439 22.514 20.617 24.353C22.194 25.633 24.707 26.263 28.159 26.24C28.2444 24.8411 28.0349 23.4398 27.544 22.127H27.578C27.22 21.2827 26.7213 20.5053 26.103 19.828C26.1008 19.8013 26.0883 19.7765 26.068 19.759C25.8492 19.5199 25.6081 19.3023 25.348 19.109C23.829 17.946 22.031 17.225 19.952 16.948C19.7604 17.749 19.3321 18.4737 18.723 19.028ZM25.349 10.947H25.383C26.366 9.461 26.996 7.335 27.27 4.569C25.758 4.339 24.364 4.409 23.087 4.774C21.9865 5.10336 20.9694 5.66461 20.104 6.42V6.455L19.899 6.661H19.861C18.494 8.105 17.583 9.906 17.128 12.059C17.7528 12.2448 18.324 12.5774 18.794 13.029C20.889 11.662 23.076 10.968 25.349 10.946V10.947ZM26.035 18.249C26.262 18.431 26.479 18.627 26.686 18.832C28.286 18.399 30.056 17.404 32 15.849C31.2066 14.6858 30.164 13.7139 28.948 13.004C27.942 12.4298 26.8149 12.1006 25.658 12.043H25.349C23.303 12.063 21.347 12.677 19.479 13.886C19.8371 14.4797 20.0375 15.1551 20.061 15.848C22.348 16.154 24.339 16.954 26.035 18.249V18.249ZM15.205 20.035C16.0982 20.2036 17.0222 20.0676 17.829 19.649C18.843 21.259 19.417 22.919 19.554 24.626V24.696C19.5777 24.9118 19.589 25.1289 19.588 25.346C19.574 26.6125 19.2315 27.8536 18.594 28.948C17.954 30.093 17.007 31.111 15.748 32H15.74C14.486 31.106 13.54 30.09 12.903 28.949C12.3377 27.9799 12.0037 26.8933 11.927 25.774C12.2144 25.5061 12.471 25.2069 12.692 24.882L12.725 24.849C13.792 23.443 14.619 21.838 15.205 20.035V20.035ZM12.321 7.347V7.38C12.534 9.065 13.126 10.718 14.097 12.337C14.6742 12.0402 15.3139 11.8852 15.963 11.885H16.043C16.543 9.522 17.553 7.538 19.075 5.94C19.0797 5.94059 19.0844 5.94018 19.0889 5.9388C19.0933 5.93742 19.0975 5.9351 19.101 5.932C19.1041 5.92848 19.1064 5.92435 19.1078 5.91986C19.1092 5.91538 19.1096 5.91065 19.109 5.906C19.1087 5.90128 19.1093 5.89655 19.1108 5.89208C19.1124 5.88761 19.1148 5.8835 19.118 5.88C19.1211 5.87628 19.1252 5.87342 19.1297 5.87167C19.1343 5.86993 19.1392 5.86935 19.144 5.87C18.8 4.11 17.738 2.155 15.955 0C14.8103 0.818242 13.8522 1.87007 13.144 3.086C12.6417 3.97252 12.3268 4.95278 12.219 5.966C12.2606 6.02681 12.2839 6.09833 12.286 6.172C12.2393 6.56287 12.2508 6.95849 12.32 7.346H12.321V7.347ZM6.12 12.082L6.097 12.056C4.327 12.258 2.296 13.143 0 14.71C0.796 16.016 1.745 17.04 2.846 17.782C3.80547 18.4141 4.88963 18.8326 6.025 19.009L6.051 18.987L6.341 19.013L6.364 19.042C8.35 19.159 10.314 18.701 12.256 17.667C11.9973 17.0687 11.8849 16.4174 11.928 15.767C9.533 15.038 7.597 13.811 6.12 12.082V12.082ZM11.274 6.862C11.2668 6.57072 11.2758 6.27927 11.301 5.989C9.94 5.04 8.039 4.323 5.6 3.835C5.21844 5.19086 5.14396 6.61473 5.382 8.003C5.58747 9.14308 6.06041 10.2182 6.762 11.14L6.959 11.377C8.289 12.931 10.018 14.036 12.143 14.689C12.3679 14.0335 12.7566 13.4463 13.272 12.983C12.035 11.034 11.369 8.995 11.272 6.863L11.274 6.862ZM11.736 24.378L11.763 24.355C12.916 23.11 13.801 21.595 14.418 19.81C13.8193 19.5575 13.2893 19.1661 12.872 18.668L12.82 18.608C10.688 19.745 8.52 20.245 6.319 20.108C6.314 20.098 6.306 20.095 6.295 20.094C6.29026 20.0933 6.28543 20.0938 6.28091 20.0953C6.27638 20.0969 6.2723 20.0995 6.269 20.103C6.26592 20.1068 6.26189 20.1097 6.25733 20.1115C6.25277 20.1132 6.24783 20.1137 6.243 20.113C6.234 20.113 6.226 20.107 6.221 20.099C5.093 21.493 4.278 23.565 3.774 26.314C5.13625 26.6655 6.55766 26.7235 7.944 26.484C8.9462 26.2999 9.89991 25.9118 10.746 25.344C10.7644 25.2722 10.8041 25.2077 10.86 25.159C11.1891 24.9435 11.4843 24.6803 11.736 24.378V24.378ZM17.017 18.879C17.069 18.862 17.124 18.848 17.174 18.826C17.8126 18.5656 18.3419 18.093 18.6727 17.4879C19.0035 16.8828 19.1156 16.1821 18.99 15.504C18.9749 15.4144 18.9566 15.3253 18.935 15.237C18.9116 15.1468 18.8843 15.0577 18.853 14.97C18.6353 14.3723 18.2426 13.8541 17.726 13.483C17.683 13.454 17.64 13.424 17.594 13.397C17.4969 13.336 17.3961 13.2812 17.292 13.233C17.2197 13.1953 17.1457 13.1613 17.07 13.131C16.7141 12.9886 16.3344 12.915 15.951 12.914C15.915 12.914 15.881 12.923 15.847 12.924V12.934C15.4409 12.9518 15.0412 13.0422 14.667 13.201C13.9712 13.5034 13.4122 14.0529 13.0978 14.7434C12.7835 15.4339 12.7361 16.2163 12.9648 16.9396C13.1936 17.663 13.6822 18.276 14.3363 18.6602C14.9905 19.0444 15.7638 19.1726 16.507 19.02L16.64 18.994C16.7681 18.9643 16.8941 18.9259 17.017 18.879V18.879Z" fill="white"/>
<path d="M18.723 19.028C19.808 20.738 20.439 22.514 20.617 24.353C22.194 25.633 24.707 26.263 28.159 26.24C28.2444 24.8411 28.0349 23.4398 27.544 22.127H27.578C27.22 21.2827 26.7213 20.5053 26.103 19.828C26.1008 19.8013 26.0883 19.7765 26.068 19.759C25.8492 19.5199 25.6081 19.3023 25.348 19.109C23.829 17.946 22.031 17.225 19.952 16.948C19.7604 17.749 19.3321 18.4737 18.723 19.028ZM25.349 10.947H25.383C26.366 9.461 26.996 7.335 27.27 4.569C25.758 4.339 24.364 4.409 23.087 4.774C21.9865 5.10336 20.9694 5.66461 20.104 6.42V6.455L19.899 6.661H19.861C18.494 8.105 17.583 9.906 17.128 12.059C17.7528 12.2448 18.324 12.5774 18.794 13.029C20.889 11.662 23.076 10.968 25.349 10.946V10.947ZM26.035 18.249C26.262 18.431 26.479 18.627 26.686 18.832C28.286 18.399 30.056 17.404 32 15.849C31.2066 14.6858 30.164 13.7139 28.948 13.004C27.942 12.4298 26.8149 12.1006 25.658 12.043H25.349C23.303 12.063 21.347 12.677 19.479 13.886C19.8371 14.4797 20.0375 15.1551 20.061 15.848C22.348 16.154 24.339 16.954 26.035 18.249V18.249ZM15.205 20.035C16.0982 20.2036 17.0222 20.0676 17.829 19.649C18.843 21.259 19.417 22.919 19.554 24.626V24.696C19.5777 24.9118 19.589 25.1289 19.588 25.346C19.574 26.6125 19.2315 27.8536 18.594 28.948C17.954 30.093 17.007 31.111 15.748 32H15.74C14.486 31.106 13.54 30.09 12.903 28.949C12.3377 27.9799 12.0037 26.8933 11.927 25.774C12.2144 25.5061 12.471 25.2069 12.692 24.882L12.725 24.849C13.792 23.443 14.619 21.838 15.205 20.035V20.035ZM12.321 7.347V7.38C12.534 9.065 13.126 10.718 14.097 12.337C14.6742 12.0402 15.3139 11.8852 15.963 11.885H16.043C16.543 9.522 17.553 7.538 19.075 5.94C19.0797 5.94059 19.0844 5.94018 19.0889 5.9388C19.0933 5.93742 19.0975 5.9351 19.101 5.932C19.1041 5.92848 19.1064 5.92435 19.1078 5.91986C19.1092 5.91538 19.1096 5.91065 19.109 5.906C19.1087 5.90128 19.1093 5.89655 19.1108 5.89208C19.1124 5.88761 19.1148 5.8835 19.118 5.88C19.1211 5.87628 19.1252 5.87342 19.1297 5.87167C19.1343 5.86993 19.1392 5.86935 19.144 5.87C18.8 4.11 17.738 2.155 15.955 0C14.8103 0.818242 13.8522 1.87007 13.144 3.086C12.6417 3.97252 12.3268 4.95278 12.219 5.966C12.2606 6.02681 12.2839 6.09833 12.286 6.172C12.2393 6.56287 12.2508 6.95849 12.32 7.346H12.321V7.347ZM6.12 12.082L6.097 12.056C4.327 12.258 2.296 13.143 0 14.71C0.796 16.016 1.745 17.04 2.846 17.782C3.80547 18.4141 4.88963 18.8326 6.025 19.009L6.051 18.987L6.341 19.013L6.364 19.042C8.35 19.159 10.314 18.701 12.256 17.667C11.9973 17.0687 11.8849 16.4174 11.928 15.767C9.533 15.038 7.597 13.811 6.12 12.082V12.082ZM11.274 6.862C11.2668 6.57072 11.2758 6.27927 11.301 5.989C9.94 5.04 8.039 4.323 5.6 3.835C5.21844 5.19086 5.14396 6.61473 5.382 8.003C5.58747 9.14308 6.06041 10.2182 6.762 11.14L6.959 11.377C8.289 12.931 10.018 14.036 12.143 14.689C12.3679 14.0335 12.7566 13.4463 13.272 12.983C12.035 11.034 11.369 8.995 11.272 6.863L11.274 6.862ZM11.736 24.378L11.763 24.355C12.916 23.11 13.801 21.595 14.418 19.81C13.8193 19.5575 13.2893 19.1661 12.872 18.668L12.82 18.608C10.688 19.745 8.52 20.245 6.319 20.108C6.314 20.098 6.306 20.095 6.295 20.094C6.29026 20.0933 6.28543 20.0938 6.28091 20.0953C6.27638 20.0969 6.2723 20.0995 6.269 20.103C6.26592 20.1068 6.26189 20.1097 6.25733 20.1115C6.25277 20.1132 6.24783 20.1137 6.243 20.113C6.234 20.113 6.226 20.107 6.221 20.099C5.093 21.493 4.278 23.565 3.774 26.314C5.13625 26.6655 6.55766 26.7235 7.944 26.484C8.9462 26.2999 9.89991 25.9118 10.746 25.344C10.7644 25.2722 10.8041 25.2077 10.86 25.159C11.1891 24.9435 11.4843 24.6803 11.736 24.378V24.378Z" fill="#575483"/>
<path d="M17.017 18.88C17.069 18.862 17.124 18.848 17.174 18.826C17.8126 18.5656 18.3419 18.093 18.6727 17.4879C19.0035 16.8828 19.1156 16.1821 18.99 15.504C18.9749 15.4144 18.9566 15.3253 18.935 15.237C18.9116 15.1468 18.8843 15.0578 18.853 14.97C18.6353 14.3723 18.2426 13.8541 17.726 13.483C17.683 13.454 17.64 13.424 17.594 13.397C17.4969 13.336 17.3961 13.2812 17.292 13.233C17.2197 13.1953 17.1457 13.1613 17.07 13.131C16.7141 12.9886 16.3344 12.915 15.951 12.914C15.915 12.914 15.881 12.923 15.847 12.924V12.934C15.4409 12.9518 15.0412 13.0422 14.667 13.201C13.9712 13.5034 13.4122 14.0529 13.0978 14.7434C12.7835 15.4339 12.7361 16.2163 12.9648 16.9396C13.1936 17.663 13.6822 18.276 14.3363 18.6602C14.9905 19.0444 15.7638 19.1726 16.507 19.02L16.64 18.994C16.7681 18.9643 16.8941 18.9259 17.017 18.879V18.88Z" fill="#9D9ACB"/>
</svg>
