<svg width="245" height="175" viewBox="0 0 245 175" fill="none" xmlns="http://www.w3.org/2000/svg">
<g id="&#208;&#157;&#208;&#190;&#208;&#178;&#208;&#176;&#209;&#143; &#208;&#184;&#208;&#179;&#209;&#128;&#209;&#139;">
<g id="Oval">
<rect id="Mask" width="245" height="175" fill="#7763EB"/>
<mask id="mask0" mask-type="alpha" maskUnits="userSpaceOnUse" x="0" y="0" width="245" height="175">
<rect id="Mask_2" width="245" height="175" fill="white"/>
</mask>
<g mask="url(#mask0)">
<g id="Group">
<path id="Star" opacity="0.275577" fill-rule="evenodd" clip-rule="evenodd" d="M122.02 116.585L81.5339 281.399L109.773 116.22L1.55783 276.612L97.8279 115.137L-75.4521 267.156L86.4781 113.36L-147.6 253.265L76.0036 110.934L-213.108 235.279L66.662 107.919L-270.365 213.642L58.6837 104.389L-317.959 188.887L52.2648 100.431L-354.72 161.623L47.5636 96.1422L-379.742 132.522L44.6957 91.6281L-392.409 102.3L43.7319 87L-392.409 71.7005L44.6957 82.3719L-379.742 41.4781L47.5636 77.8578L-354.72 12.3767L52.2648 73.5689L-317.959 -14.8872L58.6837 69.6106L-270.365 -39.6424L66.662 66.0805L-213.108 -61.2792L76.0036 63.0656L-147.6 -79.2648L86.4781 60.6399L-75.4521 -93.1565L97.8279 58.8634L1.55783 -102.612L109.773 57.7796L81.5339 -107.399L122.02 57.4154L162.507 -107.399L134.267 57.7796L242.483 -102.612L146.213 58.8634L319.493 -93.1565L157.563 60.6399L391.64 -79.2648L168.037 63.0656L457.149 -61.2792L177.379 66.0805L514.405 -39.6424L185.357 69.6106L562 -14.8872L191.776 73.5689L598.761 12.3767L196.477 77.8578L623.783 41.4781L199.345 82.3719L636.45 71.7005L200.309 87L636.45 102.3L199.345 91.6281L623.783 132.522L196.477 96.1422L598.761 161.623L191.776 100.431L562 188.887L185.357 104.389L514.405 213.642L177.379 107.919L457.149 235.279L168.037 110.934L391.64 253.265L157.563 113.36L319.493 267.156L146.213 115.137L242.483 276.612L134.267 116.22L162.507 281.399L122.02 116.585Z" fill="url(#paint0_linear)"/>
<g id="Group 30">
<path id="Fill 1" fill-rule="evenodd" clip-rule="evenodd" d="M317.546 124.793C317.546 152.252 295.287 174.508 267.831 174.508C240.375 174.508 218.115 152.252 218.115 124.793C218.115 97.3365 240.375 75.0799 267.831 75.0799C295.287 75.0799 317.546 97.3365 317.546 124.793" fill="#B4D7DC"/>
<path id="Fill 3" fill-rule="evenodd" clip-rule="evenodd" d="M267.831 75.0786C266.02 75.0786 264.237 75.1812 262.476 75.3712C282.13 77.7097 297.373 94.4241 297.373 114.707C297.373 136.591 279.629 154.334 257.745 154.334C237.461 154.334 220.747 139.092 218.406 119.439C218.218 121.2 218.116 122.986 218.116 124.792C218.116 152.25 240.372 174.507 267.831 174.507C295.287 174.507 317.547 152.25 317.547 124.792C317.547 97.3378 295.287 75.0786 267.831 75.0786" fill="#9BB9C3"/>
<path id="Fill 5" fill-rule="evenodd" clip-rule="evenodd" d="M251.236 106.072C251.236 110.051 248.01 113.277 244.031 113.277C240.052 113.277 236.825 110.051 236.825 106.072C236.825 102.092 240.052 98.8661 244.031 98.8661C248.01 98.8661 251.236 102.092 251.236 106.072" fill="#9BB9C3"/>
<path id="Fill 11" fill-rule="evenodd" clip-rule="evenodd" d="M239.731 129.836C239.731 131.43 238.441 132.72 236.85 132.72C235.257 132.72 233.966 131.43 233.966 129.836C233.966 128.246 235.257 126.955 236.85 126.955C238.441 126.955 239.731 128.246 239.731 129.836" fill="#9BB9C3"/>
<path id="Fill 15" fill-rule="evenodd" clip-rule="evenodd" d="M244.683 158.972C244.683 160.565 243.393 161.853 241.802 161.853C240.209 161.853 238.918 160.565 238.918 158.972C238.918 157.381 240.209 156.091 241.802 156.091C243.393 156.091 244.683 157.381 244.683 158.972" fill="#A5C8CD"/>
</g>
<path id="Fill 3_2" fill-rule="evenodd" clip-rule="evenodd" d="M232.224 52.321C232.397 52.7558 232.741 53.1026 233.176 53.2759L235.422 54.1676C236.856 54.7345 236.856 56.7655 235.422 57.3324L233.176 58.2241C232.741 58.3974 232.397 58.7442 232.224 59.179L231.332 61.4247C230.763 62.8584 228.735 62.8584 228.165 61.4247L227.273 59.179C227.1 58.7442 226.756 58.3974 226.318 58.2241L224.075 57.3324C222.642 56.7655 222.642 54.7345 224.075 54.1676L226.318 53.2759C226.756 53.1026 227.1 52.7558 227.273 52.321L228.165 50.0753C228.735 48.6416 230.763 48.6416 231.332 50.0753L232.224 52.321Z" fill="#E4DFFF"/>
<path id="Fill 3_3" fill-rule="evenodd" clip-rule="evenodd" d="M214.648 80.214C214.763 80.5039 214.993 80.735 215.283 80.8506L216.78 81.4451C217.736 81.823 217.736 83.177 216.78 83.5549L215.283 84.1494C214.993 84.265 214.763 84.4961 214.648 84.786L214.053 86.2831C213.673 87.239 212.321 87.239 211.941 86.2831L211.347 84.786C211.231 84.4961 211.002 84.265 210.71 84.1494L209.214 83.5549C208.258 83.177 208.258 81.823 209.214 81.4451L210.71 80.8506C211.002 80.735 211.231 80.5039 211.347 80.214L211.941 78.7169C212.321 77.761 213.673 77.761 214.053 78.7169L214.648 80.214Z" fill="#E4DFFF"/>
<path id="Fill 3_4" fill-rule="evenodd" clip-rule="evenodd" d="M23.2241 62.321C23.3974 62.7558 23.7414 63.1026 24.1763 63.2759L26.4219 64.1676C27.8557 64.7345 27.8557 66.7655 26.4219 67.3324L24.1763 68.2241C23.7414 68.3974 23.3974 68.7442 23.2241 69.179L22.3324 71.4247C21.7627 72.8584 19.7345 72.8584 19.1648 71.4247L18.2732 69.179C18.0998 68.7442 17.7558 68.3974 17.3182 68.2241L15.0753 67.3324C13.6416 66.7655 13.6416 64.7345 15.0753 64.1676L17.3182 63.2759C17.7558 63.1026 18.0998 62.7558 18.2732 62.321L19.1648 60.0753C19.7345 58.6416 21.7627 58.6416 22.3324 60.0753L23.2241 62.321Z" fill="#E4DFFF"/>
<rect id="Rectangle" x="-29" y="23" width="71" height="56" rx="3" fill="#5D4ACB"/>
<g id="Rectangle Copy 2" filter="url(#filter0_d)">
<rect x="-29" y="86" width="71" height="57" rx="3" fill="#5D4ACB"/>
</g>
<rect id="Rectangle Copy 5" x="-29" y="150" width="71" height="56" rx="3" fill="#5D4ACB"/>
<g id="Rectangle_2" filter="url(#filter1_d)">
<rect x="49" y="23" width="71" height="56" rx="3" fill="#FF8181"/>
</g>
<g id="Group 3 Copy">
<g id="Rectangle 2 Copy 3" filter="url(#filter2_d)">
<path fill-rule="evenodd" clip-rule="evenodd" d="M67.7862 39.7353C73.0809 30.5645 84.8075 27.4224 93.9783 32.7171V32.7171C103.149 38.0119 106.291 49.7385 100.996 58.9092L100.214 60.2647C94.9191 69.4355 83.1925 72.5776 74.0217 67.2829V67.2829C64.851 61.9881 61.7089 50.2615 67.0036 41.0908L67.7862 39.7353Z" fill="#FFE14D"/>
</g>
<g id="Rectangle 3 Copy">
<path id="Mask_3" fill-rule="evenodd" clip-rule="evenodd" d="M70.4273 41.3231C74.8751 33.6193 84.7259 30.9798 92.4298 35.4276V35.4276C100.134 39.8754 102.773 49.7262 98.3253 57.43L97.7989 58.3417C93.3511 66.0455 83.5003 68.6851 75.7965 64.2373V64.2373C68.0927 59.7895 65.4531 49.9386 69.9009 42.2348L70.4273 41.3231Z" fill="url(#paint1_linear)"/>
<mask id="mask1" mask-type="alpha" maskUnits="userSpaceOnUse" x="61" y="27" width="46" height="46">
<path id="Mask_4" fill-rule="evenodd" clip-rule="evenodd" d="M70.4273 41.3231C74.8751 33.6193 84.7259 30.9798 92.4298 35.4276V35.4276C100.134 39.8754 102.773 49.7262 98.3253 57.43L97.7989 58.3417C93.3511 66.0455 83.5003 68.6851 75.7965 64.2373V64.2373C68.0927 59.7895 65.4531 49.9386 69.9009 42.2348L70.4273 41.3231Z" fill="white"/>
</mask>
<g mask="url(#mask1)">
</g>
</g>
<g id="Rectangle 3 Copy_2">
<path id="Mask_5" fill-rule="evenodd" clip-rule="evenodd" d="M72.8138 43.0457C76.5233 36.6207 84.739 34.4193 91.1641 38.1288V38.1288C97.5891 41.8383 99.7905 50.054 96.081 56.4791L95.642 57.2394C91.9325 63.6645 83.7168 65.8659 77.2917 62.1564V62.1564C70.8667 58.4469 68.6653 50.2312 72.3748 43.8061L72.8138 43.0457Z" fill="#E37C1A"/>
<mask id="mask2" mask-type="alpha" maskUnits="userSpaceOnUse" x="65" y="31" width="38" height="38">
<path id="Mask_6" fill-rule="evenodd" clip-rule="evenodd" d="M72.8138 43.0457C76.5233 36.6207 84.739 34.4193 91.1641 38.1288V38.1288C97.5891 41.8383 99.7905 50.054 96.081 56.4791L95.642 57.2394C91.9325 63.6645 83.7168 65.8659 77.2917 62.1564V62.1564C70.8667 58.4469 68.6653 50.2312 72.3748 43.8061L72.8138 43.0457Z" fill="white"/>
</mask>
<g mask="url(#mask2)">
</g>
</g>
<path id="$" fill-rule="evenodd" clip-rule="evenodd" d="M83.6033 57.9234C82.4699 57.8441 81.553 57.6877 80.8527 57.4542C80.1524 57.2207 79.6292 57.0073 79.2831 56.8137L80.0891 54.5093C80.5925 54.7673 81.2023 55.0009 81.9183 55.2101C82.6344 55.4193 83.449 55.5233 84.3621 55.5221C85.4484 55.5206 86.2004 55.354 86.618 55.0221C87.0357 54.6902 87.2448 54.2494 87.2455 53.6999C87.246 53.3281 87.1599 53.0049 86.987 52.7304C86.8142 52.4558 86.5705 52.2137 86.2559 52.0039C85.9413 51.7942 85.5677 51.6007 85.1349 51.4235C84.7022 51.2463 84.2262 51.061 83.7069 50.8677C83.2191 50.6905 82.7353 50.4891 82.2554 50.2634C81.7755 50.0378 81.3429 49.7595 80.9576 49.4287C80.5724 49.0978 80.2619 48.6981 80.0264 48.2297C79.7909 47.7612 79.6735 47.1876 79.6744 46.5087C79.6759 45.3934 79.9998 44.4433 80.6464 43.6585C81.2929 42.8737 82.2854 42.3673 83.6239 42.1393L83.6274 39.4237L86.0834 39.4205L86.08 42.0391C86.8356 42.1027 87.5124 42.211 88.1105 42.3637C88.7085 42.5165 89.1806 42.6654 89.5268 42.8104L88.9333 45.2116C88.477 45.0344 87.938 44.8653 87.3163 44.7045C86.6946 44.5437 85.9824 44.4638 85.1794 44.4648C84.3293 44.466 83.6915 44.6244 83.266 44.9401C82.8405 45.2559 82.6274 45.6886 82.6267 46.2381C82.6263 46.5614 82.6889 46.8321 82.8145 47.0501C82.9402 47.2682 83.1289 47.4619 83.3806 47.6313C83.6322 47.8007 83.939 47.9619 84.3009 48.115C84.6628 48.2681 85.0719 48.4252 85.5283 48.5862C86.1734 48.844 86.7832 49.1139 87.3574 49.3961C87.9317 49.6782 88.4311 50.0089 88.8557 50.3882C89.2803 50.7675 89.6142 51.2156 89.8576 51.7325C90.101 52.2495 90.2222 52.8635 90.2212 53.5747C90.2198 54.6416 89.8959 55.5633 89.2494 56.34C88.6029 57.1168 87.5396 57.6192 86.0594 57.8475L86.0554 60.8782L83.5994 60.8814L83.6033 57.9234Z" fill="#FFE14D"/>
</g>
<g id="Rectangle Copy 3" filter="url(#filter3_d)">
<rect x="49" y="86" width="71" height="57" rx="3" fill="#FF8181"/>
</g>
<g id="Group 3 Copy_2">
<g id="Rectangle 2 Copy 3_2" filter="url(#filter4_d)">
<path fill-rule="evenodd" clip-rule="evenodd" d="M67.7862 103.735C73.0809 94.5645 84.8075 91.4224 93.9783 96.7171V96.7171C103.149 102.012 106.291 113.738 100.996 122.909L100.214 124.265C94.9191 133.435 83.1925 136.578 74.0217 131.283V131.283C64.851 125.988 61.7089 114.262 67.0036 105.091L67.7862 103.735Z" fill="#FFE14D"/>
</g>
<g id="Rectangle 3 Copy_3">
<path id="Mask_7" fill-rule="evenodd" clip-rule="evenodd" d="M70.4273 105.323C74.8751 97.6193 84.7259 94.9798 92.4298 99.4276V99.4276C100.134 103.875 102.773 113.726 98.3253 121.43L97.7989 122.342C93.3511 130.046 83.5003 132.685 75.7965 128.237V128.237C68.0927 123.789 65.4531 113.939 69.9009 106.235L70.4273 105.323Z" fill="url(#paint2_linear)"/>
<mask id="mask3" mask-type="alpha" maskUnits="userSpaceOnUse" x="61" y="91" width="46" height="46">
<path id="Mask_8" fill-rule="evenodd" clip-rule="evenodd" d="M70.4273 105.323C74.8751 97.6193 84.7259 94.9798 92.4298 99.4276V99.4276C100.134 103.875 102.773 113.726 98.3253 121.43L97.7989 122.342C93.3511 130.046 83.5003 132.685 75.7965 128.237V128.237C68.0927 123.789 65.4531 113.939 69.9009 106.235L70.4273 105.323Z" fill="white"/>
</mask>
<g mask="url(#mask3)">
</g>
</g>
<g id="Rectangle 3 Copy_4">
<path id="Mask_9" fill-rule="evenodd" clip-rule="evenodd" d="M72.8138 107.046C76.5233 100.621 84.739 98.4193 91.1641 102.129V102.129C97.5891 105.838 99.7905 114.054 96.081 120.479L95.642 121.239C91.9325 127.665 83.7168 129.866 77.2917 126.156V126.156C70.8667 122.447 68.6653 114.231 72.3748 107.806L72.8138 107.046Z" fill="#E37C1A"/>
<mask id="mask4" mask-type="alpha" maskUnits="userSpaceOnUse" x="65" y="95" width="38" height="38">
<path id="Mask_10" fill-rule="evenodd" clip-rule="evenodd" d="M72.8138 107.046C76.5233 100.621 84.739 98.4193 91.1641 102.129V102.129C97.5891 105.838 99.7905 114.054 96.081 120.479L95.642 121.239C91.9325 127.665 83.7168 129.866 77.2917 126.156V126.156C70.8667 122.447 68.6653 114.231 72.3748 107.806L72.8138 107.046Z" fill="white"/>
</mask>
<g mask="url(#mask4)">
</g>
</g>
<path id="$_2" fill-rule="evenodd" clip-rule="evenodd" d="M83.6033 121.923C82.4699 121.844 81.553 121.688 80.8527 121.454C80.1524 121.221 79.6292 121.007 79.2831 120.814L80.0891 118.509C80.5925 118.767 81.2023 119.001 81.9183 119.21C82.6344 119.419 83.449 119.523 84.3621 119.522C85.4484 119.521 86.2004 119.354 86.618 119.022C87.0357 118.69 87.2448 118.249 87.2455 117.7C87.246 117.328 87.1599 117.005 86.987 116.73C86.8142 116.456 86.5705 116.214 86.2559 116.004C85.9413 115.794 85.5677 115.601 85.1349 115.423C84.7022 115.246 84.2262 115.061 83.7069 114.868C83.2191 114.691 82.7353 114.489 82.2554 114.263C81.7755 114.038 81.3429 113.76 80.9576 113.429C80.5724 113.098 80.2619 112.698 80.0264 112.23C79.7909 111.761 79.6735 111.188 79.6744 110.509C79.6759 109.393 79.9998 108.443 80.6464 107.659C81.2929 106.874 82.2854 106.367 83.6239 106.139L83.6274 103.424L86.0834 103.421L86.08 106.039C86.8356 106.103 87.5124 106.211 88.1105 106.364C88.7085 106.517 89.1806 106.665 89.5268 106.81L88.9333 109.212C88.477 109.034 87.938 108.865 87.3163 108.705C86.6946 108.544 85.9824 108.464 85.1794 108.465C84.3293 108.466 83.6915 108.624 83.266 108.94C82.8405 109.256 82.6274 109.689 82.6267 110.238C82.6263 110.561 82.6889 110.832 82.8145 111.05C82.9402 111.268 83.1289 111.462 83.3806 111.631C83.6322 111.801 83.939 111.962 84.3009 112.115C84.6628 112.268 85.0719 112.425 85.5283 112.586C86.1734 112.844 86.7832 113.114 87.3574 113.396C87.9317 113.678 88.4311 114.009 88.8557 114.388C89.2803 114.767 89.6142 115.216 89.8576 115.733C90.101 116.249 90.2222 116.864 90.2212 117.575C90.2198 118.642 89.8959 119.563 89.2494 120.34C88.6029 121.117 87.5396 121.619 86.0594 121.847L86.0554 124.878L83.5994 124.881L83.6033 121.923Z" fill="#FFE14D"/>
</g>
<g id="Rectangle Copy 6" filter="url(#filter5_d)">
<rect x="49" y="150" width="71" height="56" rx="3" fill="#5D4ACB"/>
</g>
<rect id="Rectangle Copy" x="127" y="23" width="71" height="56" rx="3" fill="#5D4ACB"/>
<g id="Group 17">
<g id="Group 9">
<mask id="mask5" mask-type="alpha" maskUnits="userSpaceOnUse" x="140" y="29" width="45" height="53">
<path id="Clip 1" fill-rule="evenodd" clip-rule="evenodd" d="M140 29.5686H184.689V81.3427H140V29.5686Z" fill="white"/>
</mask>
<g mask="url(#mask5)">
<path id="Fill 2" fill-rule="evenodd" clip-rule="evenodd" d="M176.811 42.8093C180.675 50.8361 177.371 60.5097 169.433 64.417C161.494 68.3233 151.926 64.9832 148.062 56.9563C144.199 48.9294 147.502 39.2554 155.441 35.3486C163.379 31.4423 172.947 34.7824 176.811 42.8093" fill="#FABE9B"/>
<path id="Fill 3_5" fill-rule="evenodd" clip-rule="evenodd" d="M176.811 42.8093C176.371 41.8959 175.854 41.0464 175.278 40.2582C177.504 48.1318 173.675 55.4953 166.715 59.2145C159.149 63.256 150.61 61.2412 146.764 53.0852C147.027 54.3967 147.456 55.6967 148.062 56.9563C151.926 64.9832 161.494 68.3233 169.432 64.417C177.371 60.5097 180.675 50.8361 176.811 42.8093" fill="#D27350"/>
<path id="Fill 4" fill-rule="evenodd" clip-rule="evenodd" d="M180.787 39.7649C180.889 39.9949 181.062 40.0959 181.092 40.1035C181.113 40.1068 181.09 40.1049 181.092 40.102C181.084 40.0997 181.094 40.093 181.074 40.0873C181.028 40.0778 181.007 40.0563 180.943 40.0425C180.713 39.9763 180.33 39.9373 179.929 39.9387C179.124 39.9278 178.205 40.0454 177.299 40.1963C175.469 40.5063 173.601 40.9911 171.755 41.5535C168.057 42.6912 164.434 44.2026 160.935 45.9451C159.191 46.8303 157.467 47.7546 155.78 48.7351C154.093 49.7161 152.449 50.7661 150.854 51.8652C149.266 52.9695 147.736 54.1558 146.361 55.4148C145.685 56.0444 145.027 56.703 144.539 57.3516C144.291 57.6697 144.085 57.9992 143.996 58.2235C143.967 58.2825 143.97 58.3125 143.949 58.3554C143.941 58.3749 143.953 58.3711 143.95 58.3792C143.954 58.3787 143.94 58.3992 143.95 58.3806C143.964 58.3511 143.992 58.152 143.876 57.9282C143.785 57.692 143.618 57.5777 143.589 57.5568C143.568 57.5501 143.592 57.5492 143.59 57.5482C143.598 57.5473 143.588 57.5506 143.607 57.553C143.654 57.5558 143.673 57.5701 143.737 57.5773C143.962 57.6173 144.337 57.6316 144.731 57.6049C145.52 57.5668 146.421 57.4011 147.308 57.2039C149.099 56.7977 150.915 56.2006 152.714 55.5534C154.517 54.9067 156.302 54.17 158.073 53.3957C159.847 52.6267 161.599 51.7947 163.331 50.9238C166.795 49.1828 170.214 47.3413 173.473 45.3117C175.097 44.2969 176.684 43.2212 178.109 42.0521C178.81 41.4678 179.494 40.8521 180.01 40.2468C180.273 39.9501 180.494 39.642 180.601 39.4377C180.635 39.383 180.636 39.3582 180.662 39.3192C180.672 39.302 180.663 39.3082 180.669 39.3025C180.668 39.3054 180.684 39.2863 180.677 39.3068C180.674 39.3435 180.66 39.5468 180.787 39.7649M184.373 38.0001C184.698 38.6806 184.732 39.3949 184.654 39.9268C184.638 40.0725 184.607 40.172 184.58 40.2968C184.552 40.4111 184.523 40.5416 184.487 40.6406C184.417 40.8321 184.343 41.0473 184.262 41.2145C183.938 41.9126 183.575 42.4226 183.208 42.895C182.471 43.8417 181.697 44.5922 180.909 45.3236C179.333 46.7656 177.694 48.0246 176.016 49.2156C172.657 51.5824 169.12 53.5986 165.473 55.3739C163.643 56.2472 161.794 57.0796 159.913 57.8497C158.032 58.6187 156.117 59.3126 154.168 59.9402C152.213 60.5597 150.222 61.0888 148.128 61.4602C147.072 61.6355 146.01 61.7874 144.819 61.7883C144.224 61.7883 143.603 61.7626 142.861 61.5893C142.68 61.5502 142.467 61.4764 142.275 61.414C142.176 61.3812 142.056 61.3231 141.949 61.2755C141.836 61.2202 141.74 61.1836 141.616 61.1055C141.154 60.8393 140.619 60.3707 140.29 59.693C139.977 59.0068 139.957 58.2963 140.046 57.7716C140.064 57.6282 140.098 57.5301 140.127 57.4077C140.159 57.2954 140.191 57.1673 140.228 57.0706C140.304 56.883 140.382 56.6734 140.468 56.5106C140.809 55.8325 141.188 55.3444 141.569 54.8924C142.334 53.9891 143.135 53.2819 143.947 52.5952C145.574 51.2433 147.269 50.0947 148.983 48.9937C150.696 47.8932 152.448 46.8817 154.216 45.9089C155.981 44.9322 157.775 44.0169 159.587 43.1436C163.211 41.3973 166.882 39.7544 170.69 38.3387C172.597 37.6348 174.537 36.9929 176.591 36.5258C177.628 36.3038 178.672 36.1043 179.847 36.0538C180.435 36.0291 181.049 36.0296 181.787 36.1767C181.966 36.2091 182.178 36.2758 182.37 36.3319C182.469 36.3619 182.588 36.4153 182.695 36.46C182.808 36.5119 182.905 36.5458 183.029 36.62C183.492 36.8729 184.033 37.3277 184.373 38.0001" fill="#FFD23C"/>
<path id="Fill 5_2" fill-rule="evenodd" clip-rule="evenodd" d="M175.582 40.6803C171.17 34.2206 162.637 31.8082 155.441 35.3487C147.998 39.0112 144.676 47.7253 147.421 55.4336C148.16 57.5098 154.136 55.0245 163.69 50.3372C169.92 47.281 176.703 44.3114 175.582 40.6803" fill="#FABE9B"/>
</g>
</g>
<g id="Group 16">
<g id="Group 12">
<mask id="mask6" mask-type="alpha" maskUnits="userSpaceOnUse" x="147" y="34" width="30" height="25">
<path id="Clip 11" fill-rule="evenodd" clip-rule="evenodd" d="M155.815 36.2395C148.04 40.1943 144.804 49.9884 148.588 58.1144V58.1144C148.633 58.2113 148.683 58.3034 148.729 58.3993V58.3993L176.873 44.0835C176.83 43.9861 176.79 43.8887 176.746 43.7923V43.7923C174.035 37.9723 168.458 34.5859 162.655 34.5854V34.5854C160.356 34.5849 158.022 35.1167 155.815 36.2395" fill="white"/>
</mask>
<g mask="url(#mask6)">
<path id="Fill 10" fill-rule="evenodd" clip-rule="evenodd" d="M168.597 34.742C168.351 35.0356 168.084 35.322 167.802 35.5958C166.815 36.549 165.705 37.3989 164.559 38.1901C162.263 39.7738 159.842 41.1801 157.38 42.4982C156.149 43.1587 154.901 43.785 153.63 44.3524C152.362 44.9252 151.08 45.4675 149.777 45.9251C148.533 46.3667 147.272 46.7615 146.007 47.0093C145.99 47.557 145.97 48.1042 145.944 48.6514C145.978 48.6475 146.013 48.6451 146.048 48.6413C147.513 48.4692 148.93 48.1466 150.315 47.7339C153.089 46.9105 155.746 45.7751 158.325 44.4773C160.893 43.1582 163.363 41.6126 165.645 39.7661C166.782 38.84 167.879 37.8492 168.887 36.7249C169.319 36.2447 169.728 35.7299 170.095 35.1552C169.592 35.0351 169.093 34.8968 168.597 34.742" fill="#D27350"/>
</g>
</g>
<g id="Group 15">
<mask id="mask7" mask-type="alpha" maskUnits="userSpaceOnUse" x="147" y="34" width="30" height="25">
<path id="Clip 14" fill-rule="evenodd" clip-rule="evenodd" d="M155.815 36.2395C148.04 40.1943 144.804 49.9884 148.588 58.1144V58.1144C148.633 58.2113 148.683 58.3034 148.729 58.3993V58.3993L176.873 44.0835C176.83 43.9861 176.79 43.8887 176.746 43.7923V43.7923C174.035 37.9723 168.458 34.5859 162.655 34.5854V34.5854C160.356 34.5849 158.022 35.1167 155.815 36.2395" fill="white"/>
</mask>
<g mask="url(#mask7)">
<path id="Fill 13" fill-rule="evenodd" clip-rule="evenodd" d="M175.025 36.1565C175.008 36.183 174.989 36.2076 174.976 36.2366C171.728 43.1973 156.785 54.1576 145.586 53.5034C145.499 54.3591 145.397 55.2139 145.286 56.0668C158.751 55.3904 173.957 45.2525 176.925 36.6574C176.299 36.468 175.665 36.2997 175.025 36.1565" fill="#D27350"/>
</g>
</g>
</g>
</g>
<rect id="Rectangle Copy 4" x="127" y="86" width="71" height="57" rx="3" fill="#FF8181"/>
<g id="Group 3 Copy 2">
<g id="Rectangle 2 Copy 3_3" filter="url(#filter6_d)">
<path fill-rule="evenodd" clip-rule="evenodd" d="M146.786 103.735C152.081 94.5645 163.808 91.4224 172.978 96.7171V96.7171C182.149 102.012 185.291 113.738 179.996 122.909L179.214 124.265C173.919 133.435 162.192 136.578 153.022 131.283V131.283C143.851 125.988 140.709 114.262 146.004 105.091L146.786 103.735Z" fill="#FFE14D"/>
</g>
<g id="Rectangle 3 Copy_5">
<path id="Mask_11" fill-rule="evenodd" clip-rule="evenodd" d="M149.427 105.323C153.875 97.6193 163.726 94.9798 171.43 99.4276V99.4276C179.134 103.875 181.773 113.726 177.325 121.43L176.799 122.342C172.351 130.046 162.5 132.685 154.796 128.237V128.237C147.093 123.789 144.453 113.939 148.901 106.235L149.427 105.323Z" fill="url(#paint3_linear)"/>
<mask id="mask8" mask-type="alpha" maskUnits="userSpaceOnUse" x="140" y="91" width="46" height="46">
<path id="Mask_12" fill-rule="evenodd" clip-rule="evenodd" d="M149.427 105.323C153.875 97.6193 163.726 94.9798 171.43 99.4276V99.4276C179.134 103.875 181.773 113.726 177.325 121.43L176.799 122.342C172.351 130.046 162.5 132.685 154.796 128.237V128.237C147.093 123.789 144.453 113.939 148.901 106.235L149.427 105.323Z" fill="white"/>
</mask>
<g mask="url(#mask8)">
</g>
</g>
<g id="Rectangle 3 Copy_6">
<path id="Mask_13" fill-rule="evenodd" clip-rule="evenodd" d="M151.814 107.046C155.523 100.621 163.739 98.4193 170.164 102.129V102.129C176.589 105.838 178.791 114.054 175.081 120.479L174.642 121.239C170.932 127.665 162.717 129.866 156.292 126.156V126.156C149.867 122.447 147.665 114.231 151.375 107.806L151.814 107.046Z" fill="#E37C1A"/>
<mask id="mask9" mask-type="alpha" maskUnits="userSpaceOnUse" x="144" y="95" width="38" height="38">
<path id="Mask_14" fill-rule="evenodd" clip-rule="evenodd" d="M151.814 107.046C155.523 100.621 163.739 98.4193 170.164 102.129V102.129C176.589 105.838 178.791 114.054 175.081 120.479L174.642 121.239C170.932 127.665 162.717 129.866 156.292 126.156V126.156C149.867 122.447 147.665 114.231 151.375 107.806L151.814 107.046Z" fill="white"/>
</mask>
<g mask="url(#mask9)">
</g>
</g>
<path id="$_3" fill-rule="evenodd" clip-rule="evenodd" d="M162.603 121.923C161.47 121.844 160.553 121.688 159.853 121.454C159.152 121.221 158.629 121.007 158.283 120.814L159.089 118.509C159.593 118.767 160.202 119.001 160.918 119.21C161.634 119.419 162.449 119.523 163.362 119.522C164.448 119.521 165.2 119.354 165.618 119.022C166.036 118.69 166.245 118.249 166.246 117.7C166.246 117.328 166.16 117.005 165.987 116.73C165.814 116.456 165.571 116.214 165.256 116.004C164.941 115.794 164.568 115.601 164.135 115.423C163.702 115.246 163.226 115.061 162.707 114.868C162.219 114.691 161.735 114.489 161.255 114.263C160.776 114.038 160.343 113.76 159.958 113.429C159.572 113.098 159.262 112.698 159.026 112.23C158.791 111.761 158.674 111.188 158.674 110.509C158.676 109.393 159 108.443 159.646 107.659C160.293 106.874 161.285 106.367 162.624 106.139L162.627 103.424L165.083 103.421L165.08 106.039C165.836 106.103 166.512 106.211 167.11 106.364C167.709 106.517 168.181 106.665 168.527 106.81L167.933 109.212C167.477 109.034 166.938 108.865 166.316 108.705C165.695 108.544 164.982 108.464 164.179 108.465C163.329 108.466 162.691 108.624 162.266 108.94C161.84 109.256 161.627 109.689 161.627 110.238C161.626 110.561 161.689 110.832 161.815 111.05C161.94 111.268 162.129 111.462 162.381 111.631C162.632 111.801 162.939 111.962 163.301 112.115C163.663 112.268 164.072 112.425 164.528 112.586C165.173 112.844 165.783 113.114 166.357 113.396C166.932 113.678 167.431 114.009 167.856 114.388C168.28 114.767 168.614 115.216 168.858 115.733C169.101 116.249 169.222 116.864 169.221 117.575C169.22 118.642 168.896 119.563 168.249 120.34C167.603 121.117 166.54 121.619 165.059 121.847L165.055 124.878L162.599 124.881L162.603 121.923Z" fill="#FFE14D"/>
</g>
<g id="Rectangle Copy 7" filter="url(#filter7_d)">
<rect x="127" y="150" width="71" height="56" rx="3" fill="#5D4ACB"/>
</g>
<g id="Group 17_2">
<g id="Group 9_2">
<mask id="mask10" mask-type="alpha" maskUnits="userSpaceOnUse" x="140" y="155" width="45" height="53">
<path id="Clip 1_2" fill-rule="evenodd" clip-rule="evenodd" d="M140 155.569H184.689V207.343H140V155.569Z" fill="white"/>
</mask>
<g mask="url(#mask10)">
<path id="Fill 2_2" fill-rule="evenodd" clip-rule="evenodd" d="M176.811 168.809C180.675 176.836 177.371 186.51 169.433 190.417C161.494 194.323 151.926 190.983 148.062 182.956C144.199 174.929 147.502 165.255 155.441 161.349C163.379 157.442 172.947 160.782 176.811 168.809" fill="#FABE9B"/>
<path id="Fill 3_6" fill-rule="evenodd" clip-rule="evenodd" d="M176.811 168.809C176.371 167.896 175.854 167.046 175.278 166.258C177.504 174.132 173.675 181.495 166.715 185.214C159.149 189.256 150.61 187.241 146.764 179.085C147.027 180.397 147.456 181.697 148.062 182.956C151.926 190.983 161.494 194.323 169.432 190.417C177.371 186.51 180.675 176.836 176.811 168.809" fill="#D27350"/>
<path id="Fill 4_2" fill-rule="evenodd" clip-rule="evenodd" d="M180.787 165.765C180.889 165.995 181.062 166.096 181.092 166.103C181.113 166.107 181.09 166.105 181.092 166.102C181.084 166.1 181.094 166.093 181.074 166.087C181.028 166.078 181.007 166.056 180.943 166.043C180.713 165.976 180.33 165.937 179.929 165.939C179.124 165.928 178.205 166.045 177.299 166.196C175.469 166.506 173.601 166.991 171.755 167.554C168.057 168.691 164.434 170.203 160.935 171.945C159.191 172.83 157.467 173.755 155.78 174.735C154.093 175.716 152.449 176.766 150.854 177.865C149.266 178.97 147.736 180.156 146.361 181.415C145.685 182.044 145.027 182.703 144.539 183.352C144.291 183.67 144.085 183.999 143.996 184.223C143.967 184.283 143.97 184.313 143.949 184.355C143.941 184.375 143.953 184.371 143.95 184.379C143.954 184.379 143.94 184.399 143.95 184.381C143.964 184.351 143.992 184.152 143.876 183.928C143.785 183.692 143.618 183.578 143.589 183.557C143.568 183.55 143.592 183.549 143.59 183.548C143.598 183.547 143.588 183.551 143.607 183.553C143.654 183.556 143.673 183.57 143.737 183.577C143.962 183.617 144.337 183.632 144.731 183.605C145.52 183.567 146.421 183.401 147.308 183.204C149.099 182.798 150.915 182.201 152.714 181.553C154.517 180.907 156.302 180.17 158.073 179.396C159.847 178.627 161.599 177.795 163.331 176.924C166.795 175.183 170.214 173.341 173.473 171.312C175.097 170.297 176.684 169.221 178.109 168.052C178.81 167.468 179.494 166.852 180.01 166.247C180.273 165.95 180.494 165.642 180.601 165.438C180.635 165.383 180.636 165.358 180.662 165.319C180.672 165.302 180.663 165.308 180.669 165.302C180.668 165.305 180.684 165.286 180.677 165.307C180.674 165.343 180.66 165.547 180.787 165.765M184.373 164C184.698 164.681 184.732 165.395 184.654 165.927C184.638 166.073 184.607 166.172 184.58 166.297C184.552 166.411 184.523 166.542 184.487 166.641C184.417 166.832 184.343 167.047 184.262 167.214C183.938 167.913 183.575 168.423 183.208 168.895C182.471 169.842 181.697 170.592 180.909 171.324C179.333 172.766 177.694 174.025 176.016 175.216C172.657 177.582 169.12 179.599 165.473 181.374C163.643 182.247 161.794 183.08 159.913 183.85C158.032 184.619 156.117 185.313 154.168 185.94C152.213 186.56 150.222 187.089 148.128 187.46C147.072 187.635 146.01 187.787 144.819 187.788C144.224 187.788 143.603 187.763 142.861 187.589C142.68 187.55 142.467 187.476 142.275 187.414C142.176 187.381 142.056 187.323 141.949 187.275C141.836 187.22 141.74 187.184 141.616 187.105C141.154 186.839 140.619 186.371 140.29 185.693C139.977 185.007 139.957 184.296 140.046 183.772C140.064 183.628 140.098 183.53 140.127 183.408C140.159 183.295 140.191 183.167 140.228 183.071C140.304 182.883 140.382 182.673 140.468 182.511C140.809 181.832 141.188 181.344 141.569 180.892C142.334 179.989 143.135 179.282 143.947 178.595C145.574 177.243 147.269 176.095 148.983 174.994C150.696 173.893 152.448 172.882 154.216 171.909C155.981 170.932 157.775 170.017 159.587 169.144C163.211 167.397 166.882 165.754 170.69 164.339C172.597 163.635 174.537 162.993 176.591 162.526C177.628 162.304 178.672 162.104 179.847 162.054C180.435 162.029 181.049 162.03 181.787 162.177C181.966 162.209 182.178 162.276 182.37 162.332C182.469 162.362 182.588 162.415 182.695 162.46C182.808 162.512 182.905 162.546 183.029 162.62C183.492 162.873 184.033 163.328 184.373 164" fill="#FFD23C"/>
<path id="Fill 5_3" fill-rule="evenodd" clip-rule="evenodd" d="M175.582 166.68C171.17 160.221 162.637 157.808 155.441 161.349C147.998 165.011 144.676 173.725 147.421 181.434C148.16 183.51 154.136 181.024 163.69 176.337C169.92 173.281 176.703 170.311 175.582 166.68" fill="#FABE9B"/>
</g>
</g>
<g id="Group 16_2">
<g id="Group 12_2">
<mask id="mask11" mask-type="alpha" maskUnits="userSpaceOnUse" x="147" y="160" width="30" height="25">
<path id="Clip 11_2" fill-rule="evenodd" clip-rule="evenodd" d="M155.815 162.24C148.04 166.194 144.804 175.988 148.588 184.114V184.114C148.633 184.211 148.683 184.303 148.729 184.399V184.399L176.873 170.083C176.83 169.986 176.79 169.889 176.746 169.792V169.792C174.035 163.972 168.458 160.586 162.655 160.585V160.585C160.356 160.585 158.022 161.117 155.815 162.24" fill="white"/>
</mask>
<g mask="url(#mask11)">
<path id="Fill 10_2" fill-rule="evenodd" clip-rule="evenodd" d="M168.597 160.742C168.351 161.036 168.084 161.322 167.802 161.596C166.815 162.549 165.705 163.399 164.559 164.19C162.263 165.774 159.842 167.18 157.38 168.498C156.149 169.159 154.901 169.785 153.63 170.352C152.362 170.925 151.08 171.468 149.777 171.925C148.533 172.367 147.272 172.762 146.007 173.009C145.99 173.557 145.97 174.104 145.944 174.651C145.978 174.648 146.013 174.645 146.048 174.641C147.513 174.469 148.93 174.147 150.315 173.734C153.089 172.91 155.746 171.775 158.325 170.477C160.893 169.158 163.363 167.613 165.645 165.766C166.782 164.84 167.879 163.849 168.887 162.725C169.319 162.245 169.728 161.73 170.095 161.155C169.592 161.035 169.093 160.897 168.597 160.742" fill="#D27350"/>
</g>
</g>
<g id="Group 15_2">
<mask id="mask12" mask-type="alpha" maskUnits="userSpaceOnUse" x="147" y="160" width="30" height="25">
<path id="Clip 14_2" fill-rule="evenodd" clip-rule="evenodd" d="M155.815 162.24C148.04 166.194 144.804 175.988 148.588 184.114V184.114C148.633 184.211 148.683 184.303 148.729 184.399V184.399L176.873 170.083C176.83 169.986 176.79 169.889 176.746 169.792V169.792C174.035 163.972 168.458 160.586 162.655 160.585V160.585C160.356 160.585 158.022 161.117 155.815 162.24" fill="white"/>
</mask>
<g mask="url(#mask12)">
<path id="Fill 13_2" fill-rule="evenodd" clip-rule="evenodd" d="M175.025 162.157C175.008 162.183 174.989 162.208 174.976 162.237C171.728 169.197 156.785 180.158 145.586 179.503C145.499 180.359 145.397 181.214 145.286 182.067C158.751 181.39 173.957 171.253 176.925 162.657C176.299 162.468 175.665 162.3 175.025 162.157" fill="#D27350"/>
</g>
</g>
</g>
</g>
<g id="Group 17_3">
<g id="Group 9_3">
<mask id="mask13" mask-type="alpha" maskUnits="userSpaceOnUse" x="62" y="155" width="45" height="53">
<path id="Clip 1_3" fill-rule="evenodd" clip-rule="evenodd" d="M62.0001 155.569H106.689V207.343H62.0001V155.569Z" fill="white"/>
</mask>
<g mask="url(#mask13)">
<path id="Fill 2_3" fill-rule="evenodd" clip-rule="evenodd" d="M98.8107 168.809C102.675 176.836 99.3707 186.51 91.4325 190.417C83.4938 194.323 73.9261 190.983 70.0622 182.956C66.1989 174.929 69.5022 165.255 77.4409 161.349C85.3791 157.442 94.9474 160.782 98.8107 168.809" fill="#FABE9B"/>
<path id="Fill 3_7" fill-rule="evenodd" clip-rule="evenodd" d="M98.8107 168.809C98.3708 167.896 97.8541 167.046 97.2777 166.258C99.5044 174.132 95.675 181.495 88.7145 185.214C81.1488 189.256 72.6097 187.241 68.7637 179.085C69.027 180.397 69.4561 181.697 70.0622 182.956C73.926 190.983 83.4938 194.323 91.4325 190.417C99.3707 186.51 102.675 176.836 98.8107 168.809" fill="#D27350"/>
<path id="Fill 4_3" fill-rule="evenodd" clip-rule="evenodd" d="M102.787 165.765C102.889 165.995 103.062 166.096 103.092 166.103C103.113 166.107 103.09 166.105 103.092 166.102C103.084 166.1 103.094 166.093 103.074 166.087C103.028 166.078 103.007 166.056 102.943 166.043C102.713 165.976 102.33 165.937 101.929 165.939C101.124 165.928 100.205 166.045 99.2988 166.196C97.4691 166.506 95.6012 166.991 93.755 167.554C90.0574 168.691 86.4338 170.203 82.9349 171.945C81.1909 172.83 79.4672 173.755 77.7797 174.735C76.0927 175.716 74.4485 176.766 72.8543 177.865C71.2662 178.97 69.7355 180.156 68.3608 181.415C67.6849 182.044 67.0265 182.703 66.5386 183.352C66.2908 183.67 66.085 183.999 65.9955 184.223C65.9668 184.283 65.9701 184.313 65.9489 184.355C65.9414 184.375 65.9527 184.371 65.9499 184.379C65.9536 184.379 65.9404 184.399 65.9503 184.381C65.9635 184.351 65.9918 184.152 65.8764 183.928C65.785 183.692 65.6183 183.578 65.5886 183.557C65.5679 183.55 65.5924 183.549 65.59 183.548C65.5976 183.547 65.5877 183.551 65.6075 183.553C65.6536 183.556 65.6734 183.57 65.7365 183.577C65.9616 183.617 66.3375 183.632 66.7307 183.605C67.5201 183.567 68.421 183.401 69.3079 183.204C71.0985 182.798 72.9146 182.201 74.7141 181.553C76.517 180.907 78.3015 180.17 80.0728 179.396C81.8465 178.627 83.599 177.795 85.3312 176.924C88.7947 175.183 92.2135 173.341 95.4726 171.312C97.097 170.297 98.6837 169.221 100.109 168.052C100.81 167.468 101.494 166.852 102.01 166.247C102.273 165.95 102.494 165.642 102.601 165.438C102.635 165.383 102.636 165.358 102.662 165.319C102.672 165.302 102.663 165.308 102.669 165.302C102.668 165.305 102.684 165.286 102.677 165.307C102.674 165.343 102.66 165.547 102.787 165.765M106.373 164C106.698 164.681 106.732 165.395 106.654 165.927C106.638 166.073 106.607 166.172 106.58 166.297C106.552 166.411 106.523 166.542 106.487 166.641C106.417 166.832 106.343 167.047 106.262 167.214C105.938 167.913 105.575 168.423 105.208 168.895C104.471 169.842 103.697 170.592 102.909 171.324C101.333 172.766 99.6939 174.025 98.0163 175.216C94.6569 177.582 91.1204 179.599 87.4732 181.374C85.6435 182.247 83.7935 183.08 81.9134 183.85C80.0323 184.619 78.1174 185.313 76.1676 185.94C74.213 186.56 72.2222 187.089 70.1283 187.46C69.0724 187.635 68.0104 187.787 66.8193 187.788C66.2244 187.788 65.6032 187.763 64.8605 187.589C64.6801 187.55 64.4668 187.476 64.2746 187.414C64.1762 187.381 64.0561 187.323 63.9492 187.275C63.8361 187.22 63.7396 187.184 63.6162 187.105C63.1542 186.839 62.6192 186.371 62.2904 185.693C61.9772 185.007 61.957 184.296 62.046 183.772C62.0644 183.628 62.0983 183.53 62.1275 183.408C62.1586 183.295 62.1906 183.167 62.2283 183.071C62.3036 182.883 62.3823 182.673 62.468 182.511C62.809 181.832 63.1881 181.344 63.5691 180.892C64.3344 179.989 65.1351 179.282 65.947 178.595C67.5738 177.243 69.2693 176.095 70.9831 174.994C72.696 173.893 74.448 172.882 76.2156 171.909C77.9808 170.932 79.7747 170.017 81.5865 169.144C85.2111 167.397 88.8823 165.754 92.6897 164.339C94.5971 163.635 96.5365 162.993 98.5914 162.526C99.6275 162.304 100.672 162.104 101.847 162.054C102.435 162.029 103.049 162.03 103.787 162.177C103.966 162.209 104.178 162.276 104.37 162.332C104.469 162.362 104.588 162.415 104.695 162.46C104.808 162.512 104.905 162.546 105.029 162.62C105.492 162.873 106.033 163.328 106.373 164" fill="#FFD23C"/>
<path id="Fill 5_4" fill-rule="evenodd" clip-rule="evenodd" d="M97.5817 166.68C93.1702 160.221 84.6367 157.808 77.4407 161.349C69.9984 165.011 66.6762 173.725 69.421 181.434C70.1604 183.51 76.1356 181.024 85.6902 176.337C91.9202 173.281 98.7031 170.311 97.5817 166.68" fill="#FABE9B"/>
</g>
</g>
<g id="Group 16_3">
<g id="Group 12_3">
<mask id="mask14" mask-type="alpha" maskUnits="userSpaceOnUse" x="69" y="160" width="30" height="25">
<path id="Clip 11_3" fill-rule="evenodd" clip-rule="evenodd" d="M77.8151 162.24C70.0398 166.194 66.8044 175.988 70.5883 184.114V184.114C70.6335 184.211 70.6828 184.303 70.7294 184.399V184.399L98.8725 170.083C98.8296 169.986 98.7904 169.889 98.7457 169.792V169.792C96.0352 163.972 90.4583 160.586 84.6554 160.585V160.585C82.356 160.585 80.0219 161.117 77.8151 162.24" fill="white"/>
</mask>
<g mask="url(#mask14)">
<path id="Fill 10_3" fill-rule="evenodd" clip-rule="evenodd" d="M90.5972 160.742C90.3509 161.036 90.0843 161.322 89.8025 161.596C88.8153 162.549 87.7046 163.399 86.5587 164.19C84.2634 165.774 81.8422 167.18 79.3803 168.498C78.1492 169.159 76.9009 169.785 75.6297 170.352C74.3616 170.925 73.0797 171.468 71.7766 171.925C70.5325 172.367 69.2723 172.762 68.0065 173.009C67.9904 173.557 67.9696 174.104 67.9443 174.651C67.9784 174.648 68.0135 174.645 68.0476 174.641C69.5126 174.469 70.9297 174.147 72.3154 173.734C75.0886 172.91 77.7465 171.775 80.325 170.477C82.8934 169.158 85.3631 167.613 87.6446 165.766C88.7817 164.84 89.8795 163.849 90.8874 162.725C91.3187 162.245 91.7278 161.73 92.095 161.155C91.5918 161.035 91.0927 160.897 90.5972 160.742" fill="#D27350"/>
</g>
</g>
<g id="Group 15_3">
<mask id="mask15" mask-type="alpha" maskUnits="userSpaceOnUse" x="69" y="160" width="30" height="25">
<path id="Clip 14_3" fill-rule="evenodd" clip-rule="evenodd" d="M77.8151 162.24C70.0398 166.194 66.8044 175.988 70.5883 184.114V184.114C70.6335 184.211 70.6828 184.303 70.7294 184.399V184.399L98.8725 170.083C98.8296 169.986 98.7904 169.889 98.7457 169.792V169.792C96.0352 163.972 90.4583 160.586 84.6554 160.585V160.585C82.356 160.585 80.0219 161.117 77.8151 162.24" fill="white"/>
</mask>
<g mask="url(#mask15)">
<path id="Fill 13_3" fill-rule="evenodd" clip-rule="evenodd" d="M97.0245 162.157C97.0079 162.183 96.989 162.208 96.9756 162.237C93.7282 169.197 78.7851 180.158 67.5857 179.503C67.4985 180.359 67.3975 181.214 67.2863 182.067C80.7511 181.39 95.9567 171.253 98.9255 162.657C98.2986 162.468 97.6653 162.3 97.0245 162.157" fill="#D27350"/>
</g>
</g>
</g>
</g>
<g id="Group 17 Copy">
<g id="Group 9_4">
<mask id="mask16" mask-type="alpha" maskUnits="userSpaceOnUse" x="-16" y="155" width="45" height="53">
<path id="Clip 1_4" fill-rule="evenodd" clip-rule="evenodd" d="M-15.9998 155.569H28.689V207.343H-15.9998V155.569Z" fill="white"/>
</mask>
<g mask="url(#mask16)">
<path id="Fill 2_4" fill-rule="evenodd" clip-rule="evenodd" d="M20.8107 168.809C24.6745 176.836 21.3707 186.51 13.4325 190.417C5.4938 194.323 -4.07396 190.983 -7.9378 182.956C-11.8012 174.929 -8.49778 165.255 -0.559111 161.349C7.37909 157.442 16.9473 160.782 20.8107 168.809" fill="#FABE9B"/>
<path id="Fill 3_8" fill-rule="evenodd" clip-rule="evenodd" d="M20.8107 168.809C20.3708 167.896 19.8541 167.046 19.2777 166.258C21.5044 174.132 17.675 181.495 10.7145 185.214C3.14884 189.256 -5.39032 187.241 -9.23627 179.085C-8.97299 180.397 -8.54394 181.697 -7.9378 182.956C-4.07396 190.983 5.4938 194.323 13.4325 190.417C21.3707 186.51 24.6745 176.836 20.8107 168.809" fill="#D27350"/>
<path id="Fill 4_4" fill-rule="evenodd" clip-rule="evenodd" d="M24.7868 165.765C24.8895 165.995 25.0619 166.096 25.0925 166.103C25.1132 166.107 25.0897 166.105 25.0915 166.102C25.0845 166.1 25.0939 166.093 25.0741 166.087C25.028 166.078 25.0068 166.056 24.9427 166.043C24.7129 165.976 24.33 165.937 23.9292 165.939C23.1243 165.928 22.2054 166.045 21.2988 166.196C19.4691 166.506 17.6012 166.991 15.755 167.554C12.0574 168.691 8.4338 170.203 4.93496 171.945C3.19096 172.83 1.46721 173.755 -0.220278 174.735C-1.90729 175.716 -3.55145 176.766 -5.14568 177.865C-6.7338 178.97 -8.26445 180.156 -9.63921 181.415C-10.3151 182.044 -10.9735 182.703 -11.4614 183.352C-11.7091 183.67 -11.9149 183.999 -12.0044 184.223C-12.0332 184.283 -12.0299 184.313 -12.051 184.355C-12.0586 184.375 -12.0473 184.371 -12.0501 184.379C-12.0463 184.379 -12.0595 184.399 -12.0496 184.381C-12.0364 184.351 -12.0082 184.152 -12.1236 183.928C-12.2149 183.692 -12.3817 183.578 -12.4113 183.557C-12.4321 183.55 -12.4076 183.549 -12.4099 183.548C-12.4024 183.547 -12.4123 183.551 -12.3925 183.553C-12.3463 183.556 -12.3266 183.57 -12.2635 183.577C-12.0383 183.617 -11.6625 183.632 -11.2692 183.605C-10.4799 183.567 -9.57893 183.401 -8.69209 183.204C-6.90146 182.798 -5.0854 182.201 -3.28582 181.553C-1.48295 180.907 0.301557 180.17 2.07288 179.396C3.84655 178.627 5.59903 177.795 7.33126 176.924C10.7948 175.183 14.2135 173.341 17.4727 171.312C19.097 170.297 20.6837 169.221 22.1089 168.052C22.8097 167.468 23.494 166.852 24.0102 166.247C24.273 165.95 24.4939 165.642 24.6008 165.438C24.6347 165.383 24.6356 165.358 24.6615 165.319C24.6719 165.302 24.663 165.308 24.6686 165.302C24.6677 165.305 24.6837 165.286 24.6766 165.307C24.6738 165.343 24.6597 165.547 24.7868 165.765M28.3728 164C28.6978 164.681 28.7317 165.395 28.654 165.927C28.638 166.073 28.6069 166.172 28.5805 166.297C28.5518 166.411 28.5226 166.542 28.4872 166.641C28.4171 166.832 28.3431 167.047 28.2621 167.214C27.9381 167.913 27.575 168.423 27.2081 168.895C26.4715 169.842 25.6972 170.592 24.9088 171.324C23.3329 172.766 21.694 174.025 20.0164 175.216C16.6569 177.582 13.1204 179.599 9.47323 181.374C7.64351 182.247 5.79354 183.08 3.91343 183.85C2.03237 184.619 0.117408 185.313 -1.83241 185.94C-3.78694 186.56 -5.77773 187.089 -7.87166 187.46C-8.92757 187.635 -9.98961 187.787 -11.1807 187.788C-11.7755 187.788 -12.3967 187.763 -13.1395 187.589C-13.3198 187.55 -13.5332 187.476 -13.7253 187.414C-13.8238 187.381 -13.9439 187.323 -14.0508 187.275C-14.1638 187.22 -14.2604 187.184 -14.3838 187.105C-14.8458 186.839 -15.3808 186.371 -15.7095 185.693C-16.0227 185.007 -16.043 184.296 -15.954 183.772C-15.9356 183.628 -15.9017 183.53 -15.8725 183.408C-15.8414 183.295 -15.8094 183.167 -15.7717 183.071C-15.6964 182.883 -15.6177 182.673 -15.532 182.511C-15.191 181.832 -14.8119 181.344 -14.4309 180.892C-13.6655 179.989 -12.8649 179.282 -12.0529 178.595C-10.4262 177.243 -8.73071 176.095 -7.01685 174.994C-5.30393 173.893 -3.55192 172.882 -1.78437 171.909C-0.0191731 170.932 1.77475 170.017 3.58657 169.144C7.21116 167.397 10.8824 165.754 14.6897 164.339C16.5971 163.635 18.5366 162.993 20.5914 162.526C21.6276 162.304 22.6717 162.104 23.8472 162.054C24.4345 162.029 25.0487 162.03 25.7867 162.177C25.9661 162.209 26.1781 162.276 26.3702 162.332C26.4687 162.362 26.5883 162.415 26.6952 162.46C26.8082 162.512 26.9053 162.546 27.0286 162.62C27.4921 162.873 28.0328 163.328 28.3728 164" fill="#FFD23C"/>
<path id="Fill 5_5" fill-rule="evenodd" clip-rule="evenodd" d="M19.5817 166.68C15.1702 160.221 6.63666 157.808 -0.559294 161.349C-8.00156 165.011 -11.3238 173.725 -8.57897 181.434C-7.83955 183.51 -1.86435 181.024 7.69022 176.337C13.9202 173.281 20.7031 170.311 19.5817 166.68" fill="#FABE9B"/>
</g>
</g>
<g id="Group 16_4">
<g id="Group 12_4">
<mask id="mask17" mask-type="alpha" maskUnits="userSpaceOnUse" x="-9" y="160" width="30" height="25">
<path id="Clip 11_4" fill-rule="evenodd" clip-rule="evenodd" d="M-0.184879 162.24C-7.96021 166.194 -11.1956 175.988 -7.41174 184.114V184.114C-7.36654 184.211 -7.31718 184.303 -7.27059 184.399V184.399L20.8725 170.083C20.8296 169.986 20.7904 169.889 20.7457 169.792V169.792C18.0352 163.972 12.4583 160.586 6.65543 160.585V160.585C4.35596 160.585 2.02188 161.117 -0.184879 162.24" fill="white"/>
</mask>
<g mask="url(#mask17)">
<path id="Fill 10_4" fill-rule="evenodd" clip-rule="evenodd" d="M12.5973 160.742C12.351 161.036 12.0843 161.322 11.8025 161.596C10.8154 162.549 9.7046 163.399 8.55878 164.19C6.26345 165.774 3.84219 167.18 1.38035 168.498C0.149191 169.159 -1.09903 169.785 -2.37032 170.352C-3.63837 170.925 -4.92027 171.468 -6.22338 171.925C-7.46746 172.367 -8.72767 172.762 -9.99342 173.009C-10.0096 173.557 -10.0303 174.104 -10.0557 174.651C-10.0216 174.648 -9.9865 174.645 -9.95237 174.641C-8.48734 174.469 -7.07029 174.147 -5.68461 173.734C-2.9114 172.91 -0.253506 171.775 2.32505 170.477C4.89345 169.158 7.36314 167.613 9.64463 165.766C10.7817 164.84 11.8795 163.849 12.8874 162.725C13.3187 162.245 13.7279 161.73 14.0951 161.155C13.5918 161.035 13.0927 160.897 12.5973 160.742" fill="#D27350"/>
</g>
</g>
<g id="Group 15_4">
<mask id="mask18" mask-type="alpha" maskUnits="userSpaceOnUse" x="-9" y="160" width="30" height="25">
<path id="Clip 14_4" fill-rule="evenodd" clip-rule="evenodd" d="M-0.184879 162.24C-7.96021 166.194 -11.1956 175.988 -7.41174 184.114V184.114C-7.36654 184.211 -7.31718 184.303 -7.27059 184.399V184.399L20.8725 170.083C20.8296 169.986 20.7904 169.889 20.7457 169.792V169.792C18.0352 163.972 12.4583 160.586 6.65543 160.585V160.585C4.35596 160.585 2.02188 161.117 -0.184879 162.24" fill="white"/>
</mask>
<g mask="url(#mask18)">
<path id="Fill 13_4" fill-rule="evenodd" clip-rule="evenodd" d="M19.0245 162.157C19.0079 162.183 18.989 162.208 18.9756 162.237C15.7282 169.197 0.78509 180.158 -10.4143 179.503C-10.5015 180.359 -10.6025 181.214 -10.7137 182.067C2.75106 181.39 17.9567 171.253 20.9255 162.657C20.2986 162.468 19.6653 162.3 19.0245 162.157" fill="#D27350"/>
</g>
</g>
</g>
</g>
<g id="Group 17 Copy 2">
<g id="Group 9_5">
<mask id="mask19" mask-type="alpha" maskUnits="userSpaceOnUse" x="-16" y="30" width="45" height="53">
<path id="Clip 1_5" fill-rule="evenodd" clip-rule="evenodd" d="M-15.9998 30.5686H28.689V82.3427H-15.9998V30.5686Z" fill="white"/>
</mask>
<g mask="url(#mask19)">
<path id="Fill 2_5" fill-rule="evenodd" clip-rule="evenodd" d="M20.8107 43.8093C24.6745 51.8361 21.3707 61.5097 13.4325 65.417C5.4938 69.3233 -4.07396 65.9832 -7.9378 57.9563C-11.8012 49.9294 -8.49778 40.2554 -0.559111 36.3486C7.37909 32.4423 16.9473 35.7824 20.8107 43.8093" fill="#FABE9B"/>
<path id="Fill 3_9" fill-rule="evenodd" clip-rule="evenodd" d="M20.8107 43.8093C20.3708 42.8959 19.8541 42.0464 19.2777 41.2582C21.5044 49.1318 17.675 56.4953 10.7145 60.2145C3.14884 64.256 -5.39032 62.2412 -9.23627 54.0852C-8.97299 55.3967 -8.54394 56.6967 -7.9378 57.9563C-4.07396 65.9832 5.4938 69.3233 13.4325 65.417C21.3707 61.5097 24.6745 51.8361 20.8107 43.8093" fill="#D27350"/>
<path id="Fill 4_5" fill-rule="evenodd" clip-rule="evenodd" d="M24.7868 40.7649C24.8895 40.9949 25.0619 41.0959 25.0925 41.1035C25.1132 41.1068 25.0897 41.1049 25.0915 41.102C25.0845 41.0997 25.0939 41.093 25.0741 41.0873C25.028 41.0778 25.0068 41.0563 24.9427 41.0425C24.7129 40.9763 24.33 40.9373 23.9292 40.9387C23.1243 40.9278 22.2054 41.0454 21.2988 41.1963C19.4691 41.5063 17.6012 41.9911 15.755 42.5535C12.0574 43.6912 8.4338 45.2026 4.93496 46.9451C3.19096 47.8303 1.46721 48.7546 -0.220278 49.7351C-1.90729 50.7161 -3.55145 51.7661 -5.14568 52.8652C-6.7338 53.9695 -8.26445 55.1558 -9.63921 56.4148C-10.3151 57.0444 -10.9735 57.703 -11.4614 58.3516C-11.7091 58.6697 -11.9149 58.9992 -12.0044 59.2235C-12.0332 59.2825 -12.0299 59.3125 -12.051 59.3554C-12.0586 59.3749 -12.0473 59.3711 -12.0501 59.3792C-12.0463 59.3787 -12.0595 59.3992 -12.0496 59.3806C-12.0364 59.3511 -12.0082 59.152 -12.1236 58.9282C-12.2149 58.692 -12.3817 58.5777 -12.4113 58.5568C-12.4321 58.5501 -12.4076 58.5492 -12.4099 58.5482C-12.4024 58.5473 -12.4123 58.5506 -12.3925 58.553C-12.3463 58.5558 -12.3266 58.5701 -12.2635 58.5773C-12.0383 58.6173 -11.6625 58.6316 -11.2692 58.6049C-10.4799 58.5668 -9.57893 58.4011 -8.69209 58.2039C-6.90146 57.7977 -5.0854 57.2006 -3.28582 56.5534C-1.48295 55.9067 0.301557 55.17 2.07288 54.3957C3.84655 53.6267 5.59903 52.7947 7.33126 51.9238C10.7948 50.1828 14.2135 48.3413 17.4727 46.3117C19.097 45.2969 20.6837 44.2212 22.1089 43.0521C22.8097 42.4678 23.494 41.8521 24.0102 41.2468C24.273 40.9501 24.4939 40.642 24.6008 40.4377C24.6347 40.383 24.6356 40.3582 24.6615 40.3192C24.6719 40.302 24.663 40.3082 24.6686 40.3025C24.6677 40.3054 24.6837 40.2863 24.6766 40.3068C24.6738 40.3435 24.6597 40.5468 24.7868 40.7649M28.3728 39.0001C28.6978 39.6806 28.7317 40.3949 28.654 40.9268C28.638 41.0725 28.6069 41.172 28.5805 41.2968C28.5518 41.4111 28.5226 41.5416 28.4872 41.6406C28.4171 41.8321 28.3431 42.0473 28.2621 42.2145C27.9381 42.9126 27.575 43.4226 27.2081 43.895C26.4715 44.8417 25.6972 45.5922 24.9088 46.3236C23.3329 47.7656 21.694 49.0246 20.0164 50.2156C16.6569 52.5824 13.1204 54.5986 9.47323 56.3739C7.64351 57.2472 5.79354 58.0796 3.91343 58.8497C2.03237 59.6187 0.117408 60.3126 -1.83241 60.9402C-3.78694 61.5597 -5.77773 62.0888 -7.87166 62.4602C-8.92757 62.6355 -9.98961 62.7874 -11.1807 62.7883C-11.7755 62.7883 -12.3967 62.7626 -13.1395 62.5893C-13.3198 62.5502 -13.5332 62.4764 -13.7253 62.414C-13.8238 62.3812 -13.9439 62.3231 -14.0508 62.2755C-14.1638 62.2202 -14.2604 62.1836 -14.3838 62.1055C-14.8458 61.8393 -15.3808 61.3707 -15.7095 60.693C-16.0227 60.0068 -16.043 59.2963 -15.954 58.7716C-15.9356 58.6282 -15.9017 58.5301 -15.8725 58.4077C-15.8414 58.2954 -15.8094 58.1673 -15.7717 58.0706C-15.6964 57.883 -15.6177 57.6734 -15.532 57.5106C-15.191 56.8325 -14.8119 56.3444 -14.4309 55.8924C-13.6655 54.9891 -12.8649 54.2819 -12.0529 53.5952C-10.4262 52.2433 -8.73071 51.0947 -7.01685 49.9937C-5.30393 48.8932 -3.55192 47.8817 -1.78437 46.9089C-0.0191731 45.9322 1.77475 45.0169 3.58657 44.1436C7.21116 42.3973 10.8824 40.7544 14.6897 39.3387C16.5971 38.6348 18.5366 37.9929 20.5914 37.5258C21.6276 37.3038 22.6717 37.1043 23.8472 37.0538C24.4345 37.0291 25.0487 37.0296 25.7867 37.1767C25.9661 37.2091 26.1781 37.2758 26.3702 37.3319C26.4687 37.3619 26.5883 37.4153 26.6952 37.46C26.8082 37.5119 26.9053 37.5458 27.0286 37.62C27.4921 37.8729 28.0328 38.3277 28.3728 39.0001" fill="#FFD23C"/>
<path id="Fill 5_6" fill-rule="evenodd" clip-rule="evenodd" d="M19.5817 41.6803C15.1702 35.2206 6.63666 32.8082 -0.559294 36.3487C-8.00156 40.0112 -11.3238 48.7253 -8.57897 56.4336C-7.83955 58.5098 -1.86435 56.0245 7.69022 51.3372C13.9202 48.281 20.7031 45.3114 19.5817 41.6803" fill="#FABE9B"/>
</g>
</g>
<g id="Group 16_5">
<g id="Group 12_5">
<mask id="mask20" mask-type="alpha" maskUnits="userSpaceOnUse" x="-9" y="35" width="30" height="25">
<path id="Clip 11_5" fill-rule="evenodd" clip-rule="evenodd" d="M-0.184879 37.2395C-7.96021 41.1943 -11.1956 50.9884 -7.41174 59.1144V59.1144C-7.36654 59.2113 -7.31718 59.3034 -7.27059 59.3993V59.3993L20.8725 45.0835C20.8296 44.9861 20.7904 44.8887 20.7457 44.7923V44.7923C18.0352 38.9723 12.4583 35.5859 6.65543 35.5854V35.5854C4.35596 35.5849 2.02188 36.1167 -0.184879 37.2395" fill="white"/>
</mask>
<g mask="url(#mask20)">
<path id="Fill 10_5" fill-rule="evenodd" clip-rule="evenodd" d="M12.5973 35.742C12.351 36.0356 12.0843 36.322 11.8025 36.5958C10.8154 37.549 9.7046 38.3989 8.55878 39.1901C6.26345 40.7738 3.84219 42.1801 1.38035 43.4982C0.149191 44.1587 -1.09903 44.785 -2.37032 45.3524C-3.63837 45.9252 -4.92027 46.4675 -6.22338 46.9251C-7.46746 47.3667 -8.72767 47.7615 -9.99342 48.0093C-10.0096 48.557 -10.0303 49.1042 -10.0557 49.6514C-10.0216 49.6475 -9.9865 49.6451 -9.95237 49.6413C-8.48734 49.4692 -7.07029 49.1466 -5.68461 48.7339C-2.9114 47.9105 -0.253506 46.7751 2.32505 45.4773C4.89345 44.1582 7.36314 42.6126 9.64463 40.7661C10.7817 39.84 11.8795 38.8492 12.8874 37.7249C13.3187 37.2447 13.7279 36.7299 14.0951 36.1552C13.5918 36.0351 13.0927 35.8968 12.5973 35.742" fill="#D27350"/>
</g>
</g>
<g id="Group 15_5">
<mask id="mask21" mask-type="alpha" maskUnits="userSpaceOnUse" x="-9" y="35" width="30" height="25">
<path id="Clip 14_5" fill-rule="evenodd" clip-rule="evenodd" d="M-0.184879 37.2395C-7.96021 41.1943 -11.1956 50.9884 -7.41174 59.1144V59.1144C-7.36654 59.2113 -7.31718 59.3034 -7.27059 59.3993V59.3993L20.8725 45.0835C20.8296 44.9861 20.7904 44.8887 20.7457 44.7923V44.7923C18.0352 38.9723 12.4583 35.5859 6.65543 35.5854V35.5854C4.35596 35.5849 2.02188 36.1167 -0.184879 37.2395" fill="white"/>
</mask>
<g mask="url(#mask21)">
<path id="Fill 13_5" fill-rule="evenodd" clip-rule="evenodd" d="M19.0245 37.1565C19.0079 37.183 18.989 37.2076 18.9756 37.2366C15.7282 44.1973 0.78509 55.1576 -10.4143 54.5034C-10.5015 55.3591 -10.6025 56.2139 -10.7137 57.0668C2.75106 56.3904 17.9567 46.2525 20.9255 37.6574C20.2986 37.468 19.6653 37.2997 19.0245 37.1565" fill="#D27350"/>
</g>
</g>
</g>
</g>
<g id="Group 17 Copy 3">
<g id="Group 9_6">
<mask id="mask22" mask-type="alpha" maskUnits="userSpaceOnUse" x="-16" y="94" width="45" height="53">
<path id="Clip 1_6" fill-rule="evenodd" clip-rule="evenodd" d="M-15.9998 94.5686H28.689V146.343H-15.9998V94.5686Z" fill="white"/>
</mask>
<g mask="url(#mask22)">
<path id="Fill 2_6" fill-rule="evenodd" clip-rule="evenodd" d="M20.8107 107.809C24.6745 115.836 21.3707 125.51 13.4325 129.417C5.4938 133.323 -4.07396 129.983 -7.9378 121.956C-11.8012 113.929 -8.49778 104.255 -0.559111 100.349C7.37909 96.4423 16.9473 99.7824 20.8107 107.809" fill="#FABE9B"/>
<path id="Fill 3_10" fill-rule="evenodd" clip-rule="evenodd" d="M20.8107 107.809C20.3708 106.896 19.8541 106.046 19.2777 105.258C21.5044 113.132 17.675 120.495 10.7145 124.214C3.14884 128.256 -5.39032 126.241 -9.23627 118.085C-8.97299 119.397 -8.54394 120.697 -7.9378 121.956C-4.07396 129.983 5.4938 133.323 13.4325 129.417C21.3707 125.51 24.6745 115.836 20.8107 107.809" fill="#D27350"/>
<path id="Fill 4_6" fill-rule="evenodd" clip-rule="evenodd" d="M24.7868 104.765C24.8895 104.995 25.0619 105.096 25.0925 105.103C25.1132 105.107 25.0897 105.105 25.0915 105.102C25.0845 105.1 25.0939 105.093 25.0741 105.087C25.028 105.078 25.0068 105.056 24.9427 105.043C24.7129 104.976 24.33 104.937 23.9292 104.939C23.1243 104.928 22.2054 105.045 21.2988 105.196C19.4691 105.506 17.6012 105.991 15.755 106.554C12.0574 107.691 8.4338 109.203 4.93496 110.945C3.19096 111.83 1.46721 112.755 -0.220278 113.735C-1.90729 114.716 -3.55145 115.766 -5.14568 116.865C-6.7338 117.97 -8.26445 119.156 -9.63921 120.415C-10.3151 121.044 -10.9735 121.703 -11.4614 122.352C-11.7091 122.67 -11.9149 122.999 -12.0044 123.223C-12.0332 123.283 -12.0299 123.313 -12.051 123.355C-12.0586 123.375 -12.0473 123.371 -12.0501 123.379C-12.0463 123.379 -12.0595 123.399 -12.0496 123.381C-12.0364 123.351 -12.0082 123.152 -12.1236 122.928C-12.2149 122.692 -12.3817 122.578 -12.4113 122.557C-12.4321 122.55 -12.4076 122.549 -12.4099 122.548C-12.4024 122.547 -12.4123 122.551 -12.3925 122.553C-12.3463 122.556 -12.3266 122.57 -12.2635 122.577C-12.0383 122.617 -11.6625 122.632 -11.2692 122.605C-10.4799 122.567 -9.57893 122.401 -8.69209 122.204C-6.90146 121.798 -5.0854 121.201 -3.28582 120.553C-1.48295 119.907 0.301557 119.17 2.07288 118.396C3.84655 117.627 5.59903 116.795 7.33126 115.924C10.7948 114.183 14.2135 112.341 17.4727 110.312C19.097 109.297 20.6837 108.221 22.1089 107.052C22.8097 106.468 23.494 105.852 24.0102 105.247C24.273 104.95 24.4939 104.642 24.6008 104.438C24.6347 104.383 24.6356 104.358 24.6615 104.319C24.6719 104.302 24.663 104.308 24.6686 104.302C24.6677 104.305 24.6837 104.286 24.6766 104.307C24.6738 104.343 24.6597 104.547 24.7868 104.765M28.3728 103C28.6978 103.681 28.7317 104.395 28.654 104.927C28.638 105.073 28.6069 105.172 28.5805 105.297C28.5518 105.411 28.5226 105.542 28.4872 105.641C28.4171 105.832 28.3431 106.047 28.2621 106.214C27.9381 106.913 27.575 107.423 27.2081 107.895C26.4715 108.842 25.6972 109.592 24.9088 110.324C23.3329 111.766 21.694 113.025 20.0164 114.216C16.6569 116.582 13.1204 118.599 9.47323 120.374C7.64351 121.247 5.79354 122.08 3.91343 122.85C2.03237 123.619 0.117408 124.313 -1.83241 124.94C-3.78694 125.56 -5.77773 126.089 -7.87166 126.46C-8.92757 126.635 -9.98961 126.787 -11.1807 126.788C-11.7755 126.788 -12.3967 126.763 -13.1395 126.589C-13.3198 126.55 -13.5332 126.476 -13.7253 126.414C-13.8238 126.381 -13.9439 126.323 -14.0508 126.275C-14.1638 126.22 -14.2604 126.184 -14.3838 126.105C-14.8458 125.839 -15.3808 125.371 -15.7095 124.693C-16.0227 124.007 -16.043 123.296 -15.954 122.772C-15.9356 122.628 -15.9017 122.53 -15.8725 122.408C-15.8414 122.295 -15.8094 122.167 -15.7717 122.071C-15.6964 121.883 -15.6177 121.673 -15.532 121.511C-15.191 120.832 -14.8119 120.344 -14.4309 119.892C-13.6655 118.989 -12.8649 118.282 -12.0529 117.595C-10.4262 116.243 -8.73071 115.095 -7.01685 113.994C-5.30393 112.893 -3.55192 111.882 -1.78437 110.909C-0.0191731 109.932 1.77475 109.017 3.58657 108.144C7.21116 106.397 10.8824 104.754 14.6897 103.339C16.5971 102.635 18.5366 101.993 20.5914 101.526C21.6276 101.304 22.6717 101.104 23.8472 101.054C24.4345 101.029 25.0487 101.03 25.7867 101.177C25.9661 101.209 26.1781 101.276 26.3702 101.332C26.4687 101.362 26.5883 101.415 26.6952 101.46C26.8082 101.512 26.9053 101.546 27.0286 101.62C27.4921 101.873 28.0328 102.328 28.3728 103" fill="#FFD23C"/>
<path id="Fill 5_7" fill-rule="evenodd" clip-rule="evenodd" d="M19.5817 105.68C15.1702 99.2206 6.63666 96.8082 -0.559294 100.349C-8.00156 104.011 -11.3238 112.725 -8.57897 120.434C-7.83955 122.51 -1.86435 120.024 7.69022 115.337C13.9202 112.281 20.7031 109.311 19.5817 105.68" fill="#FABE9B"/>
</g>
</g>
<g id="Group 16_6">
<g id="Group 12_6">
<mask id="mask23" mask-type="alpha" maskUnits="userSpaceOnUse" x="-9" y="99" width="30" height="25">
<path id="Clip 11_6" fill-rule="evenodd" clip-rule="evenodd" d="M-0.184879 101.24C-7.96021 105.194 -11.1956 114.988 -7.41174 123.114V123.114C-7.36654 123.211 -7.31718 123.303 -7.27059 123.399V123.399L20.8725 109.083C20.8296 108.986 20.7904 108.889 20.7457 108.792V108.792C18.0352 102.972 12.4583 99.5859 6.65543 99.5854V99.5854C4.35596 99.5849 2.02188 100.117 -0.184879 101.24" fill="white"/>
</mask>
<g mask="url(#mask23)">
<path id="Fill 10_6" fill-rule="evenodd" clip-rule="evenodd" d="M12.5973 99.742C12.351 100.036 12.0843 100.322 11.8025 100.596C10.8154 101.549 9.7046 102.399 8.55878 103.19C6.26345 104.774 3.84219 106.18 1.38035 107.498C0.149191 108.159 -1.09903 108.785 -2.37032 109.352C-3.63837 109.925 -4.92027 110.468 -6.22338 110.925C-7.46746 111.367 -8.72767 111.762 -9.99342 112.009C-10.0096 112.557 -10.0303 113.104 -10.0557 113.651C-10.0216 113.648 -9.9865 113.645 -9.95237 113.641C-8.48734 113.469 -7.07029 113.147 -5.68461 112.734C-2.9114 111.91 -0.253506 110.775 2.32505 109.477C4.89345 108.158 7.36314 106.613 9.64463 104.766C10.7817 103.84 11.8795 102.849 12.8874 101.725C13.3187 101.245 13.7279 100.73 14.0951 100.155C13.5918 100.035 13.0927 99.8968 12.5973 99.742" fill="#D27350"/>
</g>
</g>
<g id="Group 15_6">
<mask id="mask24" mask-type="alpha" maskUnits="userSpaceOnUse" x="-9" y="99" width="30" height="25">
<path id="Clip 14_6" fill-rule="evenodd" clip-rule="evenodd" d="M-0.184879 101.24C-7.96021 105.194 -11.1956 114.988 -7.41174 123.114V123.114C-7.36654 123.211 -7.31718 123.303 -7.27059 123.399V123.399L20.8725 109.083C20.8296 108.986 20.7904 108.889 20.7457 108.792V108.792C18.0352 102.972 12.4583 99.5859 6.65543 99.5854V99.5854C4.35596 99.5849 2.02188 100.117 -0.184879 101.24" fill="white"/>
</mask>
<g mask="url(#mask24)">
<path id="Fill 13_6" fill-rule="evenodd" clip-rule="evenodd" d="M19.0245 101.157C19.0079 101.183 18.989 101.208 18.9756 101.237C15.7282 108.197 0.78509 119.158 -10.4143 118.503C-10.5015 119.359 -10.6025 120.214 -10.7137 121.067C2.75106 120.39 17.9567 110.253 20.9255 101.657C20.2986 101.468 19.6653 101.3 19.0245 101.157" fill="#D27350"/>
</g>
</g>
</g>
</g>
</g>
</g>
</g>
</g>
<defs>
<filter id="filter0_d" x="-33" y="84" width="79" height="65" filterUnits="userSpaceOnUse" color-interpolation-filters="sRGB">
<feFlood flood-opacity="0" result="BackgroundImageFix"/>
<feColorMatrix in="SourceAlpha" type="matrix" values="0 0 0 0 0 0 0 0 0 0 0 0 0 0 0 0 0 0 127 0"/>
<feOffset dy="2"/>
<feGaussianBlur stdDeviation="2"/>
<feColorMatrix type="matrix" values="0 0 0 0 0 0 0 0 0 0 0 0 0 0 0 0 0 0 0.166439 0"/>
<feBlend mode="normal" in2="BackgroundImageFix" result="effect1_dropShadow"/>
<feBlend mode="normal" in="SourceGraphic" in2="effect1_dropShadow" result="shape"/>
</filter>
<filter id="filter1_d" x="45" y="21" width="79" height="64" filterUnits="userSpaceOnUse" color-interpolation-filters="sRGB">
<feFlood flood-opacity="0" result="BackgroundImageFix"/>
<feColorMatrix in="SourceAlpha" type="matrix" values="0 0 0 0 0 0 0 0 0 0 0 0 0 0 0 0 0 0 127 0"/>
<feOffset dy="2"/>
<feGaussianBlur stdDeviation="2"/>
<feColorMatrix type="matrix" values="0 0 0 0 0 0 0 0 0 0 0 0 0 0 0 0 0 0 0.166439 0"/>
<feBlend mode="normal" in2="BackgroundImageFix" result="effect1_dropShadow"/>
<feBlend mode="normal" in="SourceGraphic" in2="effect1_dropShadow" result="shape"/>
</filter>
<filter id="filter2_d" x="33.4166" y="3.13019" width="101.167" height="101.74" filterUnits="userSpaceOnUse" color-interpolation-filters="sRGB">
<feFlood flood-opacity="0" result="BackgroundImageFix"/>
<feColorMatrix in="SourceAlpha" type="matrix" values="0 0 0 0 0 0 0 0 0 0 0 0 0 0 0 0 0 0 127 0"/>
<feOffset dy="4"/>
<feGaussianBlur stdDeviation="12"/>
<feColorMatrix type="matrix" values="0 0 0 0 0 0 0 0 0 0 0 0 0 0 0 0 0 0 0.08 0"/>
<feBlend mode="normal" in2="BackgroundImageFix" result="effect1_dropShadow"/>
<feBlend mode="normal" in="SourceGraphic" in2="effect1_dropShadow" result="shape"/>
</filter>
<filter id="filter3_d" x="45" y="84" width="79" height="65" filterUnits="userSpaceOnUse" color-interpolation-filters="sRGB">
<feFlood flood-opacity="0" result="BackgroundImageFix"/>
<feColorMatrix in="SourceAlpha" type="matrix" values="0 0 0 0 0 0 0 0 0 0 0 0 0 0 0 0 0 0 127 0"/>
<feOffset dy="2"/>
<feGaussianBlur stdDeviation="2"/>
<feColorMatrix type="matrix" values="0 0 0 0 0 0 0 0 0 0 0 0 0 0 0 0 0 0 0.166439 0"/>
<feBlend mode="normal" in2="BackgroundImageFix" result="effect1_dropShadow"/>
<feBlend mode="normal" in="SourceGraphic" in2="effect1_dropShadow" result="shape"/>
</filter>
<filter id="filter4_d" x="33.4166" y="67.1302" width="101.167" height="101.74" filterUnits="userSpaceOnUse" color-interpolation-filters="sRGB">
<feFlood flood-opacity="0" result="BackgroundImageFix"/>
<feColorMatrix in="SourceAlpha" type="matrix" values="0 0 0 0 0 0 0 0 0 0 0 0 0 0 0 0 0 0 127 0"/>
<feOffset dy="4"/>
<feGaussianBlur stdDeviation="12"/>
<feColorMatrix type="matrix" values="0 0 0 0 0 0 0 0 0 0 0 0 0 0 0 0 0 0 0.08 0"/>
<feBlend mode="normal" in2="BackgroundImageFix" result="effect1_dropShadow"/>
<feBlend mode="normal" in="SourceGraphic" in2="effect1_dropShadow" result="shape"/>
</filter>
<filter id="filter5_d" x="45" y="148" width="79" height="64" filterUnits="userSpaceOnUse" color-interpolation-filters="sRGB">
<feFlood flood-opacity="0" result="BackgroundImageFix"/>
<feColorMatrix in="SourceAlpha" type="matrix" values="0 0 0 0 0 0 0 0 0 0 0 0 0 0 0 0 0 0 127 0"/>
<feOffset dy="2"/>
<feGaussianBlur stdDeviation="2"/>
<feColorMatrix type="matrix" values="0 0 0 0 0 0 0 0 0 0 0 0 0 0 0 0 0 0 0.166439 0"/>
<feBlend mode="normal" in2="BackgroundImageFix" result="effect1_dropShadow"/>
<feBlend mode="normal" in="SourceGraphic" in2="effect1_dropShadow" result="shape"/>
</filter>
<filter id="filter6_d" x="112.417" y="67.1302" width="101.167" height="101.74" filterUnits="userSpaceOnUse" color-interpolation-filters="sRGB">
<feFlood flood-opacity="0" result="BackgroundImageFix"/>
<feColorMatrix in="SourceAlpha" type="matrix" values="0 0 0 0 0 0 0 0 0 0 0 0 0 0 0 0 0 0 127 0"/>
<feOffset dy="4"/>
<feGaussianBlur stdDeviation="12"/>
<feColorMatrix type="matrix" values="0 0 0 0 0 0 0 0 0 0 0 0 0 0 0 0 0 0 0.08 0"/>
<feBlend mode="normal" in2="BackgroundImageFix" result="effect1_dropShadow"/>
<feBlend mode="normal" in="SourceGraphic" in2="effect1_dropShadow" result="shape"/>
</filter>
<filter id="filter7_d" x="123" y="148" width="79" height="64" filterUnits="userSpaceOnUse" color-interpolation-filters="sRGB">
<feFlood flood-opacity="0" result="BackgroundImageFix"/>
<feColorMatrix in="SourceAlpha" type="matrix" values="0 0 0 0 0 0 0 0 0 0 0 0 0 0 0 0 0 0 127 0"/>
<feOffset dy="2"/>
<feGaussianBlur stdDeviation="2"/>
<feColorMatrix type="matrix" values="0 0 0 0 0 0 0 0 0 0 0 0 0 0 0 0 0 0 0.166439 0"/>
<feBlend mode="normal" in2="BackgroundImageFix" result="effect1_dropShadow"/>
<feBlend mode="normal" in="SourceGraphic" in2="effect1_dropShadow" result="shape"/>
</filter>
<linearGradient id="paint0_linear" x1="-123.779" y1="15.3834" x2="-124.38" y2="197.829" gradientUnits="userSpaceOnUse">
<stop stop-color="#8E7EED" stop-opacity="0.01"/>
<stop offset="1" stop-color="#EFEDFF"/>
</linearGradient>
<linearGradient id="paint1_linear" x1="89.7455" y1="72.2907" x2="106.379" y2="43.481" gradientUnits="userSpaceOnUse">
<stop stop-color="#FFA44D"/>
<stop offset="1" stop-color="#B35B44"/>
</linearGradient>
<linearGradient id="paint2_linear" x1="89.7455" y1="136.291" x2="106.379" y2="107.481" gradientUnits="userSpaceOnUse">
<stop stop-color="#FFA44D"/>
<stop offset="1" stop-color="#B35B44"/>
</linearGradient>
<linearGradient id="paint3_linear" x1="168.745" y1="136.291" x2="185.379" y2="107.481" gradientUnits="userSpaceOnUse">
<stop stop-color="#FFA44D"/>
<stop offset="1" stop-color="#B35B44"/>
</linearGradient>
</defs>
</svg>
