<svg width="245" height="175" viewBox="0 0 245 175" fill="none" xmlns="http://www.w3.org/2000/svg">
<g clip-path="url(#clip0)">
<path d="M0 0H245V175H0V0Z" fill="#F7CC5F"/>
<path d="M197.026 20.4516H220.17C221.8 20.4516 223.121 21.7721 223.121 23.4011V34.2157C223.121 35.8446 221.8 37.1651 220.17 37.1651H197.026C195.396 37.1651 194.074 35.8446 194.074 34.2157V23.4011C194.074 21.7721 195.396 20.4516 197.026 20.4516Z" fill="#CEA641"/>
<path d="M197.026 79.8806H220.17C221.8 79.8806 223.121 81.2011 223.121 82.8301V93.6447C223.121 95.2736 221.8 96.5941 220.17 96.5941H197.026C195.396 96.5941 194.074 95.2736 194.074 93.6447V82.8301C194.074 81.2011 195.396 79.8806 197.026 79.8806Z" fill="#FDFFDC"/>
<path d="M197.026 49.4544H220.17C221.8 49.4544 223.121 50.7749 223.121 52.4039V63.2185C223.121 64.8474 221.8 66.1679 220.17 66.1679H197.026C195.396 66.1679 194.074 64.8474 194.074 63.2185V52.4039C194.074 50.7749 195.396 49.4544 197.026 49.4544Z" fill="#CEA641"/>
<path d="M162.587 20.4516H185.73C187.361 20.4516 188.682 21.7721 188.682 23.4011V34.2157C188.682 35.8446 187.361 37.1651 185.73 37.1651H162.587C160.957 37.1651 159.635 35.8446 159.635 34.2157V23.4011C159.635 21.7721 160.957 20.4516 162.587 20.4516Z" fill="#CEA641"/>
<path d="M162.587 79.8806H185.73C187.361 79.8806 188.682 81.2011 188.682 82.8301V93.6447C188.682 95.2736 187.361 96.5941 185.73 96.5941H162.587C160.957 96.5941 159.635 95.2736 159.635 93.6447V82.8301C159.635 81.2011 160.957 79.8806 162.587 79.8806Z" fill="#FDFFDC"/>
<path d="M162.587 49.4544H185.73C187.361 49.4544 188.682 50.7749 188.682 52.4039V63.2185C188.682 64.8474 187.361 66.1679 185.73 66.1679H162.587C160.957 66.1679 159.635 64.8474 159.635 63.2185V52.4039C159.635 50.7749 160.957 49.4544 162.587 49.4544Z" fill="#CEA641"/>
<path d="M162.587 137.835H185.73C187.361 137.835 188.682 139.155 188.682 140.784V151.599C188.682 153.228 187.361 154.548 185.73 154.548H162.587C160.957 154.548 159.635 153.228 159.635 151.599V140.784C159.635 139.155 160.957 137.835 162.587 137.835Z" fill="#CEA641"/>
<path d="M128.148 20.4516H151.291C152.922 20.4516 154.243 21.7721 154.243 23.4011V34.2157C154.243 35.8446 152.922 37.1651 151.291 37.1651H128.148C126.518 37.1651 125.196 35.8446 125.196 34.2157V23.4011C125.196 21.7721 126.518 20.4516 128.148 20.4516Z" fill="#CEA641"/>
<path d="M128.148 49.4544H151.291C152.922 49.4544 154.243 50.7749 154.243 52.4039V63.2185C154.243 64.8474 152.922 66.1679 151.291 66.1679H128.148C126.518 66.1679 125.196 64.8474 125.196 63.2185V52.4039C125.196 50.7749 126.518 49.4544 128.148 49.4544Z" fill="#CEA641"/>
<path d="M128.148 137.835H151.291C152.922 137.835 154.243 139.155 154.243 140.784V151.599C154.243 153.228 152.922 154.548 151.291 154.548H128.148C126.518 154.548 125.196 153.228 125.196 151.599V140.784C125.196 139.155 126.518 137.835 128.148 137.835Z" fill="#CEA641"/>
<path d="M93.7086 20.4516H116.852C118.482 20.4516 119.804 21.7721 119.804 23.4011V34.2157C119.804 35.8446 118.482 37.1651 116.852 37.1651H93.7086C92.0784 37.1651 90.7568 35.8446 90.7568 34.2157V23.4011C90.7568 21.7721 92.0784 20.4516 93.7086 20.4516Z" fill="#CEA641"/>
<path d="M93.7086 49.4544H116.852C118.482 49.4544 119.804 50.7749 119.804 52.4039V63.2185C119.804 64.8474 118.482 66.1679 116.852 66.1679H93.7086C92.0784 66.1679 90.7568 64.8474 90.7568 63.2185V52.4039C90.7568 50.7749 92.0784 49.4544 93.7086 49.4544Z" fill="#CEA641"/>
<path d="M93.7086 108.832H116.852C118.482 108.832 119.804 110.153 119.804 111.782V122.596C119.804 124.225 118.482 125.546 116.852 125.546H93.7086C92.0784 125.546 90.7568 124.225 90.7568 122.596V111.782C90.7568 110.153 92.0784 108.832 93.7086 108.832Z" fill="#CEA641"/>
<path d="M93.7086 137.835H116.852C118.482 137.835 119.804 139.155 119.804 140.784V151.599C119.804 153.228 118.482 154.548 116.852 154.548H93.7086C92.0784 154.548 90.7568 153.228 90.7568 151.599V140.784C90.7568 139.155 92.0784 137.835 93.7086 137.835Z" fill="#CEA641"/>
<path d="M127.826 96.8946L144.191 80.5428C145.344 79.391 147.213 79.391 148.365 80.5428L156.019 88.1899C157.171 89.3417 157.171 91.2092 156.019 92.361L139.654 108.713C138.501 109.865 136.632 109.865 135.479 108.713L127.826 101.066C126.673 99.9139 126.673 98.0464 127.826 96.8946Z" fill="#FDFFDC"/>
<path d="M98.4666 82.6964L118.708 93.9076C120.134 94.6973 120.649 96.4924 119.859 97.9171L114.612 107.376C113.821 108.8 112.025 109.315 110.599 108.526L90.3572 97.3143C88.9314 96.5246 88.4162 94.7295 89.2066 93.3048L94.4538 83.8461C95.2441 82.4214 97.0407 81.9067 98.4666 82.6964Z" fill="#FDFFDC"/>
<path d="M59.2697 20.4516H82.4132C84.0434 20.4516 85.365 21.7721 85.365 23.4011V34.2157C85.365 35.8446 84.0434 37.1651 82.4132 37.1651H59.2697C57.6395 37.1651 56.3179 35.8446 56.3179 34.2157V23.4011C56.3179 21.7721 57.6395 20.4516 59.2697 20.4516Z" fill="#CEA641"/>
<path d="M59.2697 79.8806H82.4132C84.0434 79.8806 85.365 81.2011 85.365 82.8301V93.6447C85.365 95.2736 84.0434 96.5941 82.4132 96.5941H59.2697C57.6395 96.5941 56.3179 95.2736 56.3179 93.6447V82.8301C56.3179 81.2011 57.6395 79.8806 59.2697 79.8806Z" fill="#FDFFDC"/>
<path d="M24.8305 79.8806H47.974C49.6042 79.8806 50.9258 81.2011 50.9258 82.8301V93.6447C50.9258 95.2736 49.6042 96.5941 47.974 96.5941H24.8305C23.2002 96.5941 21.8786 95.2736 21.8786 93.6447V82.8301C21.8786 81.2011 23.2002 79.8806 24.8305 79.8806Z" fill="#FDFFDC"/>
<path d="M59.2697 108.832H82.4132C84.0434 108.832 85.365 110.153 85.365 111.782V122.596C85.365 124.225 84.0434 125.546 82.4132 125.546H59.2697C57.6395 125.546 56.3179 124.225 56.3179 122.596V111.782C56.3179 110.153 57.6395 108.832 59.2697 108.832Z" fill="#CEA641"/>
<path d="M59.2697 137.835H82.4132C84.0434 137.835 85.365 139.155 85.365 140.784V151.599C85.365 153.228 84.0434 154.548 82.4132 154.548H59.2697C57.6395 154.548 56.3179 153.228 56.3179 151.599V140.784C56.3179 139.155 57.6395 137.835 59.2697 137.835Z" fill="#CEA641"/>
<path d="M24.8305 108.832H47.974C49.6042 108.832 50.9258 110.153 50.9258 111.782V122.596C50.9258 124.225 49.6042 125.546 47.974 125.546H24.8305C23.2002 125.546 21.8786 124.225 21.8786 122.596V111.782C21.8786 110.153 23.2002 108.832 24.8305 108.832Z" fill="#CEA641"/>
<path d="M24.8305 137.835H47.974C49.6042 137.835 50.9258 139.155 50.9258 140.784V151.599C50.9258 153.228 49.6042 154.548 47.974 154.548H24.8305C23.2002 154.548 21.8786 153.228 21.8786 151.599V140.784C21.8786 139.155 23.2002 137.835 24.8305 137.835Z" fill="#CEA641"/>
<path d="M109.996 -32.7785H135.578V81.2665H109.996V-32.7785Z" fill="url(#paint0_linear)"/>
<path d="M76.255 134.101H79.2068V175H76.255V134.101Z" fill="white"/>
<path d="M62.4758 169.876V166.927H79.2068V169.876H62.4758Z" fill="white"/>
<path d="M62.4758 162.821V159.871H79.2068V162.821H62.4758Z" fill="white"/>
<path d="M62.4758 155.938V152.989H79.2068V155.938H62.4758Z" fill="white"/>
<path d="M62.4758 149.056V146.107H79.2068V149.056H62.4758Z" fill="white"/>
<path d="M62.4758 142.174V139.225H79.2068V142.174H62.4758Z" fill="white"/>
<path d="M62.4759 134.101H65.4277V175H62.4759V134.101Z" fill="white"/>
<path d="M42.306 105.185H45.2578V146.084H42.306V105.185Z" fill="white"/>
<path d="M28.5269 140.96V138.01H45.2578V140.96H28.5269Z" fill="white"/>
<path d="M28.5269 133.904V130.955H45.2578V133.904H28.5269Z" fill="white"/>
<path d="M28.5269 127.022V124.073H45.2578V127.022H28.5269Z" fill="white"/>
<path d="M28.5269 120.14V117.191H45.2578V120.14H28.5269Z" fill="white"/>
<path d="M28.5269 113.258V110.309H45.2578V113.258H28.5269Z" fill="white"/>
<path d="M28.5269 105.185H31.4788V146.084H28.5269V105.185Z" fill="white"/>
<mask id="mask0" mask-type="alpha" maskUnits="userSpaceOnUse" x="103" y="66" width="40" height="27">
<path d="M137.209 67.3173L133.667 67.8939C132.371 68.1049 131.045 67.7895 129.983 67.0181L129.947 66.9923C128.865 66.2061 127.507 65.8975 126.191 66.1385L115.628 68.0728C114.997 68.1884 114.395 68.4262 113.855 68.773L105.436 74.1831C103.658 75.3254 102.81 77.4752 103.329 79.5233L105.6 88.4875C106.217 90.9224 108.57 92.5022 111.058 92.1515L117.651 91.2223C118.196 91.1454 118.725 90.9776 119.215 90.7258L135.26 82.4744C135.684 82.2559 136.075 81.9767 136.419 81.6457L140.515 77.7064C141.42 76.8357 141.958 75.6515 142.017 74.397C142.117 72.2662 142.157 71.0375 142.135 70.711C142.119 70.4604 142.024 69.9533 141.85 69.1899C141.603 68.1031 140.65 67.3218 139.535 67.2923L138.13 67.2551C137.822 67.2469 137.513 67.2677 137.209 67.3173Z" fill="white"/>
</mask>
<g mask="url(#mask0)">
<path d="M137.21 67.3172L133.668 67.894C132.373 68.105 131.046 67.7897 129.984 67.0183L129.949 66.9926C128.866 66.2065 127.509 65.8979 126.193 66.139L115.63 68.0739C114.999 68.1895 114.397 68.4274 113.857 68.7741L105.437 74.1847C103.659 75.3271 102.811 77.4769 103.33 79.525L105.6 88.4889C106.217 90.9237 108.571 92.5033 111.059 92.1525L117.651 91.2229C118.197 91.146 118.725 90.9782 119.215 90.7264L135.26 82.4741C135.685 82.2556 136.076 81.9765 136.42 81.6454L140.516 77.7059C141.421 76.8351 141.958 75.651 142.018 74.3964C142.118 72.2657 142.158 71.037 142.137 70.7105C142.12 70.4599 142.025 69.9529 141.852 69.1895C141.604 68.1027 140.651 67.3215 139.536 67.292L138.132 67.2549C137.823 67.2467 137.515 67.2676 137.21 67.3172Z" fill="#848484"/>
<path fill-rule="evenodd" clip-rule="evenodd" d="M116.016 76.5356C116.341 77.543 113.002 77.1969 113.201 77.8464C113.506 78.8447 112.623 80.6376 112.876 81.3157C113.718 83.5737 119.216 82.1003 112.391 84.2628C111.01 84.7002 103.637 86.9232 107.136 86.7091C109.646 86.5555 108.797 88.3484 110.385 88.1374C112.609 87.842 114.649 85.7952 116.798 85.1518C124.828 82.747 121.474 86.3991 128.389 82.4043C129.075 82.0082 132.569 81.6477 134.839 80.6832C136.271 80.075 137.361 78.6594 136.493 78.6316C119.79 78.0968 134.004 75.5569 142.302 74.4185C143.37 74.272 144.927 67.8453 144.023 66.8148C142.779 65.3952 133.443 68.6354 116.016 76.5356Z" fill="#979797"/>
<path fill-rule="evenodd" clip-rule="evenodd" d="M138.809 69.3208C131.375 72.7845 114.194 78.2874 113.011 75.753C111.828 73.2187 127.091 63.6067 134.526 60.143C141.96 56.6793 148.946 55.926 150.129 58.4604C151.312 60.9948 146.244 65.8572 138.809 69.3208Z" fill="#B2B2B2"/>
<path fill-rule="evenodd" clip-rule="evenodd" d="M123.95 74.9076C120.979 76.2916 118.206 76.6319 117.756 75.6677C117.306 74.7035 119.349 72.7999 122.32 71.4159C125.291 70.032 128.064 69.6917 128.514 70.6559C128.757 71.1768 130.639 72.7371 129.674 73.5762C128.853 74.2904 125.316 74.2713 123.95 74.9076Z" fill="#999999" fill-opacity="0.319111"/>
<path d="M119.851 74.7612C111.825 78.5001 104.36 79.4766 103.177 76.9422C101.994 74.4079 107.542 69.3225 115.567 65.5836C123.593 61.8447 131.058 60.8683 132.241 63.4026C133.424 65.9369 127.876 71.0223 119.851 74.7612Z" fill="#979797"/>
<path d="M119.851 74.7612C111.825 78.5001 104.36 79.4766 103.177 76.9422C101.994 74.4079 107.542 69.3225 115.567 65.5836C123.593 61.8447 131.058 60.8683 132.241 63.4026C133.424 65.9369 127.876 71.0223 119.851 74.7612Z" fill="#979797"/>
<path d="M119.851 74.7612C111.825 78.5001 104.36 79.4766 103.177 76.9422C101.994 74.4079 107.542 69.3225 115.567 65.5836C123.593 61.8447 131.058 60.8683 132.241 63.4026C133.424 65.9369 127.876 71.0223 119.851 74.7612Z" fill="#979797"/>
<mask id="mask1" mask-type="alpha" maskUnits="userSpaceOnUse" x="101" y="62" width="28" height="17">
<path d="M115.28 77.3891C108.766 80.4235 102.446 78.5693 101.308 76.1319C100.125 73.5974 105.193 68.7354 112.627 65.2724C120.061 61.8094 127.047 61.0567 128.23 63.5912C128.556 64.2901 129.378 63.4003 128.746 64.6954C127.083 68.097 119.998 75.1914 115.28 77.3891Z" fill="white"/>
</mask>
<g mask="url(#mask1)">
<path d="M115.28 77.3882C108.766 80.4224 102.445 78.5681 101.308 76.1309C100.124 73.5964 105.192 68.7347 112.627 65.2719C120.061 61.8092 127.047 61.0566 128.23 63.591C128.556 64.2899 129.378 63.4001 128.746 64.6952C127.084 68.0967 119.998 75.1907 115.28 77.3882Z" fill="#B2B2B2"/>
<path fill-rule="evenodd" clip-rule="evenodd" d="M109.174 80.3568C105.905 81.8798 102.533 81.5696 101.644 79.664C100.754 77.7584 96.9616 77.1327 100.231 75.6097C103.501 74.0867 103.973 73.8664 109.242 76.1244C110.306 76.5805 115.909 79.1546 115.121 80.2826C114.34 81.4006 110.802 79.5987 109.174 80.3568Z" fill="#A8A8A8"/>
</g>
</g>
</g>
<defs>
<linearGradient id="paint0_linear" x1="122.787" y1="5.45193" x2="122.787" y2="61.8777" gradientUnits="userSpaceOnUse">
<stop stop-color="#FFE8E8" stop-opacity="0"/>
<stop offset="1" stop-color="#FDFFDC" stop-opacity="0.53"/>
</linearGradient>
<clipPath id="clip0">
<rect width="245" height="175" fill="white" transform="matrix(-1 0 0 1 245 0)"/>
</clipPath>
</defs>
</svg>
