<svg width="44" height="17" viewBox="0 0 44 17" fill="none" xmlns="http://www.w3.org/2000/svg">
<path d="M0.619629 6.23486V8.51456L6.89688 7.83808V5.37066L0.619629 6.23486ZM2.62281 8.65323V16.4651H4.92097V8.42313L2.62281 8.65323ZM7.74465 5.25396V16.4651H10.1663V4.9204L7.74465 5.25396ZM10.6174 4.85823V7.43725L14.1142 7.06033V4.37688L10.6174 4.85823ZM10.6174 9.35679V11.9828L12.9129 11.8602V9.16323L10.6174 9.35679ZM10.6174 13.8756V16.4651H14.1142V13.7723L10.6174 13.8756ZM23.1574 3.12775V16.4651H26.332V2.69061L23.1574 3.12775ZM26.9248 2.60888V5.67678L31.5511 5.17843V1.97175L26.9248 2.60888ZM26.9248 7.98404V11.1088L29.9571 10.9465V7.72965L26.9248 7.98404ZM26.9248 13.3927V16.4651H31.5511V13.2559L26.9248 13.3927ZM15.0395 4.24926V16.4651H17.798V3.86931L15.0395 4.24926ZM18.3128 13.6482V16.465H22.317V13.5298L18.3128 13.6482ZM41.9231 1.82093C40.9198 0.892249 39.4487 0.511328 37.8397 0.737792V4.14046C38.4912 4.10501 39.0192 4.34191 39.2545 4.81888C39.6259 5.57089 39.2427 6.69921 38.3387 7.74458C36.9433 9.35776 33.2328 12.6596 33.2328 12.6596L38.5594 12.4881C41.814 9.37294 42.9828 7.48206 43.1925 5.12209C43.3027 3.87356 42.8402 2.67057 41.9231 1.82093ZM43.3802 16.4651V12.9047L32.5763 13.2236L43.3802 16.4651ZM32.5763 13.2234L32.5774 16.465H43.3802L32.5763 13.2234ZM37.2186 0.814171C34.08 1.46903 32.5387 3.73125 32.7166 7.42256L36.0631 7.13161C35.9106 5.0462 36.5617 4.5515 37.2202 4.2795L37.2186 0.814171Z" fill="#575483"/>
</svg>
