<svg width="63" height="63" viewBox="0 0 63 63" fill="none" xmlns="http://www.w3.org/2000/svg">
<g clip-path="url(#clip0)">
<path d="M18.8891 42.8536C20.0607 41.682 20.0607 39.7825 18.8891 38.6109C17.7176 37.4394 15.8181 37.4394 14.6465 38.6109L8.98965 44.2678C7.81807 45.4394 7.81807 47.3389 8.98965 48.5104C10.1612 49.682 12.0607 49.682 13.2323 48.5104L18.8891 42.8536Z" fill="#FF8181"/>
<path d="M29.4627 57.3776C30.8523 58.28 32.7103 57.8851 33.6127 56.4955C34.5151 55.1059 34.1201 53.248 32.7306 52.3456L28.5372 49.6224C27.1477 48.72 25.2897 49.1149 24.3873 50.5045C23.4849 51.894 23.8798 53.752 25.2694 54.6544L29.4627 57.3776Z" fill="#74FF9F"/>
<path d="M1.64583 26.4999C1.38665 28.1364 2.50314 29.6731 4.1396 29.9323C5.77605 30.1915 7.31278 29.075 7.57196 27.4385L8.35414 22.5001C8.61333 20.8636 7.49683 19.3269 5.86037 19.0677C4.22392 18.8085 2.6872 19.925 2.42801 21.5615L1.64583 26.4999Z" fill="#81A2FF"/>
<path d="M47.1881 24.2238C46.5943 22.677 44.859 21.9044 43.3122 22.4981C41.7654 23.0919 40.9928 24.8272 41.5866 26.374L44.8119 34.7762C45.4057 36.323 47.1409 37.0956 48.6877 36.5018C50.2345 35.9081 51.0071 34.1728 50.4134 32.626L47.1881 24.2238Z" fill="#81CFFF"/>
<path d="M51 51C52.6569 51 54 49.6569 54 48C54 46.3431 52.6569 45 51 45C49.3431 45 48 46.3431 48 48C48 49.6569 49.3431 51 51 51Z" fill="#FFC521"/>
<path d="M3 6C4.10457 6 5 5.10457 5 4C5 2.89543 4.10457 2 3 2C1.89543 2 1 2.89543 1 4C1 5.10457 1.89543 6 3 6Z" fill="#FFC521"/>
<path d="M37 42C38.1046 42 39 41.1046 39 40C39 38.8954 38.1046 38 37 38C35.8954 38 35 38.8954 35 40C35 41.1046 35.8954 42 37 42Z" fill="#81A2FF"/>
<path d="M39 15C40.1046 15 41 14.1046 41 13C41 11.8954 40.1046 11 39 11C37.8954 11 37 11.8954 37 13C37 14.1046 37.8954 15 39 15Z" fill="#FFC521"/>
<path d="M21 13C22.1046 13 23 12.1046 23 11C23 9.89543 22.1046 9 21 9C19.8954 9 19 9.89543 19 11C19 12.1046 19.8954 13 21 13Z" fill="#81CFFF"/>
<path d="M59 15C61.2091 15 63 13.2091 63 11C63 8.79086 61.2091 7 59 7C56.7909 7 55 8.79086 55 11C55 13.2091 56.7909 15 59 15Z" fill="#FF8181"/>
<path d="M41 4C42.1046 4 43 3.10457 43 2C43 0.89543 42.1046 0 41 0C39.8954 0 39 0.89543 39 2C39 3.10457 39.8954 4 41 4Z" fill="#74FF9F"/>
<path fill-rule="evenodd" clip-rule="evenodd" d="M23.7145 26.5321L21.1189 25.9677L23.1457 24.2508L22.8804 21.6078L25.1396 23.0049L27.5712 21.9358L26.9406 24.5162L28.7088 26.4985L26.0599 26.6961L24.721 28.9903L23.7145 26.5321Z" fill="#FFC521"/>
<path fill-rule="evenodd" clip-rule="evenodd" d="M4.12584 61.697L2.59376 62.9704L2.51493 60.9798L0.830404 59.9162L2.69925 59.2261L3.19023 57.2953L4.42408 58.8595L6.41205 58.7298L5.30575 60.3866L6.0434 62.2372L4.12584 61.697Z" fill="#81A2FF"/>
</g>
<defs>
<clipPath id="clip0">
<rect width="63" height="63" fill="white"/>
</clipPath>
</defs>
</svg>
