<svg width="63" height="63" viewBox="0 0 63 63" fill="none" xmlns="http://www.w3.org/2000/svg">
<g clip-path="url(#clip0)">
<path d="M42.9953 37.7593C41.8287 37.1955 40.4259 37.6841 39.862 38.8507C39.2982 40.0173 39.7868 41.4201 40.9534 41.984L46.5863 44.7066C47.7529 45.2704 49.1557 44.7818 49.7196 43.6152C50.2834 42.4486 49.7948 41.0458 48.6282 40.4819L42.9953 37.7593Z" fill="#FF8181"/>
<path d="M51.0018 26.2143C51.3108 24.9559 50.5412 23.6854 49.2828 23.3764C48.0245 23.0674 46.7539 23.837 46.4449 25.0953L45.5125 28.8927C45.2035 30.1511 45.9731 31.4217 47.2314 31.7306C48.4898 32.0396 49.7603 31.27 50.0693 30.0117L51.0018 26.2143Z" fill="#74FF9F"/>
<path d="M35.3534 54.7006C36.6286 54.4711 37.4763 53.2512 37.2468 51.976C37.0173 50.7008 35.7974 49.8531 34.5222 50.0826L30.6738 50.7753C29.3986 51.0048 28.5509 52.2247 28.7804 53.4999C29.0099 54.7752 30.2298 55.6229 31.505 55.3933L35.3534 54.7006Z" fill="#81A2FF"/>
<path d="M21.9573 21.6521C20.9677 22.4885 20.8435 23.9688 21.6799 24.9584C22.5163 25.948 23.9966 26.0722 24.9862 25.2358L30.3618 20.6925C31.3514 19.8561 31.4756 18.3758 30.6392 17.3862C29.8028 16.3966 28.3225 16.2724 27.3329 17.1088L21.9573 21.6521Z" fill="#81CFFF"/>
<path d="M40.7516 11.9491C40.3254 10.7254 38.9879 10.079 37.7643 10.5052C36.5407 10.9314 35.8942 12.2689 36.3205 13.4925C36.7467 14.7161 38.0841 15.3626 39.3077 14.9364C40.5314 14.5102 41.1778 13.1727 40.7516 11.9491Z" fill="#FFC521"/>
<path d="M19.8653 58.9739C19.5812 58.1581 18.6896 57.7272 17.8738 58.0113C17.0581 58.2954 16.6271 59.1871 16.9112 60.0028C17.1954 60.8186 18.087 61.2495 18.9028 60.9654C19.7185 60.6812 20.1495 59.7896 19.8653 58.9739Z" fill="#FFC521"/>
<path d="M37.7062 24.6036C37.4221 23.7878 36.5305 23.3569 35.7147 23.641C34.899 23.9251 34.468 24.8168 34.7521 25.6325C35.0363 26.4483 35.9279 26.8792 36.7436 26.5951C37.5594 26.3109 37.9904 25.4193 37.7062 24.6036Z" fill="#81A2FF"/>
<path d="M17.2516 30.0719C16.9674 29.2561 16.0758 28.8252 15.2601 29.1093C14.4443 29.3934 14.0133 30.2851 14.2975 31.1008C14.5816 31.9166 15.4732 32.3475 16.289 32.0634C17.1047 31.7793 17.5357 30.8876 17.2516 30.0719Z" fill="#FFC521"/>
<path d="M20.4048 43.8798C20.1206 43.0641 19.229 42.6331 18.4133 42.9172C17.5975 43.2014 17.1665 44.093 17.4507 44.9088C17.7348 45.7245 18.6264 46.1555 19.4422 45.8713C20.2579 45.5872 20.6889 44.6956 20.4048 43.8798Z" fill="#81CFFF"/>
<path d="M12.1068 15.3014C11.5386 13.6699 9.75531 12.8079 8.12381 13.3762C6.4923 13.9445 5.63038 15.7278 6.19865 17.3593C6.76693 18.9908 8.55019 19.8527 10.1817 19.2844C11.8132 18.7161 12.6751 16.9329 12.1068 15.3014Z" fill="#FF8181"/>
<path d="M8.61333 31.4244C8.32919 30.6087 7.43756 30.1777 6.62181 30.4618C5.80606 30.746 5.3751 31.6376 5.65923 32.4534C5.94337 33.2691 6.835 33.7001 7.65075 33.4159C8.46651 33.1318 8.89746 32.2402 8.61333 31.4244Z" fill="#74FF9F"/>
<path fill-rule="evenodd" clip-rule="evenodd" d="M29.7003 38.3942L29.9511 40.4563L28.1618 39.4011L26.2781 40.2769L26.7288 38.2491L25.3137 36.7282L27.3816 36.5302L28.3907 34.7144L29.2181 36.6199L31.2568 37.0185L29.7003 38.3942Z" fill="#FFC521"/>
<path fill-rule="evenodd" clip-rule="evenodd" d="M60.7094 43.8151L62.0439 44.6191L60.5941 45.1893L60.2419 46.707L59.2515 45.5043L57.6993 45.6384L58.537 44.3248L57.9299 42.89L59.4381 43.2808L60.615 42.26L60.7094 43.8151Z" fill="#81A2FF"/>
</g>
<defs>
<clipPath id="clip0">
<rect width="49.2686" height="49.2686" fill="white" transform="translate(16.2059 62.7329) rotate(-109.204)"/>
</clipPath>
</defs>
</svg>
